#N canvas 550 127 594 528 10;
#X obj 122 92 counter 1 8;
#X obj 18 167 tgl 15 0 empty empty empty 17 7 0 10 -262144 -1 -1 1
1;
#X obj 121 12 tgl 15 0 empty empty empty 17 7 0 10 -262144 -1 -1 1
1;
#X obj 52 337 cyclone/out~;
#X obj 165 389 soundfiler;
#X obj 374 392 table \$0-violin;
#X obj 164 413 outlet;
#X obj 58 300 cyclone/play~ \$0-violin;
#X obj 123 166 tgl 15 0 empty empty empty 17 7 0 10 -262144 -1 -1 0
1;
#X obj 123 199 cyclone/gate;
#X obj 268 62 hradio 20 1 1 8 empty empty empty 0 -8 0 10 -262144 -1
-1 5;
#X obj 322 32 - 1;
#X obj 122 47 metro 150;
#X obj 209 199 tgl 15 0 empty empty empty 17 7 0 10 -262144 -1 -1 0
1;
#X obj 299 204 tgl 15 0 empty empty empty 17 7 0 10 -262144 -1 -1 0
1;
#X obj 391 200 tgl 15 0 empty empty empty 17 7 0 10 -262144 -1 -1 0
1;
#X obj 24 205 cyclone/gate;
#X obj 122 135 select 1 2 3 4 5 6 7 8;
#X obj 29 239 nbx 5 14 -1e+037 1e+037 0 0 empty empty empty 0 -8 0
10 -262144 -1 -1 1 256;
#X obj 18 265;
#X obj 88 241 nbx 5 14 -1e+037 1e+037 0 0 empty empty empty 0 -8 0
10 -262144 -1 -1 0 256;
#X obj 190 241 nbx 5 14 -1e+037 1e+037 0 0 empty empty empty 0 -8 0
10 -262144 -1 -1 0 256;
#X obj 269 242 nbx 5 14 -1e+037 1e+037 0 0 empty empty empty 0 -8 0
10 -262144 -1 -1 0 256;
#X obj 379 242 nbx 5 14 -1e+037 1e+037 0 0 empty empty empty 0 -8 0
10 -262144 -1 -1 0 256;
#X obj 292 122 tgl 15 0 empty empty empty 17 7 0 10 -262144 -1 -1 0
1;
#X obj 298 160 cyclone/gate;
#X obj 217 151 tgl 15 0 empty empty empty 17 7 0 10 -262144 -1 -1 0
1;
#X obj 223 189 cyclone/gate;
#X obj 413 147 tgl 15 0 empty empty empty 17 7 0 10 -262144 -1 -1 0
1;
#X obj 419 185 cyclone/gate;
#X obj 165 357 cyclone/loadmess read -resize ../samples/BD03_1.wav
\$0-violin;
#X connect 0 0 11 0;
#X connect 0 0 17 0;
#X connect 1 0 16 0;
#X connect 2 0 12 0;
#X connect 4 0 6 0;
#X connect 7 0 3 0;
#X connect 8 0 9 0;
#X connect 9 0 20 0;
#X connect 11 0 10 0;
#X connect 12 0 0 0;
#X connect 16 0 18 0;
#X connect 17 0 16 1;
#X connect 17 1 9 1;
#X connect 17 2 27 1;
#X connect 17 3 25 1;
#X connect 18 0 7 0;
#X connect 20 0 7 0;
#X connect 21 0 7 0;
#X connect 22 0 7 0;
#X connect 24 0 25 0;
#X connect 25 0 22 0;
#X connect 26 0 27 0;
#X connect 27 0 21 0;
#X connect 28 0 29 0;
#X connect 30 0 4 0;
