#N canvas 96 39 1222 699 10;
#X obj 122 14 tgl 15 0 empty empty empty 17 7 0 10 -262144 -1 -1 0
1;
#X obj 524 496 cyclone/out~;
#X obj 338 155 hradio 20 1 1 16 empty empty empty 0 -8 0 10 -262144
-1 -1 10;
#X obj 122 86 cyclone/counter 1 16;
#X obj 130 142 - 1;
#X obj 21 316 cyclone/play~ \$0-bd;
#X obj 41 467 cyclone/loadmess read -resize ../samples/tr909/bd01.wav
\$0-bd;
#X obj 264 529 table \$0-bd;
#X obj 20 267 stepvoice;
#X obj 41 517 soundfiler;
#X obj 41 551 outlet;
#X obj 384 636 soundfiler;
#X obj 384 670 outlet;
#X obj 607 648 table \$1-hh;
#X obj 384 586 cyclone/loadmess read -resize ../samples/tr909/hh01.wav
\$1-hh;
#X obj 356 268 stepvoice;
#X obj 356 314 cyclone/play~ \$1-hh;
#X obj 732 519 soundfiler;
#X obj 732 553 outlet;
#X obj 732 469 cyclone/loadmess read -resize ../samples/tr909/rs01.wav
\$2-rs;
#X obj 955 532 table \$2-rs;
#X obj 767 327 cyclone/play~ \$2-rs;
#X obj 764 274 stepvoice;
#X obj 756 204 stepvoice;
#X obj 38 628 soundfiler;
#X obj 38 662 outlet;
#X obj 261 641 table \$3-sn;
#X obj 756 249 cyclone/play~ \$3-sn;
#X obj 62 357 volume;
#X obj 356 348 volume;
#X obj 598 348 volume;
#X obj 767 359 volume;
#X obj 122 47 metro 200;
#X msg 299 22 60000;
#X obj 319 66 /;
#X obj 319 94 / 4;
#X floatatom 394 30 5 0 300 0 - - -, f 5;
#X floatatom 388 98 5 0 0 0 - - -, f 5;
#X obj 363 11 bng 15 250 50 0 empty empty empty 17 7 0 10 -262144 -1
-1;
#X msg 95 226 1.0001e+15;
#X msg 430 235 1.0001e+13;
#X msg 816 165 1e+11;
#X msg 966 358 1.0101e+12;
#X obj 574 319 osc~ 220;
#X obj 500 386 cyclone/gate~;
#X obj 501 326 tgl 15 0 empty empty empty 17 7 0 10 -262144 -1 -1 1
1;
#X obj 37 578 cyclone/loadmess read -resize ../samples/tr909/sd02.wav
\$3-sn;
#X connect 0 0 32 0;
#X connect 3 0 4 0;
#X connect 3 0 8 0;
#X connect 3 0 15 0;
#X connect 3 0 22 0;
#X connect 3 0 23 0;
#X connect 4 0 2 0;
#X connect 5 0 28 0;
#X connect 6 0 9 0;
#X connect 8 0 5 0;
#X connect 9 0 10 0;
#X connect 11 0 12 0;
#X connect 14 0 11 0;
#X connect 15 0 16 0;
#X connect 15 0 45 0;
#X connect 16 0 29 0;
#X connect 17 0 18 0;
#X connect 19 0 17 0;
#X connect 21 0 31 0;
#X connect 22 0 21 0;
#X connect 23 0 27 0;
#X connect 24 0 25 0;
#X connect 27 0 30 0;
#X connect 28 0 1 0;
#X connect 28 0 1 1;
#X connect 29 0 1 0;
#X connect 29 0 1 1;
#X connect 30 0 1 0;
#X connect 30 0 1 1;
#X connect 31 0 1 0;
#X connect 31 0 1 1;
#X connect 32 0 3 0;
#X connect 33 0 34 0;
#X connect 34 0 35 0;
#X connect 35 0 32 1;
#X connect 35 0 37 0;
#X connect 36 0 34 1;
#X connect 36 0 38 0;
#X connect 38 0 33 0;
#X connect 43 0 44 1;
#X connect 45 0 44 0;
#X connect 46 0 24 0;
