#N canvas 0 22 1440 568 10;
#X obj 409 23 inlet;
#X obj 511 493 outlet;
#X obj 7 15 tgl 15 0 empty empty empty 17 7 0 10 -262144 -1 -1 1 1
;
#X obj 25 15 tgl 15 0 empty empty empty 17 7 0 10 -262144 -1 -1 0 1
;
#X obj 108 295 cyclone/gate;
#X obj 24 296 cyclone/gate;
#X obj 61 15 tgl 15 0 empty empty empty 17 7 0 10 -262144 -1 -1 0 1
;
#X obj 269 295 cyclone/gate;
#X obj 43 15 tgl 15 0 empty empty empty 17 7 0 10 -262144 -1 -1 0 1
;
#X obj 189 295 cyclone/gate;
#X obj 106 15 tgl 15 0 empty empty empty 17 7 0 10 -262144 -1 -1 0
1;
#X obj 431 295 cyclone/gate;
#X obj 591 295 cyclone/gate;
#X obj 512 295 cyclone/gate;
#X obj 1231 294 cyclone/gate;
#X obj 1147 291 cyclone/gate;
#X obj 991 292 cyclone/gate;
#X obj 1069 292 cyclone/gate;
#X obj 912 293 cyclone/gate;
#X obj 751 294 cyclone/gate;
#X obj 672 295 cyclone/gate;
#X obj 831 294 cyclone/gate;
#X obj 350 294 cyclone/gate;
#X obj 125 15 tgl 15 0 empty empty empty 17 7 0 10 -262144 -1 -1 0
1;
#X obj 144 15 tgl 15 0 empty empty empty 17 7 0 10 -262144 -1 -1 0
1;
#X obj 170 15 tgl 15 0 empty empty empty 17 7 0 10 -262144 -1 -1 1
1;
#X obj 190 15 tgl 15 0 empty empty empty 17 7 0 10 -262144 -1 -1 0
1;
#X obj 209 15 tgl 15 0 empty empty empty 17 7 0 10 -262144 -1 -1 0
1;
#X obj 227 15 tgl 15 0 empty empty empty 17 7 0 10 -262144 -1 -1 0
1;
#X obj 253 15 tgl 15 0 empty empty empty 17 7 0 10 -262144 -1 -1 1
1;
#X obj 271 15 tgl 15 0 empty empty empty 17 7 0 10 -262144 -1 -1 0
1;
#X obj 289 15 tgl 15 0 empty empty empty 17 7 0 10 -262144 -1 -1 0
1;
#X obj 308 15 tgl 15 0 empty empty empty 17 7 0 10 -262144 -1 -1 0
1;
#X obj 471 49 select 1 2 3 4 5 6 7 8 9 10 11 12 13 14 15 16;
#X obj 88 15 tgl 15 0 empty empty empty 17 7 0 10 -262144 -1 -1 1 1
;
#X msg 511 433 1;
#X obj 802 43 cnv 15 100 60 empty empty empty 20 12 0 14 -233017 -66577
0;
#X connect 0 0 33 0;
#X connect 2 0 5 0;
#X connect 3 0 4 0;
#X connect 4 0 35 0;
#X connect 5 0 35 0;
#X connect 6 0 7 0;
#X connect 7 0 35 0;
#X connect 8 0 9 0;
#X connect 9 0 35 0;
#X connect 10 0 11 0;
#X connect 11 0 35 0;
#X connect 12 0 35 0;
#X connect 13 0 35 0;
#X connect 14 0 35 0;
#X connect 15 0 35 0;
#X connect 16 0 35 0;
#X connect 17 0 35 0;
#X connect 18 0 35 0;
#X connect 19 0 35 0;
#X connect 20 0 35 0;
#X connect 21 0 35 0;
#X connect 22 0 35 0;
#X connect 23 0 13 0;
#X connect 24 0 12 0;
#X connect 25 0 20 0;
#X connect 26 0 19 0;
#X connect 27 0 21 0;
#X connect 28 0 18 0;
#X connect 29 0 16 0;
#X connect 30 0 17 0;
#X connect 31 0 15 0;
#X connect 32 0 14 0;
#X connect 33 0 5 1;
#X connect 33 1 4 1;
#X connect 33 2 9 1;
#X connect 33 3 7 1;
#X connect 33 4 22 1;
#X connect 33 5 11 1;
#X connect 33 6 13 1;
#X connect 33 7 12 1;
#X connect 33 8 20 1;
#X connect 33 9 19 1;
#X connect 33 10 21 1;
#X connect 33 11 18 1;
#X connect 33 12 16 1;
#X connect 33 13 17 1;
#X connect 33 14 15 1;
#X connect 33 15 14 1;
#X connect 34 0 22 0;
#X connect 35 0 1 0;
#X coords 0 -1 1 1 330 40 1 0 0;
