#N canvas 0 22 450 300 10;
#X obj 155 194 *~ 0;
#X obj 186 124 dbtorms;
#X floatatom 188 95 0 0 80 0 - - -;
#X obj 186 157 * 10;
#X obj 156 239 outlet~;
#X obj 145 59 inlet~;
#X obj 219 57 hsl 128 15 0 80 0 0 empty empty empty -2 -8 1 10 -262144
-1 -1 4000 1;
#X obj 260 100 cnv 15 100 60 empty empty empty 20 12 0 14 -233017 -66577
0;
#X connect 0 0 4 0;
#X connect 1 0 3 0;
#X connect 2 0 1 0;
#X connect 3 0 0 1;
#X connect 5 0 0 0;
#X connect 6 0 2 0;
#X coords 0 0 1 1 135 20 2 215 55;
