#N canvas 233 148 926 548 10;
#X obj 126 170 f \$1;
#X obj 266 168 f \$2;
#X obj 189 40 inlet;
#X obj 187 338 outlet;
#X floatatom 309 211 0 0 0 0 - - -;
#X obj 309 152 float;
#X obj 309 182 + \$1;
#X obj 309 240 expr if( $f1 > 6 \, -7 \, 1) \;;
#X obj 358 181 f 0;
#X obj 309 123 t b;
#X obj 358 153 r play;
#X connect 4 0 7 0;
#X connect 5 0 6 0;
#X connect 6 0 4 0;
#X connect 6 0 5 1;
#X connect 7 0 6 1;
#X connect 8 0 4 0;
#X connect 9 0 5 0;
#X connect 10 0 8 0;
