#N canvas 719 335 574 536 10;
#X obj 52 152 nbx 5 14 -1e+037 1e+037 0 0 empty empty empty 0 -8 0
10 -262144 -1 -1 0 256 0;
#X obj 51 214 until;
#X obj 51 252 eebcounter;
#X obj 51 180 t f f;
#X obj 97 224 -1;
#X obj 49 386 expr if($f1 == $f2 \, 1 \, -1);
#X obj 50 312 t p p;
#X obj 49 451 pointer;
#X obj 49 423 select 1;
#X obj 51 82 t p p;
#X obj 51 39 inlet;
#X obj 203 43 inlet;
#X obj 203 75 t f;
#X obj 49 490 outlet;
#X obj 50 284 element \$1 \$2;
#X obj 50 348 get \$3 \$4;
#X obj 52 121 getsize \$1 \$2;
#X text 269 194 \$1 : parent template  \$2 : array attribute name
\$3 : element template \$4 : element property name, f 40;
#X obj 321 119 print \$1;
#X obj 324 48 loadbang;
#X obj 326 85 symbol \$2;
#X connect 0 0 3 0;
#X connect 1 0 2 0;
#X connect 2 0 14 0;
#X connect 3 0 1 0;
#X connect 3 1 4 0;
#X connect 4 0 2 1;
#X connect 5 0 8 0;
#X connect 6 0 15 0;
#X connect 6 1 7 1;
#X connect 7 0 13 0;
#X connect 8 0 7 0;
#X connect 9 0 16 0;
#X connect 9 1 14 1;
#X connect 10 0 9 0;
#X connect 11 0 12 0;
#X connect 12 0 5 1;
#X connect 14 0 6 0;
#X connect 15 0 5 0;
#X connect 16 0 0 0;
#X connect 19 0 20 0;
#X connect 20 0 18 0;
