#N canvas -248 71 1033 509 10;
#X obj 291 457 catch-midi-note-combo;
#X obj 496 69 midiin;
#X obj 496 92 cyclone/xnotein 1;
#X obj 62 190 tgl 15 0 empty empty empty 17 7 0 10 -262144 -1 -1 0
1;
#X obj 81 190 tgl 15 0 empty empty empty 17 7 0 10 -262144 -1 -1 0
1;
#X obj 101 190 tgl 15 0 empty empty empty 17 7 0 10 -262144 -1 -1 0
1;
#X obj 121 190 tgl 15 0 empty empty empty 17 7 0 10 -262144 -1 -1 0
1;
#X obj 141 190 tgl 15 0 empty empty empty 17 7 0 10 -262144 -1 -1 0
1;
#X obj 161 190 tgl 15 0 empty empty empty 17 7 0 10 -262144 -1 -1 0
1;
#X obj 181 190 tgl 15 0 empty empty empty 17 7 0 10 -262144 -1 -1 0
1;
#X obj 201 190 tgl 15 0 empty empty empty 17 7 0 10 -262144 -1 -1 0
1;
#X obj 105 152 route 0 1 2 3 4 5 6 7;
#X obj 62 213 tgl 15 0 empty empty empty 17 7 0 10 -262144 -1 -1 0
1;
#X obj 81 213 tgl 15 0 empty empty empty 17 7 0 10 -262144 -1 -1 0
1;
#X obj 101 213 tgl 15 0 empty empty empty 17 7 0 10 -262144 -1 -1 0
1;
#X obj 121 213 tgl 15 0 empty empty empty 17 7 0 10 -262144 -1 -1 0
1;
#X obj 141 213 tgl 15 0 empty empty empty 17 7 0 10 -262144 -1 -1 0
1;
#X obj 161 213 tgl 15 0 empty empty empty 17 7 0 10 -262144 -1 -1 0
1;
#X obj 181 213 tgl 15 0 empty empty empty 17 7 0 10 -262144 -1 -1 0
1;
#X obj 201 213 tgl 15 0 empty empty empty 17 7 0 10 -262144 -1 -1 0
1;
#X obj 228 179 route 16 17 18 19 20 21 22 23;
#X obj 496 171 eeb_list_contains_element;
#X msg 643 139 list 8 24 40 56 72 88 104 120;
#X obj 643 113 loadbang;
#X obj 676 321 s;
#X obj 752 234 select 0 1;
#X msg 739 268 symbol side-panel-down;
#X msg 739 295 symbol side-panel-up;
#X obj 671 363 r side-panel-down;
#X obj 785 363 r side-panel-up;
#X obj 669 392 print sipd;
#X obj 785 394 print sipu;
#X connect 1 0 2 0;
#X connect 2 0 21 0;
#X connect 2 2 25 0;
#X connect 11 0 3 0;
#X connect 11 1 4 0;
#X connect 11 2 5 0;
#X connect 11 3 6 0;
#X connect 11 4 7 0;
#X connect 11 5 8 0;
#X connect 11 6 9 0;
#X connect 11 7 10 0;
#X connect 11 8 20 0;
#X connect 20 0 12 0;
#X connect 20 1 13 0;
#X connect 20 2 14 0;
#X connect 20 3 15 0;
#X connect 20 4 16 0;
#X connect 20 5 17 0;
#X connect 20 6 18 0;
#X connect 20 7 19 0;
#X connect 21 1 24 0;
#X connect 22 0 21 1;
#X connect 23 0 22 0;
#X connect 25 0 27 0;
#X connect 25 1 26 0;
#X connect 26 0 24 1;
#X connect 27 0 24 1;
#X connect 28 0 30 0;
#X connect 29 0 31 0;
