#N canvas 1504 349 464 377 10;
#X obj 48 31 inlet;
#X obj 253 33 inlet;
#X obj 48 61 t b l;
#X obj 75 91 unpack;
#X obj 253 66 t l;
#X obj 108 156 eeb_list_contains_element;
#X connect 0 0 2 0;
#X connect 1 0 4 0;
#X connect 2 1 3 0;
#X connect 3 1 5 0;
#X connect 4 0 5 1;
