#N canvas 495 23 667 775 10;
#X obj 146 93 cnv 15 80 630 empty empty empty 20 12 0 14 -257985 -66577
0;
#X obj 67 97 / 2;
#X obj 98 97 % 2;
#X floatatom 151 118 5 0 0 0 - - -, f 5;
#X floatatom 67 137 5 0 0 0 - - -, f 5;
#X obj 67 117 i;
#X obj 67 181 / 2;
#X obj 67 202 i;
#X obj 100 179 % 2;
#X floatatom 155 205 5 0 0 0 - - -, f 5;
#X floatatom 67 221 5 0 0 0 - - -, f 5;
#X obj 68 268 / 2;
#X obj 95 268 % 2;
#X floatatom 151 290 5 0 0 0 - - -, f 5;
#X obj 68 288 i;
#X floatatom 67 308 5 0 0 0 - - -, f 5;
#X obj 67 349 / 2;
#X obj 94 349 % 2;
#X floatatom 151 372 5 0 0 0 - - -, f 5;
#X obj 67 371 i;
#X floatatom 66 393 5 0 0 0 - - -, f 5;
#X obj 66 432 / 2;
#X obj 93 432 % 2;
#X floatatom 150 453 5 0 0 0 - - -, f 5;
#X obj 66 452 i;
#X floatatom 66 472 5 0 0 0 - - -, f 5;
#X obj 66 510 / 2;
#X obj 93 510 % 2;
#X floatatom 150 530 5 0 0 0 - - -, f 5;
#X obj 66 529 i;
#X floatatom 65 549 5 0 0 0 - - -, f 5;
#X obj 65 587 / 2;
#X obj 92 587 % 2;
#X floatatom 149 607 5 0 0 0 - - -, f 5;
#X obj 65 606 i;
#X floatatom 66 628 5 0 0 0 - - -, f 5;
#X obj 93 664 % 2;
#X floatatom 150 686 5 0 0 0 - - -, f 5;
#X text 196 95 bit;
#X text 200 118 1;
#X text 202 206 2;
#X text 199 292 3;
#X text 199 372 4;
#X text 198 455 5;
#X text 197 529 6;
#X text 194 606 7;
#X text 197 686 8;
#X obj 68 78 t f f;
#X obj 67 244 t f f;
#X obj 67 328 t f f;
#X obj 66 412 t f f;
#X obj 66 490 t f f;
#X obj 66 567 t f f;
#X obj 67 157 t f f;
#X obj 68 41 inlet;
#X obj 343 111 outlet;
#X obj 344 144 outlet;
#X obj 348 172 outlet;
#X obj 351 207 outlet;
#X obj 353 243 outlet;
#X obj 356 277 outlet;
#X obj 360 315 outlet;
#X obj 362 348 outlet;
#X connect 1 0 5 0;
#X connect 2 0 3 0;
#X connect 3 0 55 0;
#X connect 4 0 53 0;
#X connect 5 0 4 0;
#X connect 6 0 7 0;
#X connect 7 0 10 0;
#X connect 8 0 9 0;
#X connect 9 0 56 0;
#X connect 10 0 48 0;
#X connect 11 0 14 0;
#X connect 12 0 13 0;
#X connect 13 0 57 0;
#X connect 14 0 15 0;
#X connect 15 0 49 0;
#X connect 16 0 19 0;
#X connect 17 0 18 0;
#X connect 18 0 58 0;
#X connect 19 0 20 0;
#X connect 20 0 50 0;
#X connect 21 0 24 0;
#X connect 22 0 23 0;
#X connect 23 0 59 0;
#X connect 24 0 25 0;
#X connect 25 0 51 0;
#X connect 26 0 29 0;
#X connect 27 0 28 0;
#X connect 28 0 60 0;
#X connect 29 0 30 0;
#X connect 30 0 52 0;
#X connect 31 0 34 0;
#X connect 32 0 33 0;
#X connect 33 0 61 0;
#X connect 34 0 35 0;
#X connect 35 0 36 0;
#X connect 36 0 37 0;
#X connect 37 0 62 0;
#X connect 47 0 1 0;
#X connect 47 1 2 0;
#X connect 48 0 11 0;
#X connect 48 1 12 0;
#X connect 49 0 16 0;
#X connect 49 1 17 0;
#X connect 50 0 21 0;
#X connect 50 1 22 0;
#X connect 51 0 26 0;
#X connect 51 1 27 0;
#X connect 52 0 31 0;
#X connect 52 1 32 0;
#X connect 53 0 6 0;
#X connect 53 1 8 0;
#X connect 54 0 47 0;
