#N canvas 0 22 450 300 10;
#X floatatom 21 156 0 0 0 0 - - -;
#X obj 21 91 float;
#X obj 21 121 + \$1;
#X obj 98 94 f 0;
#X obj 21 62 t b;
#X obj 21 29 inlet;
#X obj 98 63 t b;
#X text 59 31 bang;
#X obj 99 32 inlet;
#X text 137 33 reset;
#X obj 229 137 loadbang;
#X obj 229 168 f \$1;
#X obj 58 206 expr if( $f1 > $f2 \, -$f2 \, 1) \;;
#X obj 21 262 outlet;
#X connect 0 0 12 0;
#X connect 0 0 13 0;
#X connect 1 0 2 0;
#X connect 2 0 0 0;
#X connect 2 0 1 1;
#X connect 3 0 0 0;
#X connect 4 0 1 0;
#X connect 5 0 4 0;
#X connect 6 0 3 0;
#X connect 8 0 6 0;
#X connect 10 0 11 0;
#X connect 11 0 12 1;
#X connect 12 0 2 1;
