#N struct obj float x symbol name;
#N struct list_el float x array els el;
#N struct el float x float y float z;
#N canvas 1268 211 382 394 10;
#X obj 29 47 pointer;
#X obj 29 291 get obj x name;
#X obj 29 326 pack f s;
#X obj 29 357 print;
#X msg 29 15 traverse pd-data \, next;
#X msg 29 113 100;
#X obj 29 141 append obj x;
#X obj 29 174 t p b p;
#X obj 29 77 t b p;
#X obj 48 251 set -symbol obj name;
#X msg 48 220 symbol Yuhei;
#X obj 256 16 cnv 15 100 60 empty empty empty 20 12 0 14 -4065 -66577
0;
#N canvas 1233 300 450 323 obj 0;
#X obj 39 38 struct obj float x symbol name;
#X restore 269 52 pd obj;
#N canvas 0 0 450 300 data 0;
#X scalar list_el 0 \; 10 0 0 \; 0 0 0 \; 0 0 0 \; 150 0 0 \; 0 0 0
\; 29 0 0 \; 0 0 0 \; 0 0 0 \; 0 0 0 \; 0 0 0 \; 67 0 0 \; 0 0 0 \;
0 0 0 \; 0 0 0 \; 0 0 0 \; 0 0 0 \; 0 0 0 \; 0 0 0 \; 29 0 0 \; 0 0
0 \; \;;
#X scalar obj 100 Yuhei \;;
#X scalar obj 100 Yuhei \;;
#X scalar obj 100 Yuhei \;;
#X scalar obj 100 Yuhei \;;
#X scalar obj 100 Yuhei \;;
#X scalar obj 100 Yuhei \;;
#X scalar obj 100 Yuhei \;;
#X scalar obj 100 symbol \;;
#X scalar obj 12 symbol \;;
#X scalar obj 100 symbol \;;
#X scalar obj 100 symbol \;;
#X scalar obj 100 symbol \;;
#X scalar obj 100 symbol \;;
#X scalar obj 100 symbol \;;
#X scalar obj 100 symbol \;;
#X scalar obj 100 symbol \;;
#X scalar obj 100 symbol \;;
#X scalar obj 100 symbol \;;
#X scalar obj 100 symbol \;;
#X restore 268 21 pd data;
#X text 180 249 use the -symbol flag;
#X text 127 219 type your message;
#X connect 0 0 8 0;
#X connect 1 0 2 0;
#X connect 1 1 2 1;
#X connect 2 0 3 0;
#X connect 4 0 0 0;
#X connect 5 0 6 0;
#X connect 6 0 7 0;
#X connect 7 0 1 0;
#X connect 7 1 10 0;
#X connect 7 2 9 1;
#X connect 8 0 5 0;
#X connect 8 1 6 1;
#X connect 10 0 9 0;
