#N canvas 430 249 350 309 10;
#X obj 25 265 outlet;
#X obj 25 19 inlet;
#X obj 25 98 t b;
#X obj 25 161 - 1;
#X obj 88 265 outlet;
#X obj 25 199 t f f f, f 11;
#X obj 88 222 select 0;
#X obj 92 19 loadbang;
#X obj 92 46 f \$1;
#X obj 92 97 + 1;
#X obj 25 130 float;
#X obj 203 17 inlet;
#X obj 77 171 expr if($f1 < 1 \, -$f2 \, 1) \;;
#X obj 203 44 t f f;
#X obj 101 138 print inlet;
#X connect 1 0 2 0;
#X connect 2 0 10 0;
#X connect 3 0 5 0;
#X connect 3 0 10 1;
#X connect 5 0 0 0;
#X connect 5 1 12 0;
#X connect 5 2 6 0;
#X connect 6 0 4 0;
#X connect 7 0 8 0;
#X connect 8 0 9 0;
#X connect 8 0 12 1;
#X connect 9 0 10 1;
#X connect 9 0 14 0;
#X connect 10 0 3 0;
#X connect 11 0 13 0;
#X connect 12 0 3 1;
#X connect 13 0 9 0;
#X connect 13 1 12 1;
