#N canvas -1037 -829 787 481 10;
#X obj 107 168 eeb.boxobj.creator Type1 row;
#X msg 138 85 200;
#X msg 236 85 50;
#X msg 318 85 2;
#X obj 107 33 bng 39 250 50 0 empty empty empty 17 7 0 10 -262144 -1
-1;
#X msg 395 88 52 1 2;
#X msg 161 279 200;
#X msg 191 279 50;
#X msg 221 279 2;
#X obj 102 276 bng 46 250 50 0 empty empty empty 17 7 0 10 -262144
-1 -1;
#X obj 102 354 eeb.boxobj.creator Type1 col;
#X text 168 85 x coord;
#X text 265 84 y coord;
#X text 342 85 last id;
#X text 442 87 parent id output number input number;
#X text 572 134 object arguments;
#X text 283 164 argument 1: object name \, argument 2: row or col;
#X msg 328 45 99;
#X obj 272 224 print msg;
#X obj 102 222 print x;
#X obj 162 223 print y;
#X obj 217 223 print id;
#X obj 271 401 print msg;
#X obj 101 399 print x;
#X obj 161 400 print y;
#X obj 216 400 print id;
#X msg 407 134 arg1 -flag1 arg2 arg3 arg4;
#X msg 300 279 arg1;
#X msg 407 110 arg1;
#X text 438 109 work well with one arg !;
#X text 151 41 Click to generate;
#X obj 362 292 tgl 29 0 empty empty empty 17 7 0 10 -262144 -1 -1 0
1;
#X text 399 300 toggle generate connect;
#X msg 251 279;
#X connect 0 0 19 0;
#X connect 0 1 20 0;
#X connect 0 2 21 0;
#X connect 0 3 18 0;
#X connect 1 0 0 1;
#X connect 2 0 0 2;
#X connect 3 0 0 3;
#X connect 4 0 0 0;
#X connect 5 0 0 4;
#X connect 6 0 10 1;
#X connect 7 0 10 2;
#X connect 8 0 10 3;
#X connect 9 0 10 0;
#X connect 10 0 23 0;
#X connect 10 1 24 0;
#X connect 10 2 25 0;
#X connect 10 3 22 0;
#X connect 17 0 0 3;
#X connect 26 0 0 5;
#X connect 27 0 10 5;
#X connect 28 0 0 5;
#X connect 31 0 10 6;
#X connect 33 0 10 4;
