#N canvas 630 180 938 753 10;
#X obj 562 27 inlet;
#X obj 691 637 outlet;
#X obj 341 618 outlet;
#X obj 547 366 f;
#X obj 547 427 + 1;
#X obj 438 25 inlet;
#X obj 495 25 inlet;
#X obj 424 191 f;
#X obj 480 192 f;
#X obj 296 180 + 90;
#X obj 371 228 + 30;
#X obj 275 153 t b;
#X obj 349 151 t b;
#X obj 439 65 t f;
#X obj 495 65 t f;
#X obj 275 206 list;
#X obj 275 253 list;
#X obj 349 250 list;
#X obj 349 204 list;
#X obj 275 119 route row col;
#X obj 275 284 t l b;
#X obj 275 340 list;
#X obj 302 313 symbol \$1;
#X obj 275 66 symbol \$2;
#X msg 275 90 \$1;
#X obj 63 629 outlet;
#X obj 63 567 list;
#X obj 120 628 outlet;
#X obj 63 595 unpack f f;
#X obj 58 20 inlet;
#X obj 424 165 t b b;
#X obj 58 123 t b b b;
#X obj 58 243 list;
#X obj 607 27 inlet;
#X obj 586 459 list;
#X obj 587 497 list;
#X obj 59 454 t b b anything;
#X obj 341 589 f;
#X obj 691 588 t b b anything;
#X msg 691 561 connect \$2 \$3 \$1 \$4;
#X obj 660 27 inlet;
#X msg 59 278 set obj \$1 \$2 \$3;
#X obj 660 83 list prepend add2;
#X obj 660 113 list prepend set;
#X msg 151 336 set;
#X obj 59 312 t b b anything b;
#X msg 59 416 obj 20 350 get Type5 index;
#X msg 659 205 add2 Type5 index;
#X obj 660 143 list trim;
#X msg 756 156 set;
#X obj 787 119 loadbang;
#X obj 186 241 loadbang;
#X connect 0 0 3 1;
#X connect 3 0 4 0;
#X connect 4 0 34 0;
#X connect 4 0 37 1;
#X connect 5 0 13 0;
#X connect 6 0 14 0;
#X connect 7 0 9 0;
#X connect 7 0 18 1;
#X connect 8 0 10 0;
#X connect 8 0 16 1;
#X connect 9 0 15 1;
#X connect 10 0 17 1;
#X connect 11 0 15 0;
#X connect 12 0 18 0;
#X connect 13 0 7 1;
#X connect 14 0 8 1;
#X connect 15 0 16 0;
#X connect 16 0 20 0;
#X connect 16 0 26 1;
#X connect 17 0 20 0;
#X connect 17 0 26 1;
#X connect 18 0 17 0;
#X connect 19 0 11 0;
#X connect 19 1 12 0;
#X connect 20 0 21 0;
#X connect 20 1 22 0;
#X connect 21 0 32 1;
#X connect 22 0 21 1;
#X connect 23 0 24 0;
#X connect 24 0 19 0;
#X connect 26 0 28 0;
#X connect 28 0 25 0;
#X connect 28 1 27 0;
#X connect 29 0 31 0;
#X connect 30 0 7 0;
#X connect 30 1 8 0;
#X connect 31 0 32 0;
#X connect 31 1 30 0;
#X connect 31 1 23 0;
#X connect 32 0 41 0;
#X connect 33 0 34 1;
#X connect 34 0 35 1;
#X connect 35 0 39 0;
#X connect 36 0 35 0;
#X connect 36 1 3 0;
#X connect 36 2 1 0;
#X connect 37 0 2 0;
#X connect 38 0 26 0;
#X connect 38 1 37 0;
#X connect 38 2 1 0;
#X connect 39 0 38 0;
#X connect 40 0 42 0;
#X connect 41 0 45 0;
#X connect 42 0 43 0;
#X connect 43 0 48 0;
#X connect 44 0 46 0;
#X connect 45 0 46 0;
#X connect 45 1 47 0;
#X connect 45 2 46 0;
#X connect 45 3 44 0;
#X connect 46 0 36 0;
#X connect 47 0 46 0;
#X connect 48 0 47 0;
#X connect 49 0 47 0;
#X connect 50 0 49 0;
#X connect 51 0 44 0;
