#N canvas 982 363 450 481 10;
#X obj 43 95 eeb.boxobj.creator Type1 row;
#X msg 95 17 200;
#X msg 128 18 50;
#X msg 163 19 2;
#X obj 34 150 print msg;
#X obj 213 151 print id;
#X obj 100 150 print x;
#X obj 158 149 print y;
#X obj 43 17 bng 39 250 50 0 empty empty empty 17 7 0 10 -262144 -1
-1;
#X msg 202 20 52 1 2;
#X msg 90 203 200;
#X msg 123 204 50;
#X msg 158 205 2;
#X obj 29 336 print msg;
#X obj 208 337 print id;
#X obj 95 336 print x;
#X obj 153 335 print y;
#X obj 38 203 bng 39 250 50 0 empty empty empty 17 7 0 10 -262144 -1
-1;
#X msg 197 206 52 1 2;
#X obj 38 281 eeb.boxobj.creator Type1 col;
#X connect 0 0 4 0;
#X connect 0 1 6 0;
#X connect 0 2 7 0;
#X connect 0 3 5 0;
#X connect 1 0 0 1;
#X connect 2 0 0 2;
#X connect 3 0 0 3;
#X connect 8 0 0 0;
#X connect 9 0 0 4;
#X connect 10 0 19 1;
#X connect 11 0 19 2;
#X connect 12 0 19 3;
#X connect 17 0 19 0;
#X connect 18 0 19 4;
#X connect 19 0 13 0;
#X connect 19 1 15 0;
#X connect 19 2 16 0;
#X connect 19 3 14 0;
