#N canvas 888 515 586 421 10;
#X obj 26 24 inlet;
#X obj 390 22 inlet;
#X obj 391 86 print;
#X obj 26 50 list split 1;
#X obj 29 345 print name;
#X obj 61 310 print prop name;
#X obj 337 318 t l l;
#X obj 365 358 list;
#X obj 289 359 list length;
#X obj 289 393 expr if($f1 > 0 \, 1 \, 0), f 28;
#X obj 289 425 select 1;
#X obj 201 26 print 1enter;
#X obj 60 90 list split 1;
#X obj 63 235 print symbol;
#X obj 160 236 print float;
#X obj 191 89 t l;
#X obj 61 152 route s f array;
#X connect 0 0 3 0;
#X connect 1 0 2 0;
#X connect 3 1 12 0;
#X connect 6 0 8 0;
#X connect 6 1 7 1;
#X connect 8 0 9 0;
#X connect 9 0 10 0;
#X connect 10 0 7 0;
#X connect 12 0 16 0;
#X connect 12 1 15 0;
#X connect 15 0 12 0;
