#N canvas 166 113 700 764 10;
#N canvas 1100 518 481 420 generate_type_router_msg 1;
#X obj 21 15 inlet;
#X obj 90 366 outlet;
#X obj 21 52 eeb_get_element_at_index 0;
#X msg 361 169 set;
#X msg 21 86 add2 \$1;
#X msg 90 269, f 13;
#X obj 320 32 loadbang;
#X msg 321 115 add2 set obj 0 0 router;
#X obj 276 58 inlet;
#X obj 276 85 t f b;
#X obj 21 156 eebcounter 99;
#X obj 21 122 t b anything;
#X obj 321 143 t anything b b;
#X obj 21 210 select 1;
#X obj 21 236 bang;
#X obj 22 299 print;
#X obj 21 183 expr if($f1 == $f2-1 \, 1 \, 0);
#X connect 0 0 2 0;
#X connect 2 0 4 0;
#X connect 3 0 5 0;
#X connect 4 0 11 0;
#X connect 5 0 1 0;
#X connect 6 0 7 0;
#X connect 7 0 12 0;
#X connect 8 0 9 0;
#X connect 9 0 16 1;
#X connect 9 1 7 0;
#X connect 10 0 16 0;
#X connect 11 0 10 0;
#X connect 11 1 5 0;
#X connect 12 0 5 0;
#X connect 12 1 3 0;
#X connect 12 2 10 2;
#X connect 13 0 14 0;
#X connect 14 0 5 0;
#X connect 16 0 13 0;
#X connect 16 0 15 0;
#X restore 348 441 pd generate_type_router_msg;
#X msg 361 504 set;
#X obj 348 472 t anything b;
#X msg 347 569 obj 0 0 router Type1 Type2 Type3 Type4;
#X obj 61 20 bng 36 250 50 0 empty empty empty 17 7 0 10 -262144 -1
-1;
#X msg 303 190 Type1 float x \, Type2 symbol s \, Type3 float y \,
Type4 array children Type1;
#X obj 137 342 f;
#X obj 176 308 eebcounter 99, f 16;
#X obj 137 374 + 1;
#X obj 302 262 eeb.gate;
#X obj 243 98 t b b;
#X obj 243 202 f 1;
#X obj 61 71 t bang bang bang bang bang;
#X obj 210 203 f 0;
#X obj 381 349 print;
#X connect 0 0 2 0;
#X connect 1 0 3 0;
#X connect 2 0 3 0;
#X connect 2 1 1 0;
#X connect 4 0 12 0;
#X connect 5 0 9 0;
#X connect 6 0 8 0;
#X connect 7 0 6 1;
#X connect 8 0 0 1;
#X connect 9 0 7 0;
#X connect 9 1 0 0;
#X connect 9 1 14 0;
#X connect 10 0 11 0;
#X connect 10 1 7 2;
#X connect 11 0 9 1;
#X connect 12 0 5 0;
#X connect 12 1 13 0;
#X connect 12 2 6 0;
#X connect 12 3 5 0;
#X connect 12 4 10 0;
#X connect 13 0 9 1;
