#N canvas 2076 167 763 753 10;
#X obj 562 27 inlet;
#X obj 61 562 outlet;
#X obj 535 564 outlet;
#X msg 59 317 obj \$1 \$2 \$3;
#X obj 547 366 f;
#X obj 547 397 + 1;
#X obj 438 25 inlet;
#X obj 495 25 inlet;
#X obj 424 191 f;
#X obj 480 192 f;
#X obj 296 180 + 90;
#X obj 371 228 + 30;
#X obj 275 153 t b;
#X obj 349 151 t b;
#X obj 439 65 t f;
#X obj 495 65 t f;
#X obj 275 206 list;
#X obj 275 253 list;
#X obj 349 250 list;
#X obj 349 204 list;
#X obj 275 119 route row col;
#X obj 275 284 t l b;
#X obj 275 340 list;
#X obj 302 313 symbol \$1;
#X obj 275 66 symbol \$2;
#X msg 275 90 \$1;
#X obj 254 564 outlet;
#X obj 254 502 list;
#X obj 311 563 outlet;
#X obj 254 530 unpack f f;
#X obj 58 20 inlet;
#X obj 424 165 t b b;
#X obj 58 123 t b b b;
#X obj 60 289 list;
#X obj 607 27 inlet;
#X obj 586 459 list;
#X obj 587 497 list;
#X obj 59 357 t b b anything;
#X obj 535 535 f;
#X obj 61 447 t b b anything;
#X obj 587 564 print;
#X msg 61 420 connect \$2 \$3 \$1 \$4;
#X connect 0 0 4 1;
#X connect 3 0 37 0;
#X connect 4 0 5 0;
#X connect 5 0 4 1;
#X connect 5 0 35 0;
#X connect 5 0 38 1;
#X connect 6 0 14 0;
#X connect 7 0 15 0;
#X connect 8 0 10 0;
#X connect 8 0 19 1;
#X connect 9 0 11 0;
#X connect 9 0 17 1;
#X connect 10 0 16 1;
#X connect 11 0 18 1;
#X connect 12 0 16 0;
#X connect 13 0 19 0;
#X connect 14 0 8 1;
#X connect 15 0 9 1;
#X connect 16 0 17 0;
#X connect 17 0 21 0;
#X connect 17 0 27 1;
#X connect 18 0 21 0;
#X connect 18 0 27 1;
#X connect 19 0 18 0;
#X connect 20 0 12 0;
#X connect 20 1 13 0;
#X connect 21 0 22 0;
#X connect 21 1 23 0;
#X connect 22 0 33 1;
#X connect 23 0 22 1;
#X connect 24 0 25 0;
#X connect 25 0 20 0;
#X connect 27 0 29 0;
#X connect 29 0 26 0;
#X connect 29 1 28 0;
#X connect 30 0 32 0;
#X connect 31 0 8 0;
#X connect 31 1 9 0;
#X connect 32 0 33 0;
#X connect 32 1 31 0;
#X connect 32 1 24 0;
#X connect 33 0 3 0;
#X connect 34 0 35 1;
#X connect 35 0 36 1;
#X connect 36 0 41 0;
#X connect 36 0 40 0;
#X connect 37 0 36 0;
#X connect 37 1 4 0;
#X connect 37 2 1 0;
#X connect 38 0 2 0;
#X connect 39 0 27 0;
#X connect 39 1 38 0;
#X connect 39 2 1 0;
#X connect 41 0 39 0;
