#N struct Type1 float x float y float z array children Type2 array
children Type2;
#N struct Type2 float x float y float z;
#N canvas -71 -786 841 691 10;
#N canvas 799 294 481 420 generate_type_router_msg 0;
#X obj 21 15 inlet;
#X obj 90 366 outlet;
#X obj 21 52 eeb_get_element_at_index 0;
#X msg 361 169 set;
#X msg 21 86 add2 \$1;
#X msg 90 269 set obj 0 0 route, f 13;
#X obj 320 32 loadbang;
#X obj 276 58 inlet;
#X obj 276 85 t f b;
#X obj 21 156 eebcounter 99;
#X obj 21 122 t b anything;
#X obj 321 143 t anything b b;
#X obj 21 210 select 1;
#X obj 21 236 bang;
#X obj 22 299 print;
#X obj 21 183 expr if($f1 == $f2-1 \, 1 \, 0);
#X msg 321 115 add2 set obj 0 0 route;
#X connect 0 0 2 0;
#X connect 2 0 4 0;
#X connect 3 0 5 0;
#X connect 4 0 10 0;
#X connect 5 0 1 0;
#X connect 6 0 16 0;
#X connect 7 0 8 0;
#X connect 8 0 15 1;
#X connect 8 1 16 0;
#X connect 9 0 15 0;
#X connect 10 0 9 0;
#X connect 10 1 5 0;
#X connect 11 0 5 0;
#X connect 11 1 3 0;
#X connect 11 2 9 2;
#X connect 12 0 13 0;
#X connect 13 0 5 0;
#X connect 15 0 12 0;
#X connect 15 0 14 0;
#X connect 16 0 11 0;
#X restore 348 441 pd generate_type_router_msg;
#X msg 429 498 set;
#X msg 347 569 obj 0 0 route Type1 Type2 Type3 Type4;
#X obj 61 20 bng 36 250 50 0 empty empty empty 17 7 0 10 -262144 -1
-1;
#X msg 303 190 Type1 float x \, Type2 symbol s \, Type3 float y \,
Type4 array children Type1;
#X obj 137 342 f;
#X obj 176 308 eebcounter 99, f 16;
#X obj 137 374 + 1;
#X obj 302 262 eeb.gate;
#X obj 243 98 t b b;
#X obj 243 202 f 1;
#X obj 61 71 t bang bang bang bang bang;
#X obj 210 203 f 0;
#X obj 381 349 print;
#X obj 348 471 t b anything b;
#N canvas 854 157 450 346 eeboo.object 0;
#X obj 0 0 route Type1 Type2 Type3 Type4;
#X obj 60 90 route Type1 Type2 Type3 Type4;
#X restore 627 356 pd eeboo.object;
#X obj 347 611 send pd-eeboo.object;
#N canvas 136 71 1185 690 test 1;
#X obj 32 41 inlet;
#X obj 493 16 inlet;
#X obj 519 99 symbol Type1;
#X obj 492 73 t p b;
#X obj 493 47 pointer Type1 Type2 Type3 Type4;
#X obj 529 142 t p b;
#N canvas 495 23 656 531 Type1 1;
#X obj 26 22 inlet;
#X obj 229 21 inlet;
#X obj 26 217 get Type1 x;
#X obj 47 244 get Type1 y;
#X obj 68 271 get Type1 z;
#X obj 134 216 set Type1 x;
#X obj 155 243 set Type1 y;
#X obj 176 271 set Type1 z;
#X obj 229 55 s $-upt-p;
#X obj 239 197 r $-upt-p;
#X obj 26 316 outlet;
#X obj 26 152 list trim;
#X obj 26 183 route x y z;
#X obj 134 181 route x y z;
#X obj 89 99 r $-upt-p;
#X obj 26 121 list append;
#X obj 26 49 route get set child;
#X obj 331 181 route children1 children2;
#X obj 331 218 element Type1 children1;
#X obj 485 217 element Type1 children2;
#X obj 566 174 r $-upt-p;
#X obj 331 319 outlet;
#X connect 0 0 16 0;
#X connect 1 0 8 0;
#X connect 2 0 10 0;
#X connect 3 0 10 0;
#X connect 4 0 10 0;
#X connect 9 0 5 1;
#X connect 9 0 6 1;
#X connect 9 0 7 1;
#X connect 11 0 12 0;
#X connect 12 0 2 0;
#X connect 12 1 3 0;
#X connect 12 2 4 0;
#X connect 13 0 5 0;
#X connect 13 1 6 0;
#X connect 13 2 7 0;
#X connect 14 0 15 1;
#X connect 15 0 11 0;
#X connect 16 0 15 0;
#X connect 16 1 13 0;
#X connect 16 2 17 0;
#X connect 17 0 18 0;
#X connect 17 1 19 0;
#X connect 18 0 21 0;
#X connect 19 0 21 0;
#X connect 20 0 19 1;
#X connect 20 0 18 1;
#X restore 32 301 pd Type1;
#X obj 101 86 r \$0-upt-pt;
#X obj 492 203 s \$0-upt-p;
#X obj 559 203 s \$0-upt-pt;
#X obj 77 278 r \$0-upt-p;
#X obj 132 240 print Type2;
#X obj 556 168 symbol Type2;
#X obj 32 177 route Type1 Type2 test;
#X obj 32 109 list prepend;
#X obj 32 143 list trim;
#X obj 210 239 print type not found;
#X obj 32 366 outlet;
#X obj 100 367 outlet;
#X connect 0 0 14 0;
#X connect 1 0 4 0;
#X connect 2 0 9 0;
#X connect 3 0 8 0;
#X connect 3 1 2 0;
#X connect 4 0 3 0;
#X connect 4 1 5 0;
#X connect 5 0 8 0;
#X connect 5 1 12 0;
#X connect 6 0 17 0;
#X connect 6 1 18 0;
#X connect 7 0 14 1;
#X connect 10 0 6 1;
#X connect 12 0 9 0;
#X connect 13 0 6 0;
#X connect 13 1 11 0;
#X connect 13 3 16 0;
#X connect 14 0 15 0;
#X connect 15 0 13 0;
#X restore 635 525 pd test;
#N canvas 495 23 450 300 init-Type2 0;
#X obj 29 129 pointer;
#X obj 29 159 t b p;
#X msg 29 195 1 2 3;
#X obj 29 260 outlet;
#X obj 30 223 append Type2 x y z;
#X obj 28 26 inlet;
#X msg 126 50 \; pd-data clear;
#X msg 29 96 traverse pd-data \, bang;
#X obj 29 50 t b b;
#X connect 0 0 1 0;
#X connect 1 0 2 0;
#X connect 1 1 4 3;
#X connect 2 0 4 0;
#X connect 4 0 3 0;
#X connect 5 0 8 0;
#X connect 7 0 0 0;
#X connect 8 0 7 0;
#X connect 8 1 6 0;
#X restore 685 470 pd init-Type2;
#N canvas 495 23 450 300 init-Type1 0;
#X obj 34 142 pointer;
#X obj 34 172 t b p;
#X obj 34 236 append Type1 x y z;
#X msg 34 208 1 2 3;
#X obj 34 273 outlet;
#X obj 36 23 inlet;
#X msg 63 74 \; pd-data clear;
#X obj 36 54 t b b;
#X msg 34 110 traverse pd-data \, bang;
#X connect 0 0 1 0;
#X connect 1 0 3 0;
#X connect 1 1 2 3;
#X connect 2 0 4 0;
#X connect 3 0 2 0;
#X connect 5 0 7 0;
#X connect 7 0 8 0;
#X connect 7 1 6 0;
#X connect 8 0 0 0;
#X restore 677 440 pd init-Type1;
#X msg 602 426 get x;
#X msg 569 464 get y;
#X obj 767 400 bng 29 250 50 0 empty empty empty 17 7 0 10 -262144
-1 -1;
#X obj 672 388 bng 29 250 50 0 empty empty empty 17 7 0 10 -262144
-1 -1;
#N canvas 0 22 450 300 data 0;
#X scalar Type1 1 2 19 \; 0 0 0 \; \; 0 0 0 \; \;;
#X restore 731 510 pd data;
#N canvas 495 23 450 300 Type1 0;
#X obj 38 40 struct Type1 float x float y float z array children Type2
array children Type2;
#X restore 731 532 pd Type1;
#N canvas 0 22 450 300 Type2 0;
#X obj 38 40 struct Type2 float x float y float z;
#X restore 732 554 pd Type2;
#X obj 154 -7;
#X obj 74 -7;
#X obj 635 557 print;
#X msg 551 492 get z;
#X msg 523 516 set z 19;
#X connect 0 0 14 0;
#X connect 1 0 2 0;
#X connect 2 0 16 0;
#X connect 3 0 11 0;
#X connect 4 0 8 0;
#X connect 5 0 7 0;
#X connect 6 0 5 1;
#X connect 7 0 0 1;
#X connect 8 0 6 0;
#X connect 8 1 0 0;
#X connect 8 1 13 0;
#X connect 9 0 10 0;
#X connect 9 1 6 2;
#X connect 10 0 8 1;
#X connect 11 0 4 0;
#X connect 11 1 12 0;
#X connect 11 2 5 0;
#X connect 11 3 4 0;
#X connect 11 4 9 0;
#X connect 12 0 8 1;
#X connect 14 0 2 0;
#X connect 14 1 2 0;
#X connect 14 2 1 0;
#X connect 17 0 29 0;
#X connect 18 0 17 1;
#X connect 19 0 17 1;
#X connect 20 0 17 0;
#X connect 21 0 17 0;
#X connect 22 0 18 0;
#X connect 23 0 19 0;
#X connect 30 0 17 0;
#X connect 31 0 17 0;
