#N canvas 88 413 636 450 10;
#N canvas 760 410 481 420 generate_type_router_msg 0;
#X obj 21 15 inlet;
#X obj 20 258 outlet;
#X obj 21 52 eeb_get_element_at_index 0;
#X msg 224 200 set;
#X msg 21 86 add2 \$1;
#X msg 20 225 set obj 0 0 router Type1 Type2 Type3 Type4;
#X obj 155 174 t anything b;
#X obj 155 114 loadbang;
#X msg 155 146 add2 set obj 0 0 router;
#X connect 0 0 2 0;
#X connect 2 0 4 0;
#X connect 3 0 5 0;
#X connect 4 0 5 0;
#X connect 5 0 1 0;
#X connect 6 0 5 0;
#X connect 6 1 3 0;
#X connect 7 0 8 0;
#X connect 8 0 6 0;
#X restore 34 87 pd generate_type_router_msg;
#X msg 34 39 Type1 float x \, Type2 symbol s \, Type3 float y \, Type4
array children Type1;
#X msg 103 147 set;
#X obj 34 118 t anything b;
#X msg 33 215;
#X connect 0 0 3 0;
#X connect 1 0 0 0;
#X connect 2 0 4 0;
#X connect 3 0 4 0;
#X connect 3 1 2 0;
