#N canvas 2172 147 520 768 10;
#X obj 229 187 f 1;
#X obj 247 244 + 1;
#X obj 279 294 + 1;
#X obj 247 267 t f f;
#X obj 228 220 t f f f;
#X obj 410 266 + 2;
#X obj 75 249 eeb_get_element_at_index;
#X obj 105 290 eeb_get_element_at_index;
#X obj 138 320 eeb_get_element_at_index;
#X obj 450 267 + 3;
#X obj 411 301 f;
#X obj 452 302 f;
#X obj 102 214 t l l l b;
#X msg 259 168 1;
#X obj 410 350 bng 15 250 50 0 empty empty empty 17 7 0 10 -262144
-1 -1;
#X obj 456 352 bng 15 250 50 0 empty empty empty 17 7 0 10 -262144
-1 -1;
#X msg 77 407 float;
#X msg 77 342 set \$1;
#X obj 77 440 route float symbol array;
#X obj 77 372 t b anything anything;
#X msg 38 528 symbol float;
#X msg 141 528 symbol symbol;
#X msg 244 528 symbol array;
#X obj 186 622 symbol;
#X obj 141 561 symbol;
#X obj 141 656 pack s s;
#X obj 141 592 t s b, f 8;
#X obj 291 629 symbol;
#X obj 244 563 symbol;
#X obj 244 657 pack s s s, f 17;
#X obj 244 602 t s b b, f 16;
#X obj 337 629 symbol;
#X obj 101 181 t l l;
#X obj 244 94 list length;
#X obj 101 152 list;
#X obj 217 159 t b f;
#X obj 217 124 moses;
#X obj 66 128 bng 15 250 50 0 empty empty empty 17 7 0 10 -262144 -1
-1;
#X obj 77 476 t b b;
#X obj 124 477 t b b;
#X obj 171 477 t b b;
#X obj 101 56 inlet;
#X obj 141 692 outlet;
#X obj 244 692 outlet;
#X obj 101 100 t b l b;
#X connect 0 0 4 0;
#X connect 1 0 3 0;
#X connect 2 0 8 1;
#X connect 3 0 7 1;
#X connect 3 1 2 0;
#X connect 4 0 6 1;
#X connect 4 1 1 0;
#X connect 4 2 5 0;
#X connect 4 2 9 0;
#X connect 5 0 10 1;
#X connect 6 0 17 0;
#X connect 7 0 23 1;
#X connect 7 0 27 1;
#X connect 8 0 31 1;
#X connect 9 0 11 1;
#X connect 10 0 36 0;
#X connect 11 0 36 0;
#X connect 12 0 6 0;
#X connect 12 1 7 0;
#X connect 12 2 8 0;
#X connect 12 3 0 0;
#X connect 13 0 0 1;
#X connect 14 0 10 0;
#X connect 15 0 11 0;
#X connect 16 0 18 0;
#X connect 17 0 19 0;
#X connect 18 0 38 0;
#X connect 18 1 39 0;
#X connect 18 2 40 0;
#X connect 19 0 16 0;
#X connect 19 1 16 0;
#X connect 20 0 24 0;
#X connect 21 0 24 0;
#X connect 22 0 28 0;
#X connect 23 0 25 1;
#X connect 24 0 26 0;
#X connect 25 0 42 0;
#X connect 26 0 25 0;
#X connect 26 1 23 0;
#X connect 27 0 29 1;
#X connect 28 0 30 0;
#X connect 29 0 43 0;
#X connect 30 0 29 0;
#X connect 30 1 27 0;
#X connect 30 2 31 0;
#X connect 31 0 29 2;
#X connect 32 0 12 0;
#X connect 32 1 33 0;
#X connect 33 0 36 1;
#X connect 34 0 32 0;
#X connect 35 0 37 0;
#X connect 35 1 0 1;
#X connect 36 0 35 0;
#X connect 37 0 34 0;
#X connect 38 0 14 0;
#X connect 38 1 20 0;
#X connect 39 0 14 0;
#X connect 39 1 21 0;
#X connect 40 0 15 0;
#X connect 40 1 22 0;
#X connect 41 0 44 0;
#X connect 44 0 34 0;
#X connect 44 1 34 1;
#X connect 44 2 13 0;
