#N struct Type1 float x float y float z array children Type2 array
children Type2;
#N struct Type2 float x float y float z;
#N canvas 837 131 1040 803 10;
#N canvas 536 230 481 420 generate_type_router_msg 0;
#X obj 21 15 inlet;
#X obj 90 366 outlet;
#X obj 21 52 eeb_get_element_at_index 0;
#X msg 361 169 set;
#X msg 21 86 add2 \$1;
#X msg 90 269 obj 20 140 route, f 13;
#X obj 320 32 loadbang;
#X obj 276 58 inlet;
#X obj 276 85 t f b;
#X obj 21 156 eebcounter 99;
#X obj 21 122 t b anything;
#X obj 321 143 t anything b b;
#X obj 21 210 select 1;
#X obj 21 236 bang;
#X obj 21 183 expr if($f1 == $f2-1 \, 1 \, 0);
#X msg 321 115 add2 obj 20 140 route;
#X connect 0 0 2 0;
#X connect 2 0 4 0;
#X connect 3 0 5 0;
#X connect 4 0 10 0;
#X connect 5 0 1 0;
#X connect 6 0 15 0;
#X connect 7 0 8 0;
#X connect 8 0 14 1;
#X connect 8 1 15 0;
#X connect 9 0 14 0;
#X connect 10 0 9 0;
#X connect 10 1 5 0;
#X connect 11 0 5 0;
#X connect 11 1 3 0;
#X connect 11 2 9 2;
#X connect 12 0 13 0;
#X connect 13 0 5 0;
#X connect 14 0 12 0;
#X connect 15 0 11 0;
#X restore 305 415 pd generate_type_router_msg;
#X obj 61 11 bng 36 250 50 0 empty empty empty 17 7 0 10 -262144 -1
-1;
#X obj 137 323 f;
#X obj 152 299 eebcounter 99, f 16;
#X obj 137 355 + 1;
#X obj 152 266 eeb.gate;
#X obj 215 99 t b b;
#X obj 215 203 f 1;
#X obj 182 204 f 0;
#N canvas 1134 293 450 461 eeboo.object 0;
#X obj 20 20 inlet;
#X obj 90 20 receive 1003-p-upt;
#X obj 20 60 list prepend;
#X obj 20 100 list trim;
#X obj 20 140 route Type5;
#N canvas 0 0 450 300 Type5-w 0;
#X obj 20 20 inlet;
#X obj 20 50 route get set child type;
#X obj 20 80 list;
#X obj 20 110 list trim;
#X connect 0 0 1 0;
#X connect 1 0 2 0;
#X connect 2 0 3 0;
#X restore 20 180 pd Type5-w;
#X connect 0 0 2 0;
#X connect 1 0 2 1;
#X connect 2 0 3 0;
#X connect 3 0 4 0;
#X connect 4 0 5 0;
#X restore 507 20 pd eeboo.object;
#X obj 304 585 send pd-eeboo.object;
#N canvas 1011 201 709 738 test 0;
#X obj 32 41 inlet;
#X obj 493 16 inlet;
#X obj 519 99 symbol Type1;
#X obj 492 73 t p b;
#X obj 493 47 pointer Type1 Type2 Type3 Type4;
#X obj 529 142 t p b;
#X obj 101 86 r \$0-upt-pt;
#X obj 492 203 s \$0-upt-p;
#X obj 559 203 s \$0-upt-pt;
#X obj 77 278 r \$0-upt-p;
#X obj 132 240 print Type2;
#X obj 556 168 symbol Type2;
#X obj 32 177 route Type1 Type2 test;
#X obj 32 109 list prepend;
#X obj 32 143 list trim;
#X obj 210 239 print type not found;
#X obj 32 366 outlet;
#X obj 100 367 outlet;
#N canvas 1140 170 656 577 Type1Test 0;
#X obj 26 10 inlet;
#X obj 229 21 inlet;
#X obj 26 217 get Type1 x;
#X obj 47 244 get Type1 y;
#X obj 68 271 get Type1 z;
#X obj 134 216 set Type1 x;
#X obj 155 243 set Type1 y;
#X obj 176 271 set Type1 z;
#X obj 229 55 s $-upt-p;
#X obj 239 197 r $-upt-p;
#X obj 26 316 outlet;
#X obj 26 152 list trim;
#X obj 26 183 route x y z;
#X obj 134 181 route x y z;
#X obj 89 99 r $-upt-p;
#X obj 26 121 list append;
#X obj 26 49 route get set child;
#X obj 331 181 route children1 children2;
#X obj 331 218 element Type1 children1;
#X obj 485 217 element Type1 children2;
#X obj 566 174 r $-upt-p;
#X obj 331 319 outlet;
#X connect 0 0 16 0;
#X connect 1 0 8 0;
#X connect 2 0 10 0;
#X connect 3 0 10 0;
#X connect 4 0 10 0;
#X connect 9 0 5 1;
#X connect 9 0 6 1;
#X connect 9 0 7 1;
#X connect 11 0 12 0;
#X connect 12 0 2 0;
#X connect 12 1 3 0;
#X connect 12 2 4 0;
#X connect 13 0 5 0;
#X connect 13 1 6 0;
#X connect 13 2 7 0;
#X connect 14 0 15 1;
#X connect 15 0 11 0;
#X connect 16 0 15 0;
#X connect 16 1 13 0;
#X connect 16 2 17 0;
#X connect 17 0 18 0;
#X connect 17 1 19 0;
#X connect 18 0 21 0;
#X connect 19 0 21 0;
#X connect 20 0 19 1;
#X connect 20 0 18 1;
#X restore 32 301 pd Type1Test;
#X connect 0 0 13 0;
#X connect 1 0 4 0;
#X connect 2 0 8 0;
#X connect 3 0 7 0;
#X connect 3 1 2 0;
#X connect 4 0 3 0;
#X connect 4 1 5 0;
#X connect 5 0 7 0;
#X connect 5 1 11 0;
#X connect 6 0 13 1;
#X connect 9 0 18 1;
#X connect 11 0 8 0;
#X connect 12 0 18 0;
#X connect 12 1 10 0;
#X connect 12 3 15 0;
#X connect 13 0 14 0;
#X connect 14 0 12 0;
#X connect 18 0 16 0;
#X connect 18 1 17 0;
#X restore 844 168 pd test;
#N canvas 495 23 450 300 init-Type2 0;
#X obj 29 129 pointer;
#X obj 29 159 t b p;
#X msg 29 195 1 2 3;
#X obj 29 260 outlet;
#X obj 30 223 append Type2 x y z;
#X obj 28 26 inlet;
#X msg 126 50 \; pd-data clear;
#X msg 29 96 traverse pd-data \, bang;
#X obj 29 50 t b b;
#X connect 0 0 1 0;
#X connect 1 0 2 0;
#X connect 1 1 4 3;
#X connect 2 0 4 0;
#X connect 4 0 3 0;
#X connect 5 0 8 0;
#X connect 7 0 0 0;
#X connect 8 0 7 0;
#X connect 8 1 6 0;
#X restore 894 129 pd init-Type2;
#N canvas 495 23 450 300 init-Type1 0;
#X obj 34 142 pointer;
#X obj 34 172 t b p;
#X obj 34 236 append Type1 x y z;
#X msg 34 208 1 2 3;
#X obj 34 273 outlet;
#X obj 36 23 inlet;
#X msg 63 74 \; pd-data clear;
#X obj 36 54 t b b;
#X msg 34 110 traverse pd-data \, bang;
#X connect 0 0 1 0;
#X connect 1 0 3 0;
#X connect 1 1 2 3;
#X connect 2 0 4 0;
#X connect 3 0 2 0;
#X connect 5 0 7 0;
#X connect 7 0 8 0;
#X connect 7 1 6 0;
#X connect 8 0 0 0;
#X restore 883 63 pd init-Type1;
#X msg 796 65 get x;
#X msg 778 87 get y;
#X obj 894 95 bng 29 250 50 0 empty empty empty 17 7 0 10 -262144 -1
-1;
#X obj 883 29 bng 29 250 50 0 empty empty empty 17 7 0 10 -262144 -1
-1;
#N canvas 0 22 450 300 data 0;
#X scalar Type1 1 2 19 \; 0 0 0 \; \; 0 0 0 \; \;;
#X restore 940 153 pd data;
#X obj 844 200 print;
#X msg 764 110 get z;
#X msg 737 133 set z 19;
#N canvas 485 174 481 443 generate_type_pointer_msg 0;
#X obj 21 15 inlet;
#X obj 90 366 outlet;
#X obj 21 52 eeb_get_element_at_index 0;
#X msg 361 169 set;
#X msg 21 86 add2 \$1;
#X msg 90 269 set obj 0 0 pointer, f 13;
#X obj 320 32 loadbang;
#X obj 276 58 inlet;
#X obj 276 85 t f b;
#X obj 21 156 eebcounter 99;
#X obj 21 122 t b anything;
#X obj 321 143 t anything b b;
#X obj 21 210 select 1;
#X obj 21 236 bang;
#X obj 21 183 expr if($f1 == $f2-1 \, 1 \, 0);
#X msg 321 115 add2 set obj 0 0 pointer;
#X connect 0 0 2 0;
#X connect 2 0 4 0;
#X connect 3 0 5 0;
#X connect 4 0 10 0;
#X connect 5 0 1 0;
#X connect 6 0 15 0;
#X connect 7 0 8 0;
#X connect 8 0 14 1;
#X connect 8 1 15 0;
#X connect 9 0 14 0;
#X connect 10 0 9 0;
#X connect 10 1 5 0;
#X connect 11 0 5 0;
#X connect 11 1 3 0;
#X connect 11 2 9 2;
#X connect 12 0 13 0;
#X connect 13 0 5 0;
#X connect 14 0 12 0;
#X connect 15 0 11 0;
#X restore 128 415 pd generate_type_pointer_msg;
#X obj 61 71 t bang bang bang bang bang bang;
#N canvas 512 23 700 673 init-object 0;
#X obj 22 19 inlet;
#X obj 35 668 outlet;
#X obj 22 53 t b b b b b b b;
#X msg 109 83 clear;
#X msg 65 201 obj 20 60 list prepend;
#X msg 94 111 obj 20 20 inlet;
#X msg 51 238 obj 20 100 list trim;
#X obj 21 479 t b b b b b b b b b;
#X obj 37 270 s gen-router;
#X text 198 107 0;
#X text 279 123 1;
#X text 210 202 2;
#X text 189 238 3;
#X text 123 271 4;
#X msg 133 507 connect 0 0 2 0;
#X msg 119 536 connect 1 0 2 1;
#X msg 105 561 connect 2 0 3 0;
#X msg 93 584 connect 3 0 4 0;
#X msg 245 198 obj 90 20 receive \$0-p-upt;
#X msg 245 124 set;
#X obj 80 147 t b b b b;
#X msg 257 147 add2 obj 90 20 receive;
#X obj 21 315 t b b b b b b b b b b;
#X text 216 344 5 + n;
#X msg 275 169 adddollsym 0-p-upt;
#X obj 147 344 s gen-type;
#X obj 133 372 s gen-type-con;
#X connect 0 0 2 0;
#X connect 2 0 22 0;
#X connect 2 1 8 0;
#X connect 2 2 6 0;
#X connect 2 3 4 0;
#X connect 2 4 20 0;
#X connect 2 5 5 0;
#X connect 2 6 3 0;
#X connect 3 0 1 0;
#X connect 4 0 1 0;
#X connect 5 0 1 0;
#X connect 6 0 1 0;
#X connect 7 5 17 0;
#X connect 7 6 16 0;
#X connect 7 7 15 0;
#X connect 7 8 14 0;
#X connect 14 0 1 0;
#X connect 15 0 1 0;
#X connect 16 0 1 0;
#X connect 17 0 1 0;
#X connect 18 0 1 0;
#X connect 19 0 18 0;
#X connect 20 0 18 0;
#X connect 20 1 24 0;
#X connect 20 2 21 0;
#X connect 20 3 19 0;
#X connect 21 0 18 0;
#X connect 22 0 7 0;
#X connect 22 8 26 0;
#X connect 22 9 25 0;
#X connect 24 0 18 0;
#X restore 392 93 pd init-object;
#X obj 392 134 send pd-eeboo.object;
#X obj 392 31 bng 36 250 50 0 empty empty empty 17 7 0 10 -262144 -1
-1;
#X obj 428 213 r gen-router;
#N canvas 485 174 498 504 generate_symb_msg 0;
#X obj 21 15 inlet;
#X obj 21 41 eeb_get_element_at_index 0;
#X msg 361 169 set;
#X msg 102 346, f 13;
#X obj 281 32 inlet;
#X obj 21 233 eebcounter 99;
#X obj 321 143 t anything b b;
#X obj 21 287 select 1;
#X obj 21 313 bang;
#X obj 21 260 expr if($f1 == $f2-1 \, 1 \, 0);
#X msg 321 115 add2 set;
#X obj 21 111 list append;
#X obj 21 72 t anything b;
#X obj 281 59 t f b b;
#X obj 21 184 t b b anything;
#X msg 61 208 addcomma;
#X obj 8 481 outlet;
#X msg 21 156 add2 obj \$2 180 symbol \$1;
#X obj 116 100 + 80;
#X obj 150 75 f -60;
#X obj 116 76 f;
#X connect 0 0 1 0;
#X connect 1 0 12 0;
#X connect 2 0 3 0;
#X connect 3 0 16 0;
#X connect 4 0 13 0;
#X connect 5 0 9 0;
#X connect 6 1 2 0;
#X connect 6 2 5 2;
#X connect 7 0 8 0;
#X connect 8 0 3 0;
#X connect 9 0 7 0;
#X connect 10 0 6 0;
#X connect 11 0 17 0;
#X connect 12 0 11 0;
#X connect 12 1 20 0;
#X connect 13 0 9 1;
#X connect 13 1 19 0;
#X connect 13 2 10 0;
#X connect 14 0 5 0;
#X connect 14 1 15 0;
#X connect 14 2 3 0;
#X connect 15 0 3 0;
#X connect 17 0 14 0;
#X connect 18 0 11 1;
#X connect 18 0 20 1;
#X connect 19 0 20 1;
#X connect 20 0 18 0;
#X restore 475 415 pd generate_symb_msg;
#X msg 507 271 2, f 1;
#X obj 508 213 r gen-pointer;
#X obj 594 213 r gen-symb;
#X obj 594 236 t b b;
#X obj 508 235 t b b;
#X obj 428 236 t b b;
#X obj 406 271 s gen-bang;
#X obj 112 22 r gen-bang;
#X msg 130 473 set;
#X msg 48 544;
#X obj 49 446 t b anything b;
#X msg 475 271 1, f 1;
#X msg 491 271 0, f 1;
#X msg 523 271 3, f 1;
#X obj 639 261 t b b;
#N canvas 455 38 506 609 gen_sym_con_msg 0;
#X obj 21 15 inlet;
#X obj 21 41 eeb_get_element_at_index 0;
#X obj 196 15 inlet;
#X obj 21 373 outlet;
#X obj 166 199 pack f f f f;
#X obj 166 106 eebcounter;
#X msg 23 272 connect \$1 \$2 \$3 \$4;
#X obj 196 40 t f b;
#X obj 21 72 t b b;
#X obj 23 237 list;
#X obj 166 132 expr 4 \; $f1 \; 5 + $f1 \; 0;
#X connect 0 0 1 0;
#X connect 1 0 8 0;
#X connect 2 0 7 0;
#X connect 4 0 9 1;
#X connect 5 0 10 0;
#X connect 6 0 3 0;
#X connect 7 0 5 1;
#X connect 7 1 5 2;
#X connect 8 0 9 0;
#X connect 8 1 5 0;
#X connect 9 0 6 0;
#X connect 10 0 4 0;
#X connect 10 1 4 1;
#X connect 10 2 4 2;
#X connect 10 3 4 3;
#X restore 603 414 pd gen_sym_con_msg;
#X obj 638 315 t b b;
#X obj 638 291 r gen-type;
#X msg 539 273 4, f 1;
#X obj 346 307 zexy/demultiplex 0 1 2 3 4;
#N canvas 695 216 1071 852 gen_type 1;
#X obj 21 15 inlet;
#X obj 438 89 eeb_get_element_at_index 0;
#X obj 440 362 outlet;
#X obj 21 41 t anything anything;
#X obj 405 118 symbol;
#X obj 405 149 t anything b;
#X obj 500 154 f;
#X obj 405 189 list prepend;
#X obj 535 21 inlet;
#X obj 535 49 bang;
#X obj 500 178 + 60;
#X obj 534 153 f -40;
#X msg 404 322 obj 20 20 inlet;
#X obj 405 362 send;
#X msg 107 144 connect 0 0 1 0;
#X msg 128 121 obj 20 50 route get set child type;
#X obj 21 79 t anything b b b b;
#X msg 439 253 obj \$1 180 pd \$2-w;
#X msg 424 286 symbol pd-\$2-w;
#X obj 405 222 t b l l l;
#N canvas 568 258 1211 816 gen-get-tree 0;
#X msg 380 133 obj 20 80 list append;
#X obj 380 159 t b b anything;
#X msg 420 193 obj 20 110 list trim;
#X msg 380 218 connect 1 0 2 0;
#X obj 380 245 t b anything;
#X msg 380 269 connect 2 0 3 0;
#X obj 383 473 outlet;
#X obj 53 30 inlet;
#N canvas 342 23 715 689 prop-parser 0;
#X obj 293 174 f 1;
#X obj 311 231 + 1;
#X obj 343 281 + 1;
#X obj 311 254 t f f;
#X obj 292 207 t f f f;
#X obj 474 253 + 2;
#X obj 139 236 eeb_get_element_at_index;
#X obj 169 277 eeb_get_element_at_index;
#X obj 202 307 eeb_get_element_at_index;
#X obj 514 254 + 3;
#X obj 475 288 f;
#X obj 516 289 f;
#X obj 166 201 t l l l b;
#X msg 323 155 1;
#X obj 474 337 bng 15 250 50 0 empty empty empty 17 7 0 10 -262144
-1 -1;
#X obj 520 339 bng 15 250 50 0 empty empty empty 17 7 0 10 -262144
-1 -1;
#X msg 141 394 float;
#X msg 141 329 set \$1;
#X obj 141 427 route float symbol array;
#X obj 141 359 t b anything anything;
#X msg 102 515 symbol float;
#X msg 205 515 symbol symbol;
#X msg 308 515 symbol array;
#X obj 250 609 symbol;
#X obj 205 548 symbol;
#X obj 205 643 pack s s;
#X obj 205 579 t s b, f 8;
#X obj 355 616 symbol;
#X obj 308 550 symbol;
#X obj 308 644 pack s s s, f 17;
#X obj 308 589 t s b b, f 16;
#X obj 401 616 symbol;
#X obj 165 168 t l l;
#X obj 308 81 list length;
#X obj 165 139 list;
#X obj 281 146 t b f;
#X obj 281 111 moses;
#X obj 130 115 bng 15 250 50 0 empty empty empty 17 7 0 10 -262144
-1 -1;
#X obj 141 463 t b b;
#X obj 188 464 t b b;
#X obj 235 464 t b b;
#X obj 165 43 inlet;
#X obj 205 679 outlet;
#X obj 308 679 outlet;
#X obj 165 87 t b l b;
#X connect 0 0 4 0;
#X connect 1 0 3 0;
#X connect 2 0 8 1;
#X connect 3 0 7 1;
#X connect 3 1 2 0;
#X connect 4 0 6 1;
#X connect 4 1 1 0;
#X connect 4 2 5 0;
#X connect 4 2 9 0;
#X connect 5 0 10 1;
#X connect 6 0 17 0;
#X connect 7 0 23 1;
#X connect 7 0 27 1;
#X connect 8 0 31 1;
#X connect 9 0 11 1;
#X connect 10 0 36 0;
#X connect 11 0 36 0;
#X connect 12 0 6 0;
#X connect 12 1 7 0;
#X connect 12 2 8 0;
#X connect 12 3 0 0;
#X connect 13 0 0 1;
#X connect 14 0 10 0;
#X connect 15 0 11 0;
#X connect 16 0 18 0;
#X connect 17 0 19 0;
#X connect 18 0 38 0;
#X connect 18 1 39 0;
#X connect 18 2 40 0;
#X connect 19 0 16 0;
#X connect 19 1 16 0;
#X connect 20 0 24 0;
#X connect 21 0 24 0;
#X connect 22 0 28 0;
#X connect 23 0 25 1;
#X connect 24 0 26 0;
#X connect 25 0 42 0;
#X connect 26 0 25 0;
#X connect 26 1 23 0;
#X connect 27 0 29 1;
#X connect 28 0 30 0;
#X connect 29 0 43 0;
#X connect 30 0 29 0;
#X connect 30 1 27 0;
#X connect 30 2 31 0;
#X connect 31 0 29 2;
#X connect 32 0 12 0;
#X connect 32 1 33 0;
#X connect 33 0 36 1;
#X connect 34 0 32 0;
#X connect 35 0 37 0;
#X connect 35 1 0 1;
#X connect 36 0 35 0;
#X connect 37 0 34 0;
#X connect 38 0 14 0;
#X connect 38 1 20 0;
#X connect 39 0 14 0;
#X connect 39 1 21 0;
#X connect 40 0 15 0;
#X connect 40 1 22 0;
#X connect 41 0 44 0;
#X connect 44 0 34 0;
#X connect 44 1 34 1;
#X connect 44 2 13 0;
#X restore 53 165 pd prop-parser;
#X obj 53 197 t anything b;
#X obj 137 196 f;
#X obj 53 230 list prepend;
#X obj 137 220 + 30;
#N canvas 1034 268 450 468 gen-props-route 0;
#X obj 29 48 inlet;
#X obj 98 399 outlet;
#X msg 369 202 set;
#X msg 29 119 add2 \$1;
#X msg 98 302 obj 20 140 route, f 13;
#X obj 328 65 loadbang;
#X obj 284 91 inlet;
#X obj 284 118 t f b;
#X obj 29 189 eebcounter 99;
#X obj 29 155 t b anything;
#X obj 329 176 t anything b b;
#X obj 29 243 select 1;
#X obj 29 269 bang;
#X obj 29 216 expr if($f1 == $f2-1 \, 1 \, 0);
#X msg 329 148 add2 obj 20 140 route;
#X obj 29 85 eeb_get_element_at_index 1;
#X connect 0 0 15 0;
#X connect 2 0 4 0;
#X connect 3 0 9 0;
#X connect 4 0 1 0;
#X connect 5 0 14 0;
#X connect 6 0 7 0;
#X connect 7 0 13 1;
#X connect 7 1 14 0;
#X connect 8 0 13 0;
#X connect 9 0 8 0;
#X connect 9 1 4 0;
#X connect 10 0 4 0;
#X connect 10 1 2 0;
#X connect 10 2 8 2;
#X connect 11 0 12 0;
#X connect 12 0 4 0;
#X connect 13 0 11 0;
#X connect 14 0 10 0;
#X connect 15 0 3 0;
#X restore 203 305 pd gen-props-route;
#N canvas 342 23 715 689 prop-parser 0;
#X obj 293 174 f 1;
#X obj 311 231 + 1;
#X obj 343 281 + 1;
#X obj 311 254 t f f;
#X obj 292 207 t f f f;
#X obj 474 253 + 2;
#X obj 139 236 eeb_get_element_at_index;
#X obj 169 277 eeb_get_element_at_index;
#X obj 202 307 eeb_get_element_at_index;
#X obj 514 254 + 3;
#X obj 475 288 f;
#X obj 516 289 f;
#X obj 166 201 t l l l b;
#X msg 323 155 1;
#X obj 474 337 bng 15 250 50 0 empty empty empty 17 7 0 10 -262144
-1 -1;
#X obj 520 339 bng 15 250 50 0 empty empty empty 17 7 0 10 -262144
-1 -1;
#X msg 141 394 float;
#X msg 141 329 set \$1;
#X obj 141 427 route float symbol array;
#X obj 141 359 t b anything anything;
#X msg 102 515 symbol float;
#X msg 205 515 symbol symbol;
#X msg 308 515 symbol array;
#X obj 250 609 symbol;
#X obj 205 548 symbol;
#X obj 205 643 pack s s;
#X obj 205 579 t s b, f 8;
#X obj 355 616 symbol;
#X obj 308 550 symbol;
#X obj 308 644 pack s s s, f 17;
#X obj 308 589 t s b b, f 16;
#X obj 401 616 symbol;
#X obj 165 168 t l l;
#X obj 308 81 list length;
#X obj 165 139 list;
#X obj 281 146 t b f;
#X obj 281 111 moses;
#X obj 130 115 bng 15 250 50 0 empty empty empty 17 7 0 10 -262144
-1 -1;
#X obj 141 463 t b b;
#X obj 188 464 t b b;
#X obj 235 464 t b b;
#X obj 165 43 inlet;
#X obj 205 679 outlet;
#X obj 308 679 outlet;
#X obj 165 87 t b l b;
#X connect 0 0 4 0;
#X connect 1 0 3 0;
#X connect 2 0 8 1;
#X connect 3 0 7 1;
#X connect 3 1 2 0;
#X connect 4 0 6 1;
#X connect 4 1 1 0;
#X connect 4 2 5 0;
#X connect 4 2 9 0;
#X connect 5 0 10 1;
#X connect 6 0 17 0;
#X connect 7 0 23 1;
#X connect 7 0 27 1;
#X connect 8 0 31 1;
#X connect 9 0 11 1;
#X connect 10 0 36 0;
#X connect 11 0 36 0;
#X connect 12 0 6 0;
#X connect 12 1 7 0;
#X connect 12 2 8 0;
#X connect 12 3 0 0;
#X connect 13 0 0 1;
#X connect 14 0 10 0;
#X connect 15 0 11 0;
#X connect 16 0 18 0;
#X connect 17 0 19 0;
#X connect 18 0 38 0;
#X connect 18 1 39 0;
#X connect 18 2 40 0;
#X connect 19 0 16 0;
#X connect 19 1 16 0;
#X connect 20 0 24 0;
#X connect 21 0 24 0;
#X connect 22 0 28 0;
#X connect 23 0 25 1;
#X connect 24 0 26 0;
#X connect 25 0 42 0;
#X connect 26 0 25 0;
#X connect 26 1 23 0;
#X connect 27 0 29 1;
#X connect 28 0 30 0;
#X connect 29 0 43 0;
#X connect 30 0 29 0;
#X connect 30 1 27 0;
#X connect 30 2 31 0;
#X connect 31 0 29 2;
#X connect 32 0 12 0;
#X connect 32 1 33 0;
#X connect 33 0 36 1;
#X connect 34 0 32 0;
#X connect 35 0 37 0;
#X connect 35 1 0 1;
#X connect 36 0 35 0;
#X connect 37 0 34 0;
#X connect 38 0 14 0;
#X connect 38 1 20 0;
#X connect 39 0 14 0;
#X connect 39 1 21 0;
#X connect 40 0 15 0;
#X connect 40 1 22 0;
#X connect 41 0 44 0;
#X connect 44 0 34 0;
#X connect 44 1 34 1;
#X connect 44 2 13 0;
#X restore 273 192 pd prop-parser;
#X obj 273 222 eebcounter 99;
#X obj 203 164 t anything anything bang;
#X obj 273 250 + 1;
#N canvas 342 23 715 689 prop-parser 0;
#X obj 293 174 f 1;
#X obj 311 231 + 1;
#X obj 343 281 + 1;
#X obj 311 254 t f f;
#X obj 292 207 t f f f;
#X obj 474 253 + 2;
#X obj 139 236 eeb_get_element_at_index;
#X obj 169 277 eeb_get_element_at_index;
#X obj 202 307 eeb_get_element_at_index;
#X obj 514 254 + 3;
#X obj 475 288 f;
#X obj 516 289 f;
#X obj 166 201 t l l l b;
#X msg 323 155 1;
#X obj 474 337 bng 15 250 50 0 empty empty empty 17 7 0 10 -262144
-1 -1;
#X obj 520 339 bng 15 250 50 0 empty empty empty 17 7 0 10 -262144
-1 -1;
#X msg 141 394 float;
#X msg 141 329 set \$1;
#X obj 141 427 route float symbol array;
#X obj 141 359 t b anything anything;
#X msg 102 515 symbol float;
#X msg 205 515 symbol symbol;
#X msg 308 515 symbol array;
#X obj 250 609 symbol;
#X obj 205 548 symbol;
#X obj 205 643 pack s s;
#X obj 205 579 t s b, f 8;
#X obj 355 616 symbol;
#X obj 308 550 symbol;
#X obj 308 644 pack s s s, f 17;
#X obj 308 589 t s b b, f 16;
#X obj 401 616 symbol;
#X obj 165 168 t l l;
#X obj 308 81 list length;
#X obj 165 139 list;
#X obj 281 146 t b f;
#X obj 281 111 moses;
#X obj 130 115 bng 15 250 50 0 empty empty empty 17 7 0 10 -262144
-1 -1;
#X obj 141 463 t b b;
#X obj 188 464 t b b;
#X obj 235 464 t b b;
#X obj 165 43 inlet;
#X obj 205 679 outlet;
#X obj 308 679 outlet;
#X obj 165 87 t b l b;
#X connect 0 0 4 0;
#X connect 1 0 3 0;
#X connect 2 0 8 1;
#X connect 3 0 7 1;
#X connect 3 1 2 0;
#X connect 4 0 6 1;
#X connect 4 1 1 0;
#X connect 4 2 5 0;
#X connect 4 2 9 0;
#X connect 5 0 10 1;
#X connect 6 0 17 0;
#X connect 7 0 23 1;
#X connect 7 0 27 1;
#X connect 8 0 31 1;
#X connect 9 0 11 1;
#X connect 10 0 36 0;
#X connect 11 0 36 0;
#X connect 12 0 6 0;
#X connect 12 1 7 0;
#X connect 12 2 8 0;
#X connect 12 3 0 0;
#X connect 13 0 0 1;
#X connect 14 0 10 0;
#X connect 15 0 11 0;
#X connect 16 0 18 0;
#X connect 17 0 19 0;
#X connect 18 0 38 0;
#X connect 18 1 39 0;
#X connect 18 2 40 0;
#X connect 19 0 16 0;
#X connect 19 1 16 0;
#X connect 20 0 24 0;
#X connect 21 0 24 0;
#X connect 22 0 28 0;
#X connect 23 0 25 1;
#X connect 24 0 26 0;
#X connect 25 0 42 0;
#X connect 26 0 25 0;
#X connect 26 1 23 0;
#X connect 27 0 29 1;
#X connect 28 0 30 0;
#X connect 29 0 43 0;
#X connect 30 0 29 0;
#X connect 30 1 27 0;
#X connect 30 2 31 0;
#X connect 31 0 29 2;
#X connect 32 0 12 0;
#X connect 32 1 33 0;
#X connect 33 0 36 1;
#X connect 34 0 32 0;
#X connect 35 0 37 0;
#X connect 35 1 0 1;
#X connect 36 0 35 0;
#X connect 37 0 34 0;
#X connect 38 0 14 0;
#X connect 38 1 20 0;
#X connect 39 0 14 0;
#X connect 39 1 21 0;
#X connect 40 0 15 0;
#X connect 40 1 22 0;
#X connect 41 0 44 0;
#X connect 44 0 34 0;
#X connect 44 1 34 1;
#X connect 44 2 13 0;
#X restore 203 279 pd prop-parser;
#X obj 165 196 f 140;
#X obj 54 256 list prepend;
#X msg 53 282 obj 20 \$2 get \$1 \$4;
#X obj 203 331 t b anything;
#X msg 203 363 connect 3 0 4 0;
#N canvas 231 22 403 415 gen-props-con 0;
#X obj 36 30 inlet;
#X obj 138 25 inlet;
#X obj 36 388 outlet;
#X obj 63 208 pack f f f f;
#X msg 38 287 connect \$1 \$2 \$3 \$4;
#X obj 36 87 t b b;
#X obj 38 252 list;
#X obj 63 141 expr 4 \; $f1 \; 5 + $f1 \; 0;
#X obj 63 115 eebcounter 99;
#X obj 138 50 t b;
#X connect 0 0 5 0;
#X connect 1 0 9 0;
#X connect 3 0 6 1;
#X connect 4 0 2 0;
#X connect 5 0 6 0;
#X connect 5 1 8 0;
#X connect 6 0 4 0;
#X connect 7 0 3 0;
#X connect 7 1 3 1;
#X connect 7 2 3 2;
#X connect 7 3 3 3;
#X connect 8 0 7 0;
#X connect 9 0 8 2;
#X restore 54 341 pd gen-props-con;
#X obj 54 307 t b anything;
#X obj 53 133 t anything b b anything;
#X obj 401 33 inlet;
#X obj 53 58 t anything b;
#X connect 0 0 1 0;
#X connect 1 0 3 0;
#X connect 1 1 2 0;
#X connect 1 2 6 0;
#X connect 2 0 6 0;
#X connect 3 0 4 0;
#X connect 4 0 5 0;
#X connect 4 1 6 0;
#X connect 5 0 6 0;
#X connect 7 0 28 0;
#X connect 8 0 9 0;
#X connect 9 0 11 0;
#X connect 9 1 10 0;
#X connect 10 0 12 0;
#X connect 11 0 20 0;
#X connect 12 0 10 1;
#X connect 12 0 11 1;
#X connect 13 0 22 0;
#X connect 14 0 15 0;
#X connect 15 0 17 0;
#X connect 16 0 18 0;
#X connect 16 1 14 0;
#X connect 16 2 15 2;
#X connect 17 0 13 1;
#X connect 18 0 13 0;
#X connect 19 0 10 1;
#X connect 20 0 21 0;
#X connect 21 0 25 0;
#X connect 22 0 23 0;
#X connect 22 1 6 0;
#X connect 23 0 6 0;
#X connect 24 0 6 0;
#X connect 25 0 24 0;
#X connect 25 1 6 0;
#X connect 26 0 8 0;
#X connect 26 1 24 1;
#X connect 26 2 19 0;
#X connect 26 3 16 0;
#X connect 27 0 20 1;
#X connect 28 0 26 0;
#X connect 28 1 0 0;
#X restore 82 217 pd gen-get-tree;
#N canvas 336 280 695 495 gen-get-method 1;
#X obj 24 20 inlet;
#X obj 154 31 inlet;
#X obj 123 138 eeb.boxobj.creator list col;
#X obj 293 332 outlet;
#X msg 250 92 \$1 0 0;
#X obj 247 29 inlet;
#X obj 154 58 unpack f f f;
#X obj 115 253 eeb.boxobj.creator list col;
#X msg 242 220 \$1 0 0;
#X obj 210 179 t f f b;
#X msg 282 116;
#X msg 317 218 trim;
#N canvas 28 338 594 454 gen-prop-route 0;
#X obj 52 35 inlet;
#X obj 121 386 outlet;
#X msg 392 189 set;
#X msg 52 106 add2 \$1;
#X msg 121 289 obj 20 140 route, f 13;
#X obj 351 52 loadbang;
#X obj 307 78 inlet;
#X obj 307 105 t f b;
#X obj 52 176 eebcounter 99;
#X obj 52 142 t b anything;
#X obj 352 163 t anything b b;
#X obj 52 230 select 1;
#X obj 52 256 bang;
#X obj 52 203 expr if($f1 == $f2-1 \, 1 \, 0);
#X msg 352 135 add2 obj 20 140 route;
#X obj 52 72 eeb_get_element_at_index 1;
#X connect 0 0 15 0;
#X connect 2 0 4 0;
#X connect 3 0 9 0;
#X connect 4 0 1 0;
#X connect 5 0 14 0;
#X connect 6 0 7 0;
#X connect 7 0 13 1;
#X connect 7 1 14 0;
#X connect 8 0 13 0;
#X connect 9 0 8 0;
#X connect 9 1 4 0;
#X connect 10 0 4 0;
#X connect 10 1 2 0;
#X connect 10 2 8 2;
#X connect 11 0 12 0;
#X connect 12 0 4 0;
#X connect 13 0 11 0;
#X connect 14 0 10 0;
#X connect 15 0 3 0;
#X restore 306 301 pd gen-prop-route;
#X obj 413 109 eeb.object.prop-parser;
#X obj 24 60 t b b b anything;
#X obj 413 135 eeb_get_element_at_index 1;
#X obj 413 169 list;
#X obj 392 34 bng 43 250 50 0 empty empty empty 17 7 0 10 -262144 -1
-1;
#X obj 392 253 print;
#X obj 392 227 list;
#X obj 413 197 t l l;
#X obj 447 41 t anything b;
#X obj 516 68 list;
#X connect 0 0 14 0;
#X connect 1 0 6 0;
#X connect 2 0 7 1;
#X connect 2 1 7 2;
#X connect 2 2 9 0;
#X connect 2 3 3 0;
#X connect 4 0 2 4;
#X connect 6 0 2 1;
#X connect 6 1 2 2;
#X connect 6 2 4 0;
#X connect 6 2 2 3;
#X connect 7 3 3 0;
#X connect 8 0 7 4;
#X connect 9 0 7 3;
#X connect 9 1 8 0;
#X connect 9 2 11 0;
#X connect 10 0 2 5;
#X connect 11 0 7 5;
#X connect 13 0 15 0;
#X connect 14 1 7 0;
#X connect 14 2 2 0;
#X connect 14 3 21 0;
#X connect 15 0 16 0;
#X connect 16 0 20 0;
#X connect 17 0 19 0;
#X connect 19 0 18 0;
#X connect 20 0 19 1;
#X connect 20 1 16 1;
#X connect 21 0 13 0;
#X connect 21 1 22 0;
#X connect 22 0 16 0;
#X connect 22 0 16 1;
#X connect 22 0 19 1;
#X connect 22 0 19 0;
#X restore 21 343 pd gen-get-method;
#X msg 69 316 20 50 1;
#X obj 22 253 t anything b;
#X connect 0 0 3 0;
#X connect 1 0 4 1;
#X connect 3 0 16 0;
#X connect 3 1 1 0;
#X connect 4 0 5 0;
#X connect 4 0 21 2;
#X connect 5 0 7 0;
#X connect 5 1 6 0;
#X connect 6 0 10 0;
#X connect 7 0 19 0;
#X connect 8 0 9 0;
#X connect 9 0 11 0;
#X connect 10 0 6 1;
#X connect 10 0 7 1;
#X connect 11 0 6 1;
#X connect 12 0 13 0;
#X connect 14 0 13 0;
#X connect 15 0 13 0;
#X connect 16 0 23 0;
#X connect 16 2 14 0;
#X connect 16 3 15 0;
#X connect 16 4 4 0;
#X connect 17 0 2 0;
#X connect 18 0 13 1;
#X connect 19 0 12 0;
#X connect 19 1 18 0;
#X connect 19 2 17 0;
#X connect 21 0 13 0;
#X connect 22 0 21 1;
#X connect 23 0 21 0;
#X connect 23 1 22 0;
#X restore 607 456 pd gen_type;
#X obj 639 239 r gen-type-con;
#N canvas 495 23 450 300 Type1Temp 0;
#X obj 16 15 struct Type1 float x float y float z array children Type2
array children Type2;
#X restore 940 175 pd Type1Temp;
#N canvas 415 23 450 300 Type2Temp 0;
#X obj 38 40 struct Type2 float x float y float z;
#X restore 941 197 pd Type2Temp;
#X msg 261 169 Type5 float x float y float z symbol a float n symbol
name float index;
#X connect 0 0 10 0;
#X connect 1 0 23 0;
#X connect 2 0 4 0;
#X connect 3 0 2 1;
#X connect 4 0 0 1;
#X connect 4 0 22 1;
#X connect 4 0 28 1;
#X connect 4 0 44 1;
#X connect 4 0 49 1;
#X connect 5 0 3 0;
#X connect 5 1 48 0;
#X connect 6 0 7 0;
#X connect 6 1 3 2;
#X connect 7 0 5 1;
#X connect 8 0 5 1;
#X connect 11 0 19 0;
#X connect 12 0 11 1;
#X connect 13 0 11 1;
#X connect 14 0 11 0;
#X connect 15 0 11 0;
#X connect 16 0 12 0;
#X connect 17 0 13 0;
#X connect 20 0 11 0;
#X connect 21 0 11 0;
#X connect 22 0 39 0;
#X connect 23 0 53 0;
#X connect 23 1 8 0;
#X connect 23 2 2 0;
#X connect 23 3 53 0;
#X connect 23 4 6 0;
#X connect 24 0 25 0;
#X connect 26 0 24 0;
#X connect 27 0 34 0;
#X connect 28 0 10 0;
#X connect 29 0 48 1;
#X connect 30 0 33 0;
#X connect 31 0 32 0;
#X connect 32 0 35 0;
#X connect 32 1 29 0;
#X connect 33 0 35 0;
#X connect 33 1 41 0;
#X connect 34 0 35 0;
#X connect 34 1 40 0;
#X connect 36 0 23 0;
#X connect 37 0 38 0;
#X connect 38 0 10 0;
#X connect 39 0 38 0;
#X connect 39 1 38 0;
#X connect 39 2 37 0;
#X connect 40 0 48 1;
#X connect 41 0 48 1;
#X connect 42 0 48 1;
#X connect 43 0 35 0;
#X connect 43 1 42 0;
#X connect 44 0 10 0;
#X connect 45 0 35 0;
#X connect 45 1 47 0;
#X connect 46 0 45 0;
#X connect 47 0 48 1;
#X connect 48 0 22 0;
#X connect 48 1 0 0;
#X connect 48 2 28 0;
#X connect 48 3 44 0;
#X connect 48 4 49 0;
#X connect 49 0 10 0;
#X connect 50 0 43 0;
#X connect 53 0 5 0;
