#N canvas 495 23 450 300 10;
#X obj 118 151 t l b;
#X msg 118 130 child \$1;
#X obj 85 45 inlet;
#X obj 85 73 t b;
#X obj 139 45 inlet;
#X obj 139 73 t f;
#X obj 145 180 outlet;
#X obj 96 180 outlet;
#X obj 118 108 f \$1;
#X connect 0 0 7 0;
#X connect 0 1 6 0;
#X connect 1 0 0 0;
#X connect 2 0 3 0;
#X connect 3 0 8 0;
#X connect 4 0 5 0;
#X connect 5 0 8 1;
#X connect 8 0 1 0;
