#N canvas 463 91 838 800 10;
#X msg 632 190 bang;
#N canvas 552 271 403 344 init_model 1;
#X msg 18 47 bang;
#X obj 18 165 outlet;
#X obj 18 12 inlet;
#X text 52 46 click here get App pointer;
#X obj 18 124 pointer App;
#X msg 18 87 traverse pd-data \, next \, rewind, f 23;
#X connect 0 0 5 0;
#X connect 2 0 0 0;
#X connect 4 0 1 0;
#X connect 5 0 4 0;
#X restore 632 216 pd init_model;
#X obj 95 98 list split 2;
#X obj 160 144 list;
#X obj 95 143 t b l;
#X obj 122 213 route app song track slot seq note;
#X obj 122 191 list trim;
#X obj 77 519 outlet;
#X obj 76 14 inlet;
#X obj 491 275 eeb_data_model App songs;
#X obj 492 310 eeb_data_model Song midiTracks;
#X obj 492 343 eeb_data_model MidiTrack slots;
#X obj 493 377 eeb_data_model SeqSlot seq;
#X obj 490 412 eeb_data_model Seq midiNotes;
#X obj 489 445 eeb_data_model MidiNote;
#X obj 76 56 t b l b;
#X obj 77 475 pointer;
#X connect 0 0 1 0;
#X connect 1 0 9 2;
#X connect 2 0 4 0;
#X connect 2 1 3 1;
#X connect 3 0 2 0;
#X connect 4 0 3 0;
#X connect 4 1 6 0;
#X connect 5 0 9 0;
#X connect 5 1 9 1;
#X connect 5 2 10 1;
#X connect 5 3 11 1;
#X connect 5 4 12 1;
#X connect 5 5 13 1;
#X connect 6 0 5 0;
#X connect 8 0 15 0;
#X connect 9 0 16 1;
#X connect 9 1 10 2;
#X connect 9 1 16 1;
#X connect 10 1 11 2;
#X connect 10 1 16 1;
#X connect 11 1 12 2;
#X connect 11 1 16 1;
#X connect 12 1 13 2;
#X connect 12 1 16 1;
#X connect 13 1 14 2;
#X connect 13 1 16 1;
#X connect 14 1 16 1;
#X connect 15 0 16 0;
#X connect 15 1 2 0;
#X connect 15 2 0 0;
#X connect 16 0 7 0;
