#N canvas 1243 276 506 451 10;
#X obj 197 13 inlet;
#X obj 197 43 t p;
#X obj 47 164 pointer;
#X obj 47 96 route get set child;
#X obj 47 8 inlet;
#X obj 121 213 eeb_get_child_at_index \$1 \$2;
#X obj 25 260 outlet;
#X obj 83 259 outlet;
#X obj 130 260 outlet;
#X obj 47 64 route list;
#X obj 47 127 t b;
#X obj 47 37 t l;
#X connect 0 0 1 0;
#X connect 1 0 2 1;
#X connect 1 0 5 1;
#X connect 2 0 6 0;
#X connect 3 0 10 0;
#X connect 3 1 7 0;
#X connect 3 2 5 0;
#X connect 4 0 11 0;
#X connect 5 0 8 0;
#X connect 9 0 3 0;
#X connect 10 0 2 0;
#X connect 11 0 9 0;
