#N canvas 120 310 541 455 10;
#X obj 27 31 inlet;
#X text 65 33 tick;
#X obj 27 70 t b;
#X obj 109 31 inlet;
#X text 147 31 resolution;
#X obj 222 31 inlet;
#X obj 222 68 t f;
#X text 260 31 number of steps;
#X obj 27 131 eebcounter;
#X obj 27 181 eebcounter;
#X obj 109 70 t f f;
#X obj 27 239 *;
#X obj 27 281 outlet;
#X text 73 281 current step beat value;
#X obj 222 96 - 1;
#X connect 0 0 2 0;
#X connect 2 0 8 0;
#X connect 3 0 10 0;
#X connect 5 0 6 0;
#X connect 6 0 14 0;
#X connect 8 1 9 0;
#X connect 9 0 11 0;
#X connect 10 0 8 1;
#X connect 10 1 11 1;
#X connect 11 0 12 0;
#X connect 14 0 9 1;
