#N canvas 295 360 548 529 10;
#X obj 98 349 eeb_list_interval;
#X obj 97 402 print interval;
#X msg 114 133 2;
#X msg 129 177 4;
#X msg 196 206 5;
#X msg 203 228 6;
#X msg 106 108 1;
#X msg 180 156 3;
#X msg 81 56 list Parent symbol name float index array children Child
;
#X msg 94 87 0;
#X msg 170 134 2;
#X msg 147 84 0;
#X msg 160 109 1;
#X msg 141 202 5;
#X msg 148 224 6;
#X msg 187 181 4;
#X msg 125 153 3;
#X obj 32 22 bng 41 250 50 0 empty empty empty 17 7 0 10 -262144 -1
-1;
#X msg 149 252 7;
#X msg 211 251 7;
#X msg 155 276 8;
#X msg 220 272 8;
#X connect 0 0 1 0;
#X connect 2 0 0 1;
#X connect 3 0 0 1;
#X connect 4 0 0 2;
#X connect 5 0 0 2;
#X connect 6 0 0 1;
#X connect 7 0 0 2;
#X connect 8 0 0 0;
#X connect 9 0 0 1;
#X connect 10 0 0 2;
#X connect 11 0 0 2;
#X connect 12 0 0 2;
#X connect 13 0 0 1;
#X connect 14 0 0 1;
#X connect 15 0 0 2;
#X connect 16 0 0 1;
#X connect 17 0 0 0;
#X connect 18 0 0 1;
#X connect 19 0 0 2;
#X connect 20 0 0 1;
#X connect 21 0 0 2;
