#N struct MidiNote float pitch float velocity float duration float
isActivated float beatTime float index;
#N struct Seq float length array midiNotes MidiNote float isMuted float
index float resolution;
#N struct SeqSlot float isMuted array seq Seq float index;
#N struct MidiTrack float isMuted array slots SeqSlot float index;
#N struct Song float bpm symbol name array midiTracks MidiTrack float
index;
#N struct App array songs Song float resolution symbol version;
#N canvas 162 23 594 776 10;
#X msg 199 137 app 0 song 0 track 1 slot 2 seq 0 note 2;
#X msg 138 68 app 0 song 0 track 1;
#X msg 114 41 app 0 song 0;
#X msg 159 91 app 0 song 0 track 1 slot 0;
#X msg 181 114 app 0 song 0 track 1 slot 8 seq 0;
#X msg 91 16 app 0;
#X obj 474 98 eeb_sequencer_data;
#X obj 505 13 loadbang;
#X msg 505 41 bang;
#N canvas 0 23 586 787 init_model 0;
#X msg 223 118 \; pd-data clear;
#X msg 203 158 traverse pd-data \, bang;
#X obj 184 93 t b b b;
#X msg 184 60 bang;
#X text 219 59 click here to re-initialize;
#X text 313 123 send reset memory message;
#X text 346 156 send get global data pointer message;
#X obj 202 402 outlet;
#X obj 184 25 inlet;
#X msg 346 406 symbol eeboo_song;
#X obj 329 455 eeb_init_children_array Song MidiTrack midiTracks 16
;
#X obj 413 554 set MidiTrack isMuted;
#X obj 346 430 set -symbol Song name;
#X obj 394 498 t p b p;
#X obj 394 580 eeb_init_children_array MidiTrack SeqSlot slots 16;
#X obj 501 630 t p b p;
#X obj 520 679 set SeqSlot isMuted;
#X obj 413 525 f 0;
#X obj 520 654 f 0;
#X obj 601 749 t p b p;
#X obj 501 702 eeb_init_children_array SeqSlot Seq seq 1;
#X obj 601 825 eeb_init_children_array Seq MidiNote midiNotes 64;
#X obj 836 860 t p b p;
#X obj 855 912 set MidiNote pitch velocity duration isActivated beatTime
;
#X msg 855 886 60 100 240 0 0;
#X obj 620 801 set Seq length isMuted resolution;
#X msg 620 775 16 0 4;
#X obj 203 212 f 480;
#X obj 203 241 append App resolution;
#X obj 203 182 t b p;
#X obj 202 266 t p p b p;
#X msg 236 293 symbol 0.0.1;
#X obj 236 317 set -symbol App version;
#X obj 219 339 eeb_init_children_array App Song songs 1;
#X obj 329 376 t p b p b p;
#X obj 492 431 set Song index bpm;
#X msg 492 403 0 120;
#X obj 118 186 pointer;
#X connect 1 0 37 0;
#X connect 2 1 1 0;
#X connect 2 2 0 0;
#X connect 3 0 2 0;
#X connect 8 0 3 0;
#X connect 9 0 12 0;
#X connect 10 1 13 0;
#X connect 13 0 14 0;
#X connect 13 1 17 0;
#X connect 13 2 11 1;
#X connect 14 1 15 0;
#X connect 15 0 20 0;
#X connect 15 1 18 0;
#X connect 15 2 16 1;
#X connect 17 0 11 0;
#X connect 18 0 16 0;
#X connect 19 0 21 0;
#X connect 19 1 26 0;
#X connect 19 2 25 3;
#X connect 20 1 19 0;
#X connect 21 1 22 0;
#X connect 22 1 24 0;
#X connect 22 2 23 5;
#X connect 24 0 23 0;
#X connect 26 0 25 0;
#X connect 27 0 28 0;
#X connect 28 0 30 0;
#X connect 29 0 27 0;
#X connect 29 1 28 1;
#X connect 30 0 7 0;
#X connect 30 1 33 0;
#X connect 30 2 31 0;
#X connect 30 3 32 1;
#X connect 31 0 32 0;
#X connect 33 1 34 0;
#X connect 34 0 10 0;
#X connect 34 1 9 0;
#X connect 34 2 12 1;
#X connect 34 3 36 0;
#X connect 34 4 35 2;
#X connect 36 0 35 0;
#X connect 37 0 29 0;
#X restore 505 67 pd init_model;
#X obj 199 213 eeb_app_path;
#X obj 118 288 eeb_app_object;
#X msg 14 186 version get;
#X msg 14 208 name get;
#X msg 13 232 name set new-name;
#X obj 119 338 print get;
#X msg 24 468 name set new-name;
#X msg 25 422 isMuted get;
#X msg 25 444 isActivated get;
#X msg 26 376 length get;
#X msg 26 398 duration get;
#X connect 0 0 10 0;
#X connect 1 0 10 0;
#X connect 2 0 10 0;
#X connect 3 0 10 0;
#X connect 4 0 10 0;
#X connect 5 0 10 0;
#X connect 7 0 8 0;
#X connect 8 0 9 0;
#X connect 10 0 11 1;
#X connect 11 0 15 0;
#X connect 12 0 11 0;
#X connect 13 0 11 0;
#X connect 14 0 11 0;
#X connect 16 0 11 0;
#X connect 17 0 11 0;
#X connect 18 0 11 0;
#X connect 19 0 11 0;
#X connect 20 0 11 0;
