#N canvas 1030 276 506 451 10;
#X obj 219 20 inlet;
#X obj 219 50 t p;
#X obj 174 129 eeb_get_child_at_index \$1 \$2;
#X obj 124 176 outlet;
#X obj 124 90 pointer;
#X obj 174 176 outlet;
#X obj 124 20 inlet;
#X obj 174 20 inlet;
#X obj 124 58 bang;
#X connect 0 0 1 0;
#X connect 1 0 2 1;
#X connect 1 0 4 1;
#X connect 2 0 5 0;
#X connect 4 0 3 0;
#X connect 6 0 8 0;
#X connect 7 0 2 0;
#X connect 8 0 4 0;
