#N canvas 719 335 450 300 10;
#X obj 48 26 inlet;
#X obj 123 25 inlet;
#X obj 123 87 t p;
#X obj 48 160 outlet;
#X obj 48 86 f;
#X obj 48 124 element \$1 \$2;
#X connect 0 0 4 0;
#X connect 1 0 2 0;
#X connect 2 0 5 1;
#X connect 4 0 5 0;
#X connect 5 0 3 0;
