#N canvas 110 234 450 300 10;
#X obj 36 23 inlet;
#X obj 36 50 t l;
#X obj 36 99 eeb_get_element_at_index 0;
#X obj 205 142 f;
#X obj 189 232 outlet;
#X obj 253 24 inlet;
#X obj 252 178 list prepend;
#X obj 253 55 t l b;
#X obj 252 230 outlet;
#X connect 0 0 1 0;
#X connect 1 0 2 0;
#X connect 2 0 3 1;
#X connect 2 1 4 0;
#X connect 3 0 6 1;
#X connect 5 0 7 0;
#X connect 6 0 8 0;
#X connect 7 0 6 0;
#X connect 7 1 3 0;
