#N struct SeqSlot float isMuted array seq Seq float index;
#N struct Seq float length array midiNotes MidiNote float isMuted float
index float resolution;
#N struct MidiNote float pitch float velocity float duration float
isActivated float beatTime float index;
#N canvas 321 83 838 800 10;
#X msg 599 213 bang;
#N canvas 292 35 403 236 init_model 0;
#X msg 18 96 traverse pd-data \, bang;
#X msg 18 47 bang;
#X text 53 46 click here to re-initialize;
#X text 128 61 send reset memory message;
#X text 165 98 send get global data pointer message;
#X obj 18 153 outlet;
#X obj 18 12 inlet;
#X obj 18 125 pointer;
#X connect 0 0 7 0;
#X connect 1 0 0 0;
#X connect 6 0 1 0;
#X connect 7 0 5 0;
#X restore 599 239 pd init_model;
#N canvas 998 374 222 214 MidiNote 0;
#X obj 23 136 outlet;
#X obj 22 24 inlet;
#X obj 89 26 inlet;
#X obj 158 135 outlet;
#X obj 22 90 eeb_data_model MidiNote;
#X obj 156 28 inlet;
#X connect 1 0 4 0;
#X connect 2 0 4 1;
#X connect 4 0 0 0;
#X connect 4 1 3 0;
#X connect 5 0 4 2;
#X restore 536 456 pd MidiNote;
#N canvas 1262 335 450 553 Seq 0;
#X obj 37 199 outlet;
#X obj 37 68 inlet;
#X obj 119 68 inlet;
#X obj 202 201 outlet;
#X obj 37 134 eeb_data_model Seq midiNotes;
#X obj 201 68 inlet;
#X connect 1 0 4 0;
#X connect 2 0 4 1;
#X connect 4 0 0 0;
#X connect 4 1 3 0;
#X connect 5 0 4 2;
#X restore 566 422 pd Seq;
#N canvas 923 312 613 552 SeqSlot 0;
#X obj 188 125 outlet;
#X obj 188 13 inlet;
#X obj 263 12 inlet;
#X obj 341 121 outlet;
#X obj 35 363 struct SeqSlot float isMuted array seq Seq float index
;
#X obj 188 79 eeb_data_model SeqSlot seq;
#X obj 340 10 inlet;
#X connect 1 0 5 0;
#X connect 2 0 5 1;
#X connect 5 0 0 0;
#X connect 5 1 3 0;
#X connect 6 0 5 2;
#X restore 542 387 pd SeqSlot;
#N canvas 682 345 278 314 MidiTrack 0;
#X obj 29 259 outlet;
#X obj 29 29 inlet;
#X obj 205 27 inlet;
#X obj 210 260 outlet;
#X obj 29 95 eeb_data_model MidiTrack slots;
#X obj 117 29 inlet;
#X connect 1 0 4 0;
#X connect 2 0 4 2;
#X connect 4 0 0 0;
#X connect 4 1 3 0;
#X connect 5 0 4 1;
#X restore 530 353 pd MidiTrack;
#N canvas 621 395 290 212 Song 0;
#X obj 40 140 outlet;
#X obj 41 27 inlet;
#X obj 217 25 inlet;
#X obj 218 139 outlet;
#X obj 41 93 eeb_data_model Song midiTracks;
#X obj 129 27 inlet;
#X connect 1 0 4 0;
#X connect 2 0 4 2;
#X connect 4 0 0 0;
#X connect 4 1 3 0;
#X connect 5 0 4 1;
#X restore 560 318 pd Song;
#N canvas 429 293 211 162 App 0;
#X obj 84 13 inlet;
#X obj 156 115 outlet;
#X obj 15 71 eeb_data_model App songs;
#X obj 14 13 inlet;
#X obj 15 114 outlet;
#X obj 155 13 inlet;
#X connect 0 0 2 1;
#X connect 2 0 4 0;
#X connect 2 1 1 0;
#X connect 3 0 2 0;
#X connect 5 0 2 2;
#X restore 566 285 pd App;
#X obj 102 98 list split 2;
#X obj 167 144 list;
#X obj 102 143 t b l;
#X obj 129 213 route app song track slot seq note;
#X obj 76 56 t b l;
#X obj 129 191 list trim;
#X obj 77 475 pointer App Song MidiTrack SeqSlot Seq MidiNote;
#X obj 78 734 outlet;
#X obj 263 735 outlet;
#X obj 263 602 symbol App;
#X obj 332 603 symbol Song;
#X obj 406 604 symbol MidiTrack;
#X obj 512 604 symbol SeqSlot;
#X obj 605 603 symbol Seq;
#X obj 678 602 symbol MidiNote;
#X obj 76 14 inlet;
#X obj 599 178 loadbang;
#X obj 77 503 t p b;
#X obj 121 503 t p b;
#X obj 162 503 t p b;
#X obj 203 503 t p b;
#X obj 245 503 t p b;
#X obj 288 503 t p b;
#X connect 0 0 1 0;
#X connect 1 0 7 2;
#X connect 3 1 2 2;
#X connect 3 1 14 1;
#X connect 4 1 3 2;
#X connect 4 1 14 1;
#X connect 5 1 4 2;
#X connect 5 1 14 1;
#X connect 6 1 5 2;
#X connect 6 1 14 1;
#X connect 7 0 14 1;
#X connect 7 1 6 2;
#X connect 7 1 14 1;
#X connect 8 0 10 0;
#X connect 8 1 9 1;
#X connect 9 0 8 0;
#X connect 10 0 9 0;
#X connect 10 1 13 0;
#X connect 11 0 7 0;
#X connect 11 1 7 1;
#X connect 11 2 6 1;
#X connect 11 3 5 1;
#X connect 11 4 4 1;
#X connect 11 5 3 1;
#X connect 12 0 14 0;
#X connect 12 1 8 0;
#X connect 13 0 11 0;
#X connect 14 0 25 0;
#X connect 14 1 26 0;
#X connect 14 2 27 0;
#X connect 14 3 28 0;
#X connect 14 4 29 0;
#X connect 14 5 30 0;
#X connect 17 0 16 0;
#X connect 18 0 16 0;
#X connect 19 0 16 0;
#X connect 20 0 16 0;
#X connect 21 0 16 0;
#X connect 22 0 16 0;
#X connect 23 0 12 0;
#X connect 24 0 0 0;
#X connect 25 0 15 0;
#X connect 25 1 17 0;
#X connect 26 0 15 0;
#X connect 26 1 18 0;
#X connect 27 0 15 0;
#X connect 27 1 19 0;
#X connect 28 0 15 0;
#X connect 28 1 20 0;
#X connect 29 0 15 0;
#X connect 29 1 21 0;
#X connect 30 0 15 0;
#X connect 30 1 22 0;
