#N canvas 1045 109 838 800 10;
#X msg 632 190 bang;
#N canvas 552 271 403 344 init_model 1;
#X msg 18 47 bang;
#X obj 18 165 outlet;
#X obj 18 12 inlet;
#X msg 18 87 traverse pd-data \, next, f 23;
#X text 52 46 click here get App pointer;
#X obj 18 124 pointer App;
#X connect 0 0 3 0;
#X connect 2 0 0 0;
#X connect 3 0 5 0;
#X connect 5 0 1 0;
#X restore 632 216 pd init_model;
#X obj 95 98 list split 2;
#X obj 160 144 list;
#X obj 95 143 t b l;
#X obj 122 213 route app song track slot seq note;
#X obj 122 191 list trim;
#X obj 77 475 pointer App Song MidiTrack SeqSlot Seq MidiNote;
#X obj 76 718 outlet;
#X obj 76 14 inlet;
#X obj 77 503 t p b;
#X obj 121 503 t p b;
#X obj 162 503 t p b;
#X obj 203 503 t p b;
#X obj 245 503 t p b;
#X obj 288 503 t p b;
#X obj 491 275 eeb_data_model App songs;
#X obj 492 310 eeb_data_model Song midiTracks;
#X obj 492 343 eeb_data_model MidiTrack slots;
#X obj 493 377 eeb_data_model SeqSlot seq;
#X obj 490 412 eeb_data_model Seq midiNotes;
#X obj 489 445 eeb_data_model MidiNote;
#X obj 76 683 pack p s;
#X msg 208 585 symbol App;
#X msg 288 585 symbol Song;
#X msg 371 585 symbol MidiTrack;
#X msg 484 585 symbol SeqSlot;
#X msg 587 585 symbol Seq;
#X msg 664 585 symbol MidiNote;
#X obj 76 56 t b l b;
#X connect 0 0 1 0;
#X connect 1 0 16 2;
#X connect 2 0 4 0;
#X connect 2 1 3 1;
#X connect 3 0 2 0;
#X connect 4 0 3 0;
#X connect 4 1 6 0;
#X connect 5 0 16 0;
#X connect 5 1 16 1;
#X connect 5 2 17 1;
#X connect 5 3 18 1;
#X connect 5 4 19 1;
#X connect 5 5 20 1;
#X connect 6 0 5 0;
#X connect 7 0 10 0;
#X connect 7 1 11 0;
#X connect 7 2 12 0;
#X connect 7 3 13 0;
#X connect 7 4 14 0;
#X connect 7 5 15 0;
#X connect 9 0 29 0;
#X connect 10 0 22 0;
#X connect 10 1 23 0;
#X connect 11 0 22 0;
#X connect 11 1 24 0;
#X connect 12 0 22 0;
#X connect 12 1 25 0;
#X connect 13 0 22 0;
#X connect 13 1 26 0;
#X connect 14 0 22 0;
#X connect 14 1 27 0;
#X connect 15 0 22 0;
#X connect 15 1 28 0;
#X connect 16 0 7 1;
#X connect 16 1 7 1;
#X connect 16 1 17 2;
#X connect 17 1 7 1;
#X connect 17 1 18 2;
#X connect 18 1 7 1;
#X connect 18 1 19 2;
#X connect 19 1 7 1;
#X connect 19 1 20 2;
#X connect 20 1 7 1;
#X connect 20 1 21 2;
#X connect 21 1 7 1;
#X connect 22 0 8 0;
#X connect 23 0 22 1;
#X connect 24 0 22 1;
#X connect 25 0 22 1;
#X connect 26 0 22 1;
#X connect 27 0 22 1;
#X connect 28 0 22 1;
#X connect 29 0 7 0;
#X connect 29 1 2 0;
#X connect 29 2 0 0;
