#N struct Child symbol name float x;
#N struct Parent symbol name array children Child;
#N struct Global symbol name array parents Parent;
#N canvas 19 117 755 497 10;
#X msg 35 99 \; pd-data clear;
#X msg 16 142 traverse pd-data \, bang;
#X obj 16 57 t b b b;
#X msg 16 24 bang;
#X text 51 23 click here to re-initialize;
#X obj 16 232 f 480;
#X obj 16 202 t b p;
#X obj 16 170 pointer;
#X obj 169 125 eeb_object_creator;
#X msg 169 95 SubName symbol name float x;
#N canvas 0 22 450 300 data 0;
#X scalar Parent symbol \; symbol 0 \; \;;
#X restore 377 172 pd data;
#X obj 20 340 print;
#X msg 170 54 bang;
#X msg 235 38 Child symbol name float x \, Parent float x array children
Child \, Global symbol name array parents Parent;
#X obj 16 261 append Parent x;
#X obj 16 293 get Parent x;
#X connect 1 0 7 0;
#X connect 2 0 1 0;
#X connect 2 1 0 0;
#X connect 3 0 2 0;
#X connect 5 0 14 0;
#X connect 6 0 5 0;
#X connect 6 1 14 1;
#X connect 7 0 6 0;
#X connect 9 0 8 0;
#X connect 12 0 9 0;
#X connect 13 0 8 0;
#X connect 14 0 15 0;
#X connect 15 0 11 0;
