#N canvas 719 335 450 300 10;
#X obj 175 37 inlet;
#X obj 175 67 t p;
#X obj 48 180 pointer;
#X obj 47 69 route get set child;
#X obj 47 39 inlet;
#X obj 119 219 eeb_get_child_at_index \$1 \$2;
#X obj 21 267 outlet;
#X obj 74 267 outlet;
#X obj 119 266 outlet;
#X connect 0 0 1 0;
#X connect 1 0 2 1;
#X connect 2 0 5 1;
#X connect 2 0 6 0;
#X connect 3 0 2 0;
#X connect 3 1 7 0;
#X connect 3 2 5 0;
#X connect 4 0 3 0;
#X connect 5 0 8 0;
