#N struct list_el float x array els el;
#N struct el float x float y float z;
#N struct Parent float x array children Child;
#N struct Child float index;
#N struct obj float x symbol name;
#N canvas 1015 347 540 452 10;
#X obj 79 50 pointer;
#X obj 358 260 print;
#X msg 79 18 traverse pd-data \, next;
#X msg 79 116 100;
#X obj 79 80 t b p;
#X obj 422 13 cnv 15 100 80 empty empty empty 20 12 0 14 -4065 -66577
0;
#N canvas 0 0 450 300 data 0;
#X scalar list_el 0 \; 10 0 0 \; 0 0 0 \; 0 0 0 \; 150 0 0 \; 0 0 0
\; 29 0 0 \; 0 0 0 \; 0 0 0 \; 0 0 0 \; 0 0 0 \; 67 0 0 \; 0 0 0 \;
0 0 0 \; 0 0 0 \; 0 0 0 \; 0 0 0 \; 0 0 0 \; 0 0 0 \; 29 0 0 \; 0 0
0 \; \;;
#X scalar Parent 100 \; 0 \; 1 \; 2 \; 3 \; 4 \; \;;
#X scalar Parent 100 \; 0 \; 1 \; 2 \; 3 \; 4 \; \;;
#X scalar Parent 100 \; 0 \; 0 \; 0 \; 0 \; 0 \; \;;
#X scalar Parent 100 \; 0 \; 0 \; 0 \; 0 \; 0 \; \;;
#X scalar Parent 100 \; 0 \; 0 \; 0 \; 0 \; 0 \; \;;
#X scalar obj 100 Yuhei \;;
#X scalar obj 100 Yuhei \;;
#X scalar obj 100 Yuhei \;;
#X scalar obj 100 Yuhei \;;
#X scalar obj 100 Yuhei \;;
#X scalar obj 100 Yuhei \;;
#X scalar obj 100 Yuhei \;;
#X scalar obj 100 symbol \;;
#X scalar obj 12 symbol \;;
#X scalar obj 100 symbol \;;
#X scalar obj 100 symbol \;;
#X scalar obj 100 symbol \;;
#X scalar obj 100 symbol \;;
#X scalar obj 100 symbol \;;
#X scalar obj 100 symbol \;;
#X scalar obj 100 symbol \;;
#X scalar obj 100 symbol \;;
#X scalar obj 100 symbol \;;
#X scalar obj 100 symbol \;;
#X restore 434 24 pd data;
#N canvas 1233 300 450 323 Child 0;
#X obj 38 38 struct Child float index;
#X restore 435 71 pd Child;
#N canvas 1233 300 450 323 Parent 0;
#X obj 39 38 struct Parent float x array children Child;
#X restore 434 47 pd Parent;
#X obj 79 144 append Parent x;
#X obj 358 222 get Child index;
#X obj 79 187 eeb_init_children_array Parent Child children 20;
#X connect 0 0 4 0;
#X connect 2 0 0 0;
#X connect 3 0 9 0;
#X connect 4 0 3 0;
#X connect 4 1 9 1;
#X connect 9 0 11 0;
#X connect 10 0 1 0;
#X connect 11 1 10 0;
