#N canvas 533 168 450 300 10;
#X obj 117 121 list split;
#X obj 117 165 list split 1;
#X obj 117 58 inlet;
#X obj 117 89 t l;
#X obj 117 203 outlet;
#X obj 174 58 loadbang;
#X obj 174 85 f \$1;
#X obj 250 58 inlet;
#X obj 250 85 t f;
#X obj 199 205 outlet;
#X connect 0 1 1 0;
#X connect 1 0 4 0;
#X connect 1 1 9 0;
#X connect 2 0 3 0;
#X connect 3 0 0 0;
#X connect 5 0 6 0;
#X connect 6 0 0 1;
#X connect 7 0 8 0;
#X connect 8 0 0 1;
