#N canvas 1449 356 450 300 10;
#X obj 68 78 eeb_slot_counter;
#X obj 68 30 bng 15 250 50 0 empty empty empty 17 7 0 10 -262144 -1
-1;
#X msg 161 31 5;
#X msg 114 30 2;
#X obj 68 128 print;
#X connect 0 0 4 0;
#X connect 1 0 0 0;
#X connect 2 0 0 2;
#X connect 3 0 0 1;
