#N struct template_midi_note float pitch float velocity float duration
float is_activated;
#N struct tpl_song float song_index float song_bpm array seq_slots
template_seq_slot;
#N struct template_seq_slot float length float is_muted float midi_track_index
array seq template_seq;
#N struct template_seq float length float midi_track_index array midi_notes
template_midi_note;
#N canvas 95 34 579 537 10;
#X msg 234 251 note set 1 3 80 90 1000 0;
#X msg 223 224 note set 1 3 60 120 300 1;
#X msg 208 200 note get 1 3;
#X msg 172 166 seq set 2 8 16;
#X msg 157 141 seq get 2;
#X msg 98 84 seq_slot get 2;
#X msg 115 107 seq_slot set 2 32 1 8;
#X msg 45 28 song get 0;
#X msg 56 52 song set 1 128;
#X obj 119 385 eeb_song_manager;
#X obj 119 430 print song;
#X obj 199 432 print slot;
#X obj 276 433 print seq;
#X obj 345 432 print note;
#X connect 0 0 9 0;
#X connect 1 0 9 0;
#X connect 2 0 9 0;
#X connect 3 0 9 0;
#X connect 4 0 9 0;
#X connect 5 0 9 0;
#X connect 6 0 9 0;
#X connect 7 0 9 0;
#X connect 8 0 9 0;
#X connect 9 0 10 0;
#X connect 9 1 11 0;
#X connect 9 2 12 0;
#X connect 9 3 13 0;
