#N struct MidiNote float pitch float velocity float duration float
isActivated float beatTime float index;
#N struct Seq float length array midiNotes MidiNote float isMuted float
index float resolution;
#N struct SeqSlot float isMuted array seq Seq float index;
#N struct MidiTrack float isMuted array slots SeqSlot float index;
#N struct Song float bpm symbol name array midiTracks MidiTrack float
index;
#N struct App array songs Song float resolution symbol version;
#N canvas 621 213 579 393 10;
#X obj 17 92 inlet;
#N canvas 373 165 790 538 message_router 0;
#X obj 265 38 inlet;
#X obj 92 400 outlet;
#X obj 137 400 outlet;
#X obj 194 400 outlet;
#X obj 239 400 outlet;
#X obj 265 100 route note seq slot track song app;
#X obj 284 400 outlet;
#X obj 329 400 outlet;
#X msg 309 61 note 0 0 0 0 get;
#X msg 329 337 child 0;
#N canvas 850 136 450 300 path 0;
#X obj 39 25 inlet;
#X obj 33 207 outlet;
#X obj 83 207 outlet;
#X obj 132 207 outlet;
#X obj 87 102 eeb_get_element_at_index 1;
#X obj 111 138 eeb_get_element_at_index 1;
#X obj 138 170 eeb_get_element_at_index 1;
#X connect 0 0 4 0;
#X connect 4 0 3 0;
#X connect 4 1 5 0;
#X connect 5 0 2 0;
#X connect 5 1 6 0;
#X connect 6 0 1 0;
#X restore 265 192 pd path;
#X obj 284 313 eeb_trig;
#X obj 239 289 eeb_trig;
#X obj 194 264 eeb_trig;
#X obj 137 241 eeb_trig 0;
#X obj 539 130 t l;
#X obj 429 130 t l b l;
#X obj 486 130 t l b l;
#X obj 373 130 t l b l;
#X obj 317 131 t l b l;
#X obj 265 130 t l b l;
#X connect 0 0 5 0;
#X connect 5 0 20 0;
#X connect 5 1 19 0;
#X connect 5 2 18 0;
#X connect 5 3 16 0;
#X connect 5 4 17 0;
#X connect 5 5 15 0;
#X connect 8 0 5 0;
#X connect 9 0 7 0;
#X connect 10 0 14 1;
#X connect 10 1 12 1;
#X connect 10 2 11 1;
#X connect 11 0 6 0;
#X connect 11 1 9 0;
#X connect 12 0 4 0;
#X connect 12 1 11 0;
#X connect 13 0 3 0;
#X connect 13 1 12 0;
#X connect 14 0 2 0;
#X connect 14 1 13 0;
#X connect 15 0 7 0;
#X connect 16 0 4 0;
#X connect 16 1 11 0;
#X connect 16 2 10 0;
#X connect 17 0 6 0;
#X connect 17 1 9 0;
#X connect 17 2 10 0;
#X connect 18 0 3 0;
#X connect 18 1 12 0;
#X connect 18 2 10 0;
#X connect 19 0 2 0;
#X connect 19 1 13 0;
#X connect 19 2 10 0;
#X connect 20 0 1 0;
#X connect 20 1 14 0;
#X connect 20 2 10 0;
#X restore 17 124 pd message_router;
#N canvas 719 335 450 300 data 0;
#X restore 6 7 pd data;
#X msg 464 36 bang;
#N canvas 0 23 586 787 init_model 0;
#X msg 223 118 \; pd-data clear;
#X msg 203 158 traverse pd-data \, bang;
#X obj 184 93 t b b b;
#X msg 184 60 bang;
#X text 219 59 click here to re-initialize;
#X text 313 123 send reset memory message;
#X text 346 156 send get global data pointer message;
#X obj 202 402 outlet;
#X obj 184 25 inlet;
#X msg 346 406 symbol eeboo_song;
#X obj 329 455 eeb_init_children_array Song MidiTrack midiTracks 16
;
#X obj 413 554 set MidiTrack isMuted;
#X obj 346 430 set -symbol Song name;
#X obj 394 498 t p b p;
#X obj 394 580 eeb_init_children_array MidiTrack SeqSlot slots 16;
#X obj 501 630 t p b p;
#X obj 520 679 set SeqSlot isMuted;
#X obj 413 525 f 0;
#X obj 520 654 f 0;
#X obj 601 749 t p b p;
#X obj 501 702 eeb_init_children_array SeqSlot Seq seq 1;
#X obj 601 825 eeb_init_children_array Seq MidiNote midiNotes 64;
#X obj 836 860 t p b p;
#X obj 855 912 set MidiNote pitch velocity duration isActivated beatTime
;
#X msg 855 886 60 100 240 0 0;
#X obj 620 801 set Seq length isMuted resolution;
#X msg 620 775 16 0 4;
#X obj 203 212 f 480;
#X obj 203 241 append App resolution;
#X obj 203 182 t b p;
#X obj 202 266 t p p b p;
#X msg 236 293 symbol 0.0.1;
#X obj 236 317 set -symbol App version;
#X obj 219 339 eeb_init_children_array App Song songs 1;
#X obj 329 376 t p b p b p;
#X obj 492 431 set Song index bpm;
#X msg 492 403 0 120;
#X obj 118 186 pointer;
#X connect 1 0 37 0;
#X connect 2 1 1 0;
#X connect 2 2 0 0;
#X connect 3 0 2 0;
#X connect 8 0 3 0;
#X connect 9 0 12 0;
#X connect 10 1 13 0;
#X connect 13 0 14 0;
#X connect 13 1 17 0;
#X connect 13 2 11 1;
#X connect 14 1 15 0;
#X connect 15 0 20 0;
#X connect 15 1 18 0;
#X connect 15 2 16 1;
#X connect 17 0 11 0;
#X connect 18 0 16 0;
#X connect 19 0 21 0;
#X connect 19 1 26 0;
#X connect 19 2 25 3;
#X connect 20 1 19 0;
#X connect 21 1 22 0;
#X connect 22 1 24 0;
#X connect 22 2 23 5;
#X connect 24 0 23 0;
#X connect 26 0 25 0;
#X connect 27 0 28 0;
#X connect 28 0 30 0;
#X connect 29 0 27 0;
#X connect 29 1 28 1;
#X connect 30 0 7 0;
#X connect 30 1 33 0;
#X connect 30 2 31 0;
#X connect 30 3 32 1;
#X connect 31 0 32 0;
#X connect 33 1 34 0;
#X connect 34 0 10 0;
#X connect 34 1 9 0;
#X connect 34 2 12 1;
#X connect 34 3 36 0;
#X connect 34 4 35 2;
#X connect 36 0 35 0;
#X connect 37 0 29 0;
#X restore 464 62 pd init_model;
#N canvas 1273 374 538 425 MidiNote 0;
#X obj 18 369 struct MidiNote float pitch float velocity float duration
float isActivated float beatTime float index;
#X obj 22 329 outlet;
#X obj 22 24 inlet;
#X obj 428 27 inlet;
#X obj 157 328 outlet;
#X obj 22 90 eeb_data_model MidiNote;
#X obj 89 182 set MidiNote pitch velocity duration isActivated beatTime
;
#X obj 89 132 unpack f f f f f;
#X obj 22 228 get MidiNote index pitch velocity duration isActivated
beatTime;
#X obj 22 295 pack f f f f f f;
#X connect 2 0 5 0;
#X connect 3 0 5 1;
#X connect 3 0 6 5;
#X connect 5 0 8 0;
#X connect 5 1 7 0;
#X connect 5 2 4 0;
#X connect 7 0 6 0;
#X connect 7 1 6 1;
#X connect 7 2 6 2;
#X connect 7 3 6 3;
#X connect 7 4 6 4;
#X connect 8 0 9 0;
#X connect 8 1 9 1;
#X connect 8 2 9 2;
#X connect 8 3 9 3;
#X connect 8 4 9 4;
#X connect 8 5 9 5;
#X connect 9 0 1 0;
#X restore 17 311 pd MidiNote;
#N canvas 659 201 450 507 Seq 0;
#X obj 37 329 outlet;
#X obj 37 68 inlet;
#X obj 356 76 inlet;
#X obj 201 330 outlet;
#X obj 37 134 eeb_data_model Seq midiNotes;
#X obj 119 213 set Seq length isMuted length resolution;
#X obj 119 171 unpack f f f f;
#X obj 8 417 struct Seq float length array midiNotes MidiNote float
isMuted float index float resolution;
#X text 115 392 resolution : ppq : pulse per quarter;
#X obj 37 244 get Seq index length isMuted resolution;
#X obj 37 283 pack f f f f;
#X connect 1 0 4 0;
#X connect 2 0 4 1;
#X connect 2 0 5 4;
#X connect 4 0 9 0;
#X connect 4 1 6 0;
#X connect 4 2 3 0;
#X connect 6 0 5 0;
#X connect 6 1 5 1;
#X connect 6 2 5 2;
#X connect 6 3 5 3;
#X connect 9 0 10 0;
#X connect 9 1 10 1;
#X connect 9 2 10 2;
#X connect 9 3 10 3;
#X connect 10 0 0 0;
#X restore 110 267 pd Seq;
#N canvas 1080 367 613 552 SeqSlot 0;
#X obj 35 228 pack f f;
#X obj 35 273 outlet;
#X obj 264 158 unpack f f;
#X obj 188 13 inlet;
#X obj 393 12 inlet;
#X obj 346 280 outlet;
#X obj 35 363 struct SeqSlot float isMuted array seq Seq float index
;
#X obj 188 79 eeb_data_model SeqSlot seq;
#X obj 264 190 set SeqSlot index isMuted;
#X obj 35 189 get SeqSlot index isMuted;
#X connect 0 0 1 0;
#X connect 2 0 8 0;
#X connect 2 1 8 1;
#X connect 3 0 7 0;
#X connect 4 0 8 2;
#X connect 4 0 7 1;
#X connect 7 0 9 0;
#X connect 7 1 2 0;
#X connect 7 2 5 0;
#X connect 9 0 0 0;
#X connect 9 1 0 1;
#X restore 171 230 pd SeqSlot;
#N canvas 682 345 399 470 MidiTrack 0;
#X obj 29 214 pack f f;
#X obj 29 259 outlet;
#X obj 29 29 inlet;
#X obj 205 27 inlet;
#X obj 206 258 outlet;
#X obj 29 95 eeb_data_model MidiTrack slots;
#X obj 24 339 struct MidiTrack float isMuted array slots SeqSlot float
index;
#X obj 29 175 get MidiTrack index isMuted;
#X obj 117 139 set MidiTrack isMuted;
#X connect 0 0 1 0;
#X connect 2 0 5 0;
#X connect 3 0 5 1;
#X connect 3 0 8 1;
#X connect 5 0 7 0;
#X connect 5 1 8 0;
#X connect 5 2 4 0;
#X connect 7 0 0 0;
#X connect 7 1 0 1;
#X restore 254 195 pd MidiTrack;
#N canvas 621 395 614 455 Song 0;
#X obj 37 341 struct Song float bpm symbol name array midiTracks MidiTrack
float index;
#X obj 41 277 outlet;
#X obj 41 27 inlet;
#X obj 217 25 inlet;
#X obj 217 279 outlet;
#X obj 41 93 eeb_data_model Song midiTracks;
#X obj 299 251 set Song bpm;
#X obj 403 251 set -symbol Song name;
#X obj 41 193 get Song index name bpm;
#X obj 41 232 pack f s f;
#X obj 261 174 route list float symbol;
#X obj 259 208 unpack symbol float;
#X msg 403 221 symbol \$1;
#X connect 2 0 5 0;
#X connect 3 0 5 1;
#X connect 3 0 7 1;
#X connect 3 0 6 1;
#X connect 5 0 8 0;
#X connect 5 1 10 0;
#X connect 5 2 4 0;
#X connect 8 0 9 0;
#X connect 8 1 9 1;
#X connect 8 2 9 2;
#X connect 9 0 1 0;
#X connect 10 0 11 0;
#X connect 10 1 6 0;
#X connect 10 2 12 0;
#X connect 11 0 12 0;
#X connect 11 1 6 0;
#X connect 12 0 7 0;
#X restore 349 156 pd Song;
#N canvas 802 90 450 477 App 0;
#X obj 12 454 struct App array songs Song float resolution symbol version
;
#X obj 70 268 outlet;
#X obj 70 38 inlet;
#X obj 211 36 inlet;
#X obj 211 267 outlet;
#X obj 70 104 eeb_data_model App songs;
#X obj 70 184 get App resolution version;
#X obj 70 223 pack f s;
#X connect 2 0 5 0;
#X connect 3 0 5 1;
#X connect 5 0 6 0;
#X connect 5 2 4 0;
#X connect 6 0 7 0;
#X connect 6 1 7 1;
#X connect 7 0 1 0;
#X restore 414 114 pd App;
#X obj 254 224 print track;
#X obj 171 263 print seqSlot;
#X obj 349 192 print song;
#X obj 110 308 print seq;
#X obj 17 346 print midiNote;
#X obj 412 151 print song;
#X msg 381 63 get 0;
#X connect 0 0 1 0;
#X connect 1 0 5 0;
#X connect 1 1 6 0;
#X connect 1 2 7 0;
#X connect 1 3 8 0;
#X connect 1 4 9 0;
#X connect 1 5 10 0;
#X connect 3 0 4 0;
#X connect 4 0 10 1;
#X connect 5 0 15 0;
#X connect 6 0 14 0;
#X connect 6 1 5 1;
#X connect 7 0 12 0;
#X connect 7 1 6 1;
#X connect 8 0 11 0;
#X connect 8 1 7 1;
#X connect 9 0 13 0;
#X connect 9 1 8 1;
#X connect 10 0 16 0;
#X connect 10 1 9 1;
#X connect 17 0 10 0;
