#N canvas 543 165 811 470 10;
#X obj 48 33 inlet;
#X obj 713 72 inlet;
#X obj 713 107 t p, f 4;
#N canvas 58 212 614 487 seq_slot 0;
#X obj 50 265 get template_seq_slot length is_muted midi_track_index
;
#X obj 50 301 pack f f f;
#X obj 498 22 inlet;
#X obj 50 157 pointer;
#X obj 50 15 inlet;
#X obj 50 342 outlet;
#X obj 50 89 t b;
#X obj 91 116 set template_seq_slot length is_muted midi_track_index
;
#X obj 50 60 route get set get_seq;
#X obj 402 196 f 0;
#X obj 402 221 element template_seq_slot seq;
#X obj 404 338 outlet;
#X obj 91 88 list split 1;
#X connect 0 0 1 0;
#X connect 0 1 1 1;
#X connect 0 2 1 2;
#X connect 1 0 5 0;
#X connect 2 0 3 1;
#X connect 2 0 10 1;
#X connect 2 0 7 3;
#X connect 3 0 0 0;
#X connect 4 0 8 0;
#X connect 6 0 3 0;
#X connect 8 0 6 0;
#X connect 8 1 12 0;
#X connect 8 2 9 0;
#X connect 9 0 10 0;
#X connect 10 0 11 0;
#X connect 12 1 7 0;
#X restore 402 304 pd seq_slot;
#N canvas 581 64 699 643 seq 1;
#X obj 360 30 inlet;
#X obj 31 230 pointer;
#X obj 31 28 inlet;
#X obj 31 366 outlet;
#X obj 31 113 t b;
#X obj 74 198 set template_seq length midi_track_index;
#X obj 31 325 pack f f;
#X obj 31 289 get template_seq length midi_track_index;
#X obj 327 358 outlet;
#X obj 361 143 t p p p;
#X obj 31 84 route get set get_note;
#X obj 327 279 f;
#X obj 327 315 element template_seq midi_notes;
#X obj 73 158 list split 1;
#X connect 0 0 9 0;
#X connect 1 0 7 0;
#X connect 2 0 10 0;
#X connect 4 0 1 0;
#X connect 6 0 3 0;
#X connect 7 0 6 0;
#X connect 7 1 6 1;
#X connect 9 0 1 1;
#X connect 9 1 5 2;
#X connect 9 2 12 1;
#X connect 10 0 4 0;
#X connect 10 1 13 0;
#X connect 10 2 11 0;
#X connect 11 0 12 0;
#X connect 12 0 8 0;
#X connect 13 1 5 0;
#X restore 239 396 pd seq;
#N canvas 253 160 603 547 note 0;
#X obj 173 79 inlet;
#X obj 43 222 pointer;
#X obj 43 80 inlet;
#X obj 43 407 outlet;
#X obj 43 125 route get set;
#X obj 43 154 t b;
#X obj 105 298 set template_midi_note pitch velocity duration is_activated
;
#X obj 43 331 get template_midi_note pitch velocity duration is_activated
;
#X obj 43 373 pack f f f f;
#X obj 128 249 list split 2;
#X connect 0 0 1 1;
#X connect 0 0 6 4;
#X connect 1 0 7 0;
#X connect 2 0 4 0;
#X connect 4 0 5 0;
#X connect 4 1 9 0;
#X connect 5 0 1 0;
#X connect 7 0 8 0;
#X connect 7 1 8 1;
#X connect 7 2 8 2;
#X connect 7 3 8 3;
#X connect 8 0 3 0;
#X connect 9 1 6 0;
#X restore 11 428 pd note;
#X msg 173 351 get_note \$1;
#X obj 404 453 print slot;
#X obj 238 450 print seq;
#X obj 11 453 print note;
#X obj 258 350 route list;
#X obj 11 393 route list;
#N canvas 134 130 717 462 song 0;
#X obj 598 22 inlet;
#X obj 57 158 pointer;
#X obj 57 16 inlet;
#X obj 57 343 outlet;
#X obj 57 126 t b;
#X obj 411 339 outlet;
#X obj 327 142 set template_song song_index bpm;
#X obj 57 266 get template_song song_index bpm;
#X obj 57 302 pack f f;
#X obj 411 301 element template_song seq_slots;
#X obj 411 276 f;
#X obj 57 61 route get set get_seq_slot;
#X connect 0 0 1 1;
#X connect 0 0 6 2;
#X connect 0 0 9 1;
#X connect 1 0 7 0;
#X connect 2 0 11 0;
#X connect 4 0 1 0;
#X connect 7 0 8 0;
#X connect 7 1 8 1;
#X connect 8 0 3 0;
#X connect 9 0 5 0;
#X connect 10 0 9 0;
#X connect 11 0 4 0;
#X connect 11 1 6 0;
#X connect 11 2 10 0;
#X restore 563 187 pd song;
#X obj 563 450 print song;
#X obj 79 308 eeb_get_element_at_index 2;
#X obj 48 70 route note seq seq_slot song, f 31;
#X obj 48 131 t l l l;
#X obj 258 319 t l l;
#X obj 379 190 eeb_get_element_at_index 1;
#X msg 380 252 get_seq \$1;
#X msg 563 133 get_seq_slot \$1;
#X obj 379 223 t f f;
#X obj 167 129 t l l;
#X obj 317 275 route list;
#X connect 0 0 15 0;
#X connect 1 0 2 0;
#X connect 2 0 12 1;
#X connect 3 0 7 0;
#X connect 3 1 4 1;
#X connect 4 0 8 0;
#X connect 4 1 5 1;
#X connect 5 0 9 0;
#X connect 6 0 4 0;
#X connect 10 0 4 0;
#X connect 11 0 5 0;
#X connect 12 0 13 0;
#X connect 12 1 3 1;
#X connect 14 0 6 0;
#X connect 15 0 16 0;
#X connect 15 1 17 0;
#X connect 15 2 22 0;
#X connect 15 3 12 0;
#X connect 16 0 11 0;
#X connect 16 1 14 0;
#X connect 16 2 18 0;
#X connect 17 0 10 0;
#X connect 17 1 18 0;
#X connect 18 0 21 0;
#X connect 19 0 3 0;
#X connect 20 0 12 0;
#X connect 21 0 19 0;
#X connect 21 1 20 0;
#X connect 22 0 23 0;
#X connect 22 1 18 0;
#X connect 23 0 3 0;
