#N canvas 393 117 450 323 10;
#X obj 38 29 inlet;
#X obj 107 29 loadbang;
#X obj 38 97 list prepend;
#X obj 38 135 send model;
#X obj 37 219 route list;
#X obj 37 258 outlet;
#X obj 107 64 f \$0;
#X obj 37 179 receive model-\$0;
#X connect 0 0 2 0;
#X connect 1 0 6 0;
#X connect 2 0 3 0;
#X connect 4 0 5 0;
#X connect 6 0 2 1;
#X connect 7 0 4 0;
