#N struct MidiNote float pitch float velocity float duration float
isActivated float beatTime float index;
#N struct Seq float length array midiNotes MidiNote float isMuted float
index;
#N struct SeqSlot float isMuted array seq Seq float index;
#N struct MidiTrack float isMuted array slots SeqSlot float index;
#N struct Song float bpm symbol name array midiTracks MidiTrack float
index;
#N struct App array songs Song;
#N canvas 2358 129 956 970 10;
#X obj 48 33 inlet;
#X obj 186 28 inlet;
#X obj 186 63 t p, f 4;
#N canvas 1004 330 790 538 message_router 0;
#X obj 27 35 inlet;
#X msg 51 282 get_note \$1;
#X obj 50 253 eeb_get_element_at_index 2;
#X obj 28 123 t l l l;
#X obj 29 363 outlet;
#X obj 107 363 outlet;
#X obj 29 334 route list;
#X obj 113 337 route list;
#X obj 107 121 t l l;
#X obj 418 194 eeb_get_element_at_index 1;
#X obj 418 231 t f f;
#X obj 210 123 t l l;
#X obj 217 336 route list;
#X obj 217 363 outlet;
#X obj 448 357 outlet;
#X msg 448 302 get_seq_slot \$1;
#X msg 419 260 get_seq;
#X obj 27 72 route note seq slot track song app;
#X connect 0 0 17 0;
#X connect 1 0 5 0;
#X connect 2 0 1 0;
#X connect 3 0 6 0;
#X connect 3 1 2 0;
#X connect 3 2 9 0;
#X connect 6 0 4 0;
#X connect 7 0 5 0;
#X connect 8 0 7 0;
#X connect 8 1 9 0;
#X connect 9 0 10 0;
#X connect 10 0 16 0;
#X connect 10 1 15 0;
#X connect 11 0 12 0;
#X connect 11 1 9 0;
#X connect 12 0 13 0;
#X connect 15 0 14 0;
#X connect 16 0 13 0;
#X connect 17 0 3 0;
#X connect 17 1 8 0;
#X connect 17 2 11 0;
#X connect 17 3 14 0;
#X restore 48 72 pd message_router;
#N canvas 719 335 450 300 data 0;
#X restore 663 20 pd data;
#X msg 248 59 bang;
#X obj 311 27 loadbang;
#X obj 249 25 inlet;
#N canvas -32000 -32000 128 0 init_model 1;
#X obj 203 187 pointer;
#X msg 223 118 \; pd-data clear;
#X msg 203 158 traverse pd-data \, bang;
#X obj 184 93 t b b b;
#X msg 184 60 bang;
#X text 219 59 click here to re-initialize;
#X text 255 187 store pointer;
#X text 313 123 send reset memory message;
#X text 346 156 send get global data pointer message;
#X obj 207 895 outlet;
#X obj 184 25 inlet;
#X obj 203 254 f 1;
#X obj 203 225 t b b p;
#X obj 264 255 f 120;
#X msg 237 348 symbol eeboo_song;
#X obj 220 409 eeb_init_children_array Song MidiTrack midiTracks 16
;
#X obj 548 495 set MidiTrack isMuted;
#X obj 237 379 set -symbol Song name;
#X obj 203 284 append Song index bpm;
#X obj 529 439 t p b p;
#X obj 529 521 eeb_init_children_array MidiTrack SeqSlot slots 16;
#X obj 826 568 t p b p;
#X obj 845 617 set SeqSlot isMuted;
#X obj 548 466 f 0;
#X obj 845 592 f 0;
#X obj 1069 671 t p b p;
#X msg 1088 697 16 0;
#X obj 1088 723 set Seq length isMuted;
#X obj 826 644 eeb_init_children_array SeqSlot Seq seq 1;
#X obj 1069 750 eeb_init_children_array Seq MidiNote midiNotes 64;
#X obj 1360 780 t p b p;
#X obj 1379 832 set MidiNote pitch velocity duration isActivated beatTime
;
#X msg 1379 806 60 100 240 0 0;
#X obj 203 321 t p p b p;
#X connect 0 0 12 0;
#X connect 2 0 0 0;
#X connect 3 1 2 0;
#X connect 3 2 1 0;
#X connect 4 0 3 0;
#X connect 10 0 4 0;
#X connect 11 0 18 0;
#X connect 12 0 11 0;
#X connect 12 1 13 0;
#X connect 12 2 18 2;
#X connect 13 0 18 1;
#X connect 14 0 17 0;
#X connect 15 1 19 0;
#X connect 18 0 33 0;
#X connect 19 0 20 0;
#X connect 19 1 23 0;
#X connect 19 2 16 1;
#X connect 20 1 21 0;
#X connect 21 0 28 0;
#X connect 21 1 24 0;
#X connect 21 2 22 1;
#X connect 23 0 16 0;
#X connect 24 0 22 0;
#X connect 25 0 29 0;
#X connect 25 1 26 0;
#X connect 25 2 27 2;
#X connect 26 0 27 0;
#X connect 28 1 25 0;
#X connect 29 1 30 0;
#X connect 30 1 32 0;
#X connect 30 2 31 5;
#X connect 32 0 31 0;
#X connect 33 0 9 0;
#X connect 33 1 15 0;
#X connect 33 2 14 0;
#X connect 33 3 17 1;
#X restore 248 85 pd init_model;
#N canvas 1273 374 450 274 MidiNote 0;
#X obj 20 66 struct MidiNote float pitch float velocity float duration
float isActivated float beatTime float index;
#X restore 665 185 pd MidiNote;
#N canvas 1152 199 450 461 Seq 0;
#X obj 48 61 struct Seq float length array midiNotes MidiNote float
isMuted float index;
#X restore 665 158 pd Seq;
#N canvas 1080 367 613 552 SeqSlot 0;
#X obj 35 228 pack f f;
#X obj 35 273 outlet;
#X obj 264 158 unpack f f;
#X obj 188 13 inlet;
#X obj 393 12 inlet;
#X obj 346 280 outlet;
#X obj 35 363 struct SeqSlot float isMuted array seq Seq float index
;
#X obj 188 79 eeb_data_model SeqSlot seq;
#X obj 264 190 set SeqSlot index isMuted;
#X obj 35 189 get SeqSlot index isMuted;
#X connect 0 0 1 0;
#X connect 2 0 8 0;
#X connect 2 1 8 1;
#X connect 3 0 7 0;
#X connect 4 0 8 2;
#X connect 4 0 7 1;
#X connect 7 0 9 0;
#X connect 7 1 2 0;
#X connect 7 2 5 0;
#X connect 9 0 0 0;
#X connect 9 1 0 1;
#X restore 195 534 pd SeqSlot;
#N canvas 1061 350 399 424 MidiTrack 1;
#X obj 29 214 pack f f;
#X obj 29 259 outlet;
#X obj 29 29 inlet;
#X obj 205 27 inlet;
#X obj 206 258 outlet;
#X obj 29 95 eeb_data_model MidiTrack slots;
#X obj 24 339 struct MidiTrack float isMuted array slots SeqSlot float
index;
#X obj 29 175 get MidiTrack index isMuted;
#X obj 117 139 set MidiTrack isMuted;
#X connect 0 0 1 0;
#X connect 2 0 5 0;
#X connect 3 0 5 1;
#X connect 3 0 8 1;
#X connect 5 0 7 0;
#X connect 5 1 8 0;
#X connect 5 2 4 0;
#X connect 7 0 0 0;
#X connect 7 1 0 1;
#X restore 181 355 pd MidiTrack;
#N canvas 621 395 614 455 Song 1;
#X obj 37 341 struct Song float bpm symbol name array midiTracks MidiTrack
float index;
#X obj 41 277 outlet;
#X obj 41 27 inlet;
#X obj 217 25 inlet;
#X obj 217 279 outlet;
#X obj 41 93 eeb_data_model Song midiTracks;
#X obj 299 251 set Song bpm;
#X obj 403 251 set -symbol Song name;
#X obj 41 193 get Song index name bpm;
#X obj 41 232 pack f s f;
#X obj 261 174 route list float symbol;
#X obj 259 208 unpack symbol float;
#X msg 403 221 symbol \$1;
#X connect 2 0 5 0;
#X connect 3 0 5 1;
#X connect 3 0 7 1;
#X connect 3 0 6 1;
#X connect 5 0 8 0;
#X connect 5 1 10 0;
#X connect 5 2 4 0;
#X connect 8 0 9 0;
#X connect 8 1 9 1;
#X connect 8 2 9 2;
#X connect 9 0 1 0;
#X connect 10 0 11 0;
#X connect 10 1 6 0;
#X connect 10 2 12 0;
#X connect 11 0 12 0;
#X connect 11 1 6 0;
#X connect 12 0 7 0;
#X restore 209 153 pd Song;
#N canvas 415 23 450 300 App 0;
#X obj 29 30 struct App array songs Song;
#X restore 664 48 pd App;
#X obj 181 384 print track;
#X obj 195 567 print seqSlot;
#X msg 52 336 get 0;
#X msg 66 124 set 140;
#X msg 150 114 child 2;
#X obj 209 189 print song;
#X msg 118 196 get 0;
#X msg 117 241 set Yuhei;
#X msg 56 161 set list yuhei_song 105;
#X msg 60 487 set 2 0;
#X msg 62 519 get 0;
#X msg 127 467 child 0;
#X msg 50 304 set 45 0;
#X msg 117 284 child 15;
#X connect 0 0 3 0;
#X connect 1 0 2 0;
#X connect 5 0 8 0;
#X connect 8 0 13 1;
#X connect 11 0 16 0;
#X connect 12 0 15 0;
#X connect 12 1 11 1;
#X connect 13 0 20 0;
#X connect 13 1 12 1;
#X connect 17 0 12 0;
#X connect 18 0 13 0;
#X connect 19 0 13 0;
#X connect 21 0 13 0;
#X connect 22 0 13 0;
#X connect 23 0 13 0;
#X connect 24 0 11 0;
#X connect 25 0 11 0;
#X connect 26 0 11 0;
#X connect 27 0 12 0;
#X connect 28 0 12 0;
