#N canvas 1576 376 574 456 10;
#X obj 99 31 inlet;
#X obj 283 30 inlet;
#X obj 118 225 list;
#X obj 283 63 t l l;
#X obj 310 93 list length;
#X obj 118 125 until;
#X obj 118 159 eebcounter;
#X obj 310 126 - 1;
#X obj 118 257 eeb_get_element_at_index;
#X obj 118 330 select -1;
#X obj 118 93 f;
#X obj 169 378 t f b;
#X obj 169 411 outlet;
#X obj 310 155 t f f;
#X obj 118 190 t b f f;
#X obj 118 285 expr if($f1 == $f2 \, $f1 \, -1) \; if($f1 != $f2 &&
$f3 == $f4 \, $f2 \, -1);
#X obj 99 61 t b b f;
#X connect 0 0 16 0;
#X connect 1 0 3 0;
#X connect 2 0 8 0;
#X connect 3 0 2 1;
#X connect 3 1 4 0;
#X connect 4 0 7 0;
#X connect 4 0 10 1;
#X connect 5 0 6 0;
#X connect 6 0 14 0;
#X connect 7 0 13 0;
#X connect 8 0 15 0;
#X connect 9 1 11 0;
#X connect 10 0 5 0;
#X connect 11 0 12 0;
#X connect 13 0 6 1;
#X connect 13 1 15 3;
#X connect 14 0 2 0;
#X connect 14 1 8 1;
#X connect 14 2 15 2;
#X connect 15 0 9 0;
#X connect 16 1 10 0;
#X connect 16 2 15 1;
