#N canvas 57 166 450 300 10;
#X msg 89 70 list 0 1 2 3 4 5 6 7;
#X obj 89 166 nbx 5 14 -1e+37 1e+37 0 0 empty empty empty 0 -8 0 10
-262144 -1 -1 4 256 0;
#X obj 89 114 eeb_get_element_at_index 3;
#X obj 248 69 nbx 5 14 -1e+37 1e+37 0 0 empty empty empty 0 -8 0 10
-262144 -1 -1 20 256 0;
#X obj 245 167 print;
#X connect 0 0 2 0;
#X connect 2 0 1 0;
#X connect 2 1 4 0;
#X connect 3 0 2 1;
