#N canvas 659 63 811 470 10;
#X obj 48 33 inlet;
#X obj 186 35 inlet;
#X obj 186 70 t p, f 4;
#N canvas 58 212 614 487 seq_slot 0;
#X obj 50 265 get template_seq_slot length is_muted midi_track_index
;
#X obj 50 301 pack f f f;
#X obj 498 22 inlet;
#X obj 50 157 pointer;
#X obj 50 15 inlet;
#X obj 50 342 outlet;
#X obj 50 89 t b;
#X obj 91 116 set template_seq_slot length is_muted midi_track_index
;
#X obj 50 60 route get set get_seq;
#X obj 402 196 f 0;
#X obj 402 221 element template_seq_slot seq;
#X obj 404 338 outlet;
#X obj 91 88 list split 1;
#X connect 0 0 1 0;
#X connect 0 1 1 1;
#X connect 0 2 1 2;
#X connect 1 0 5 0;
#X connect 2 0 3 1;
#X connect 2 0 10 1;
#X connect 2 0 7 3;
#X connect 3 0 0 0;
#X connect 4 0 8 0;
#X connect 6 0 3 0;
#X connect 8 0 6 0;
#X connect 8 1 12 0;
#X connect 8 2 9 0;
#X connect 9 0 10 0;
#X connect 10 0 11 0;
#X connect 12 1 7 0;
#X restore 115 205 pd seq_slot;
#N canvas 581 64 699 643 seq 0;
#X obj 360 30 inlet;
#X obj 31 230 pointer;
#X obj 31 28 inlet;
#X obj 31 366 outlet;
#X obj 31 113 t b;
#X obj 74 198 set template_seq length midi_track_index;
#X obj 31 325 pack f f;
#X obj 31 289 get template_seq length midi_track_index;
#X obj 327 358 outlet;
#X obj 361 143 t p p p;
#X obj 31 84 route get set get_note;
#X obj 327 279 f;
#X obj 327 315 element template_seq midi_notes;
#X obj 73 158 list split 1;
#X connect 0 0 9 0;
#X connect 1 0 7 0;
#X connect 2 0 10 0;
#X connect 4 0 1 0;
#X connect 6 0 3 0;
#X connect 7 0 6 0;
#X connect 7 1 6 1;
#X connect 9 0 1 1;
#X connect 9 1 5 2;
#X connect 9 2 12 1;
#X connect 10 0 4 0;
#X connect 10 1 13 0;
#X connect 10 2 11 0;
#X connect 11 0 12 0;
#X connect 12 0 8 0;
#X connect 13 1 5 0;
#X restore 81 274 pd seq;
#N canvas 253 160 603 547 note 0;
#X obj 173 79 inlet;
#X obj 43 222 pointer;
#X obj 43 80 inlet;
#X obj 43 407 outlet;
#X obj 43 125 route get set;
#X obj 43 154 t b;
#X obj 105 298 set template_midi_note pitch velocity duration is_activated
;
#X obj 43 331 get template_midi_note pitch velocity duration is_activated
;
#X obj 43 373 pack f f f f;
#X obj 128 249 list split 2;
#X connect 0 0 1 1;
#X connect 0 0 6 4;
#X connect 1 0 7 0;
#X connect 2 0 4 0;
#X connect 4 0 5 0;
#X connect 4 1 9 0;
#X connect 5 0 1 0;
#X connect 7 0 8 0;
#X connect 7 1 8 1;
#X connect 7 2 8 2;
#X connect 7 3 8 3;
#X connect 8 0 3 0;
#X connect 9 1 6 0;
#X restore 48 357 pd note;
#X obj 115 239 print slot;
#X obj 80 328 print seq;
#X obj 48 382 print note;
#N canvas 134 130 717 462 song 0;
#X obj 598 22 inlet;
#X obj 57 158 pointer;
#X obj 57 16 inlet;
#X obj 57 343 outlet;
#X obj 57 126 t b;
#X obj 411 339 outlet;
#X obj 57 302 pack f f;
#X obj 411 276 f;
#X obj 57 61 route get set get_seq_slot;
#X obj 411 301 element tpl_song seq_slots;
#X obj 327 142 set tpl_song song_index song_bpm;
#X obj 57 266 get tpl_song song_index song_bpm;
#X connect 0 0 1 1;
#X connect 0 0 9 1;
#X connect 0 0 10 2;
#X connect 1 0 11 0;
#X connect 2 0 8 0;
#X connect 4 0 1 0;
#X connect 6 0 3 0;
#X connect 7 0 9 0;
#X connect 8 0 4 0;
#X connect 8 1 10 0;
#X connect 8 2 7 0;
#X connect 9 0 5 0;
#X connect 11 0 6 0;
#X connect 11 1 6 1;
#X restore 147 114 pd song;
#X obj 147 155 print song;
#N canvas 347 104 790 538 message_router 0;
#X obj 27 35 inlet;
#X obj 27 72 route note seq seq_slot song;
#X msg 51 282 get_note \$1;
#X obj 50 253 eeb_get_element_at_index 2;
#X obj 28 123 t l l l;
#X obj 29 363 outlet;
#X obj 107 363 outlet;
#X obj 29 334 route list;
#X obj 113 337 route list;
#X obj 107 121 t l l;
#X obj 418 194 eeb_get_element_at_index 1;
#X obj 418 231 t f f;
#X obj 210 123 t l l;
#X obj 217 336 route list;
#X obj 217 363 outlet;
#X obj 448 357 outlet;
#X msg 448 302 get_seq_slot \$1;
#X msg 419 260 get_seq;
#X connect 0 0 1 0;
#X connect 1 0 4 0;
#X connect 1 1 9 0;
#X connect 1 2 12 0;
#X connect 1 3 15 0;
#X connect 2 0 6 0;
#X connect 3 0 2 0;
#X connect 4 0 7 0;
#X connect 4 1 3 0;
#X connect 4 2 10 0;
#X connect 7 0 5 0;
#X connect 8 0 6 0;
#X connect 9 0 8 0;
#X connect 9 1 10 0;
#X connect 10 0 11 0;
#X connect 11 0 17 0;
#X connect 11 1 16 0;
#X connect 12 0 13 0;
#X connect 12 1 10 0;
#X connect 13 0 14 0;
#X connect 16 0 15 0;
#X connect 17 0 14 0;
#X restore 48 72 pd message_router;
#X connect 0 0 11 0;
#X connect 1 0 2 0;
#X connect 2 0 9 1;
#X connect 3 0 6 0;
#X connect 3 1 4 1;
#X connect 4 0 7 0;
#X connect 4 1 5 1;
#X connect 5 0 8 0;
#X connect 9 0 10 0;
#X connect 9 1 3 1;
#X connect 11 0 5 0;
#X connect 11 1 4 0;
#X connect 11 2 3 0;
#X connect 11 3 9 0;
