#N canvas 383 313 450 300 10;
#X obj 25 38 inlet;
#X obj 25 78 route get set;
#X obj 150 39 inlet;
#X obj 25 195 get \$1 \$2;
#X obj 101 195 set \$1 \$2;
#X obj 25 153 pointer;
#X obj 25 115 bang;
#X obj 185 195 set -symbol \$1 \$2;
#X obj 185 169 symbol;
#X obj 26 239 outlet;
#X obj 101 135 route float list bang symbol;
#X connect 0 0 1 0;
#X connect 1 0 6 0;
#X connect 1 1 10 0;
#X connect 2 0 5 1;
#X connect 2 0 4 1;
#X connect 2 0 7 1;
#X connect 3 0 9 0;
#X connect 5 0 3 0;
#X connect 6 0 5 0;
#X connect 8 0 7 0;
#X connect 10 0 4 0;
#X connect 10 4 8 0;
