#N canvas 1008 514 497 419 10;
#X obj 24 23 inlet;
#X obj 51 322 outlet;
#X obj 195 23 inlet;
#X obj 271 22 inlet;
#X obj 24 65 route list bang;
#X obj 111 96 print list_interval unknown cmd;
#X obj 23 151 list;
#X obj 23 233 list split;
#X obj 182 188 f;
#X obj 256 130 f;
#X obj 51 276 list split;
#X obj 256 221 -;
#X obj 24 113 t b l;
#X obj 23 186 t l b;
#X obj 256 157 t f b;
#X obj 256 246 + 1;
#X connect 0 0 4 0;
#X connect 2 0 8 1;
#X connect 3 0 9 1;
#X connect 4 0 12 0;
#X connect 4 1 6 0;
#X connect 4 2 5 0;
#X connect 6 0 13 0;
#X connect 7 1 10 0;
#X connect 8 0 7 1;
#X connect 8 0 11 1;
#X connect 9 0 14 0;
#X connect 10 0 1 0;
#X connect 11 0 15 0;
#X connect 12 0 6 0;
#X connect 12 1 6 1;
#X connect 13 0 7 0;
#X connect 13 1 9 0;
#X connect 14 0 11 0;
#X connect 14 1 8 0;
#X connect 15 0 10 1;
