#N canvas 429 42 755 668 10;
#X msg 239 421 menuclose;
#X obj 239 259 list split 1;
#N canvas 415 23 450 300 subpatch-pos 0;
#X obj 42 22 inlet;
#X obj 43 202 outlet;
#X obj 43 169 list prepend;
#X obj 178 116 + 25;
#X obj 141 24 loadbang;
#X obj 214 24 inlet;
#X obj 214 59 bang;
#X obj 42 81 t anything b;
#X obj 214 90 f 25;
#X obj 141 115 f 25;
#X msg 141 139 550 \$1;
#X connect 0 0 7 0;
#X connect 2 0 1 0;
#X connect 3 0 9 1;
#X connect 4 0 9 0;
#X connect 5 0 6 0;
#X connect 6 0 8 0;
#X connect 7 0 2 0;
#X connect 7 1 9 0;
#X connect 8 0 9 1;
#X connect 9 0 10 0;
#X connect 9 0 3 0;
#X connect 10 0 2 1;
#X restore 239 295 pd subpatch-pos;
#X obj 239 463 send;
#X obj 239 350 t anything anything;
#X obj 326 262 bng 15 250 50 0 empty empty empty 17 7 0 10 -262144
-1 -1;
#X obj 239 382 t b l;
#X obj 11 46 inlet;
#X obj 350 382 send pd-eeb_object_creator.pd;
#X obj 13 445 send;
#X msg 30 250 obj 10 10 struct;
#X obj 11 189 t l b l;
#X obj 11 339 t l l;
#X obj 11 298 list prepend;
#X obj 7 385 list trim;
#X msg 239 325 obj \$1 \$2 pd sub-\$3;
#X obj 312 461 print;
#X msg 308 420 symbol pd-\$5;
#X msg 75 384 symbol pd-sub-\$5;
#X connect 0 0 3 0;
#X connect 1 0 2 0;
#X connect 2 0 15 0;
#X connect 4 0 6 0;
#X connect 4 1 8 0;
#X connect 5 0 2 1;
#X connect 6 0 0 0;
#X connect 6 1 17 0;
#X connect 7 0 11 0;
#X connect 10 0 13 1;
#X connect 11 0 13 0;
#X connect 11 1 10 0;
#X connect 11 2 1 0;
#X connect 12 0 14 0;
#X connect 12 1 18 0;
#X connect 13 0 12 0;
#X connect 14 0 9 0;
#X connect 15 0 4 0;
#X connect 17 0 3 1;
#X connect 17 0 16 0;
#X connect 18 0 9 1;
