#N canvas 538 53 1000 868 10;
#X obj 31 50 inlet;
#X obj 32 257 route version resolution;
#X obj 68 383 route index name bpm, f 21;
#X obj 99 516 route index isMuted;
#X obj 140 654 route index isMuted, f 21;
#X obj 172 763 route index isMuted resolution length;
#X obj 501 642 route index pitch velocity duration beatTime isActivated
;
#X obj 32 308 eeb_obj_get_set App version;
#X obj 32 285 eeb_obj_get_set App resolution;
#X obj 68 429 eeb_obj_get_set Song name;
#X obj 68 407 eeb_obj_get_set Song index;
#X obj 68 452 eeb_obj_get_set Song bpm;
#X obj 99 539 eeb_obj_get_set Miditrack index;
#X obj 99 562 eeb_obj_get_set Song Miditrack isMuted;
#X obj 140 680 eeb_obj_get_set SeqSlot index;
#X obj 140 703 eeb_obj_get_set SeqSlot isMuted;
#X obj 172 787 eeb_obj_get_set Seq index;
#X obj 172 810 eeb_obj_get_set SeqS isMuted;
#X obj 172 833 eeb_obj_get_set SeqS resolution;
#X obj 172 854 eeb_obj_get_set SeqS length;
#X obj 500 667 eeb_obj_get_set MidiNote index;
#X obj 499 696 eeb_obj_get_set MidiNote pitch;
#X obj 499 717 eeb_obj_get_set MidiNote velocity;
#X obj 500 742 eeb_obj_get_set MidiNote duration;
#X obj 499 768 eeb_obj_get_set MidiNote beatTime;
#X obj 500 795 eeb_obj_get_set MidiNote isActivated;
#X obj 360 415 print eeb_app_obj error route not found;
#X obj 322 44 inlet;
#X obj 322 76 pointer App Song MidiTrack SeqSlot Seq MidiNode;
#X obj 31 120 list prepend;
#X msg 324 196 track;
#X msg 324 171 song;
#X msg 324 148 app;
#X msg 324 219 slot;
#X msg 324 243 seq;
#X msg 322 270 note;
#X obj 323 119 t b p;
#X obj 366 120 t b p;
#X obj 408 119 t b p;
#X obj 447 119 t b p;
#X obj 486 120 t b p;
#X obj 527 121 t b p;
#X obj 32 215 route app song track slot seq note;
#X obj 608 445 outlet;
#X obj 607 415 r \$0-get-out;
#X obj 6 332 s \$0-get-out;
#X obj 50 477 s \$0-get-out;
#X obj 80 591 s \$0-get-out;
#X obj 119 732 s \$0-get-out;
#X obj 158 891 s \$0-get-out;
#X obj 430 825 s \$0-get-out;
#X obj 361 390 r \$0-print-error;
#X obj 834 676 s \$0-print-error;
#X obj 175 342 s \$0-print-error;
#X obj 191 479 s \$0-print-error;
#X obj 213 593 s \$0-print-error;
#X obj 263 728 s \$0-print-error;
#X obj 278 884 s \$0-print-error;
#X obj 31 169 list trim;
#X connect 0 0 29 0;
#X connect 1 0 7 0;
#X connect 1 1 8 0;
#X connect 1 2 53 0;
#X connect 2 0 10 0;
#X connect 2 1 9 0;
#X connect 2 2 11 0;
#X connect 2 3 54 0;
#X connect 3 0 12 0;
#X connect 3 1 13 0;
#X connect 3 2 55 0;
#X connect 4 0 14 0;
#X connect 4 1 15 0;
#X connect 4 2 56 0;
#X connect 5 0 16 0;
#X connect 5 1 17 0;
#X connect 5 2 18 0;
#X connect 5 3 19 0;
#X connect 5 4 57 0;
#X connect 6 0 20 0;
#X connect 6 1 21 0;
#X connect 6 2 22 0;
#X connect 6 3 23 0;
#X connect 6 4 24 0;
#X connect 6 5 25 0;
#X connect 6 6 52 0;
#X connect 7 0 45 0;
#X connect 8 0 45 0;
#X connect 9 0 46 0;
#X connect 10 0 46 0;
#X connect 11 0 46 0;
#X connect 12 0 47 0;
#X connect 13 0 47 0;
#X connect 14 0 48 0;
#X connect 15 0 48 0;
#X connect 16 0 49 0;
#X connect 17 0 49 0;
#X connect 18 0 49 0;
#X connect 19 0 49 0;
#X connect 20 0 50 0;
#X connect 21 0 50 0;
#X connect 22 0 50 0;
#X connect 23 0 50 0;
#X connect 24 0 50 0;
#X connect 25 0 50 0;
#X connect 27 0 28 0;
#X connect 28 0 36 0;
#X connect 28 1 37 0;
#X connect 28 2 38 0;
#X connect 28 3 39 0;
#X connect 28 4 40 0;
#X connect 28 5 41 0;
#X connect 29 0 58 0;
#X connect 30 0 29 1;
#X connect 31 0 29 1;
#X connect 32 0 29 1;
#X connect 33 0 29 1;
#X connect 34 0 29 1;
#X connect 36 0 32 0;
#X connect 36 1 7 1;
#X connect 36 1 8 1;
#X connect 37 0 31 0;
#X connect 37 1 10 1;
#X connect 37 1 9 1;
#X connect 37 1 11 1;
#X connect 38 0 30 0;
#X connect 38 1 12 1;
#X connect 38 1 13 1;
#X connect 39 0 33 0;
#X connect 39 1 14 1;
#X connect 39 1 15 1;
#X connect 40 0 34 0;
#X connect 40 1 16 1;
#X connect 40 1 17 1;
#X connect 40 1 18 1;
#X connect 40 1 19 1;
#X connect 41 0 35 0;
#X connect 41 1 20 1;
#X connect 41 1 21 1;
#X connect 41 1 22 1;
#X connect 41 1 23 1;
#X connect 41 1 24 1;
#X connect 41 1 25 1;
#X connect 42 0 1 0;
#X connect 42 1 2 0;
#X connect 42 2 3 0;
#X connect 42 3 4 0;
#X connect 42 4 5 0;
#X connect 42 5 6 0;
#X connect 44 0 43 0;
#X connect 51 0 26 0;
#X connect 58 0 42 0;
