#N canvas 643 120 685 470 10;
#X obj 48 33 inlet;
#X obj 370 43 inlet;
#X obj 370 68 t p, f 4;
#X obj 48 70 route seq_slot seq note, f 24;
#N canvas 58 212 614 487 seq_slot 0;
#X obj 50 265 get template_seq_slot length is_muted midi_track_index
;
#X obj 50 301 pack f f f;
#X obj 498 22 inlet;
#X obj 50 157 pointer;
#X obj 50 15 inlet;
#X obj 50 342 outlet;
#X obj 50 89 t b;
#X obj 91 91 set template_seq_slot length is_muted midi_track_index
;
#X obj 50 60 route get set get_seq;
#X obj 402 196 f 0;
#X obj 402 221 element template_seq_slot seq;
#X obj 404 338 outlet;
#X connect 0 0 1 0;
#X connect 0 1 1 1;
#X connect 0 2 1 2;
#X connect 1 0 5 0;
#X connect 2 0 3 1;
#X connect 2 0 10 1;
#X connect 2 0 7 3;
#X connect 3 0 0 0;
#X connect 4 0 8 0;
#X connect 6 0 3 0;
#X connect 8 0 6 0;
#X connect 8 1 7 0;
#X connect 8 2 9 0;
#X connect 9 0 10 0;
#X connect 10 0 11 0;
#X restore 48 206 pd seq_slot;
#N canvas 698 142 699 643 seq 0;
#X obj 360 30 inlet;
#X obj 31 230 pointer;
#X obj 31 28 inlet;
#X obj 31 366 outlet;
#X obj 31 113 t b;
#X obj 74 198 set template_seq length midi_track_index;
#X obj 31 325 pack f f;
#X obj 31 289 get template_seq length midi_track_index;
#X obj 327 358 outlet;
#X obj 361 143 t p p p;
#X obj 31 84 route get set get_note;
#X obj 327 279 f;
#X obj 327 315 element template_seq midi_notes;
#X connect 0 0 9 0;
#X connect 1 0 7 0;
#X connect 2 0 10 0;
#X connect 4 0 1 0;
#X connect 6 0 3 0;
#X connect 7 0 6 0;
#X connect 7 1 6 1;
#X connect 9 0 1 1;
#X connect 9 1 5 2;
#X connect 9 2 12 1;
#X connect 10 0 4 0;
#X connect 10 1 5 0;
#X connect 10 2 11 0;
#X connect 11 0 12 0;
#X connect 12 0 8 0;
#X restore 151 254 pd seq;
#N canvas 253 162 603 547 note 0;
#X obj 173 79 inlet;
#X obj 43 222 pointer;
#X obj 43 80 inlet;
#X obj 43 407 outlet;
#X obj 43 125 route get set;
#X obj 43 154 t b;
#X obj 105 298 set template_midi_note pitch velocity duration is_activated
;
#X obj 43 331 get template_midi_note pitch velocity duration is_activated
;
#X obj 43 373 pack f f f f;
#X obj 128 249 list split 1;
#X connect 0 0 1 1;
#X connect 0 0 6 4;
#X connect 1 0 7 0;
#X connect 2 0 4 0;
#X connect 4 0 5 0;
#X connect 4 1 9 0;
#X connect 5 0 1 0;
#X connect 7 0 8 0;
#X connect 7 1 8 1;
#X connect 7 2 8 2;
#X connect 7 3 8 3;
#X connect 8 0 3 0;
#X connect 9 1 6 0;
#X restore 272 286 pd note;
#X msg 130 157 get_seq;
#X msg 319 205 get_note \$1;
#X obj 48 310 print slot;
#X obj 151 309 print seq;
#X obj 272 311 print note;
#X obj 130 132 t b;
#X obj 319 177 eeb_get_element_at_index 1;
#X obj 300 145 t l l b;
#X obj 95 99 t l b;
#X obj 151 205 route list;
#X obj 225 205 route list;
#X connect 0 0 3 0;
#X connect 1 0 2 0;
#X connect 2 0 4 1;
#X connect 3 0 4 0;
#X connect 3 1 15 0;
#X connect 3 2 14 0;
#X connect 4 0 9 0;
#X connect 4 1 5 1;
#X connect 5 0 10 0;
#X connect 5 1 6 1;
#X connect 6 0 11 0;
#X connect 7 0 4 0;
#X connect 8 0 5 0;
#X connect 12 0 7 0;
#X connect 13 0 8 0;
#X connect 14 0 17 0;
#X connect 14 1 13 0;
#X connect 14 2 12 0;
#X connect 15 0 16 0;
#X connect 15 1 12 0;
#X connect 16 0 5 0;
#X connect 17 0 6 0;
