#N canvas 308 241 787 380 10;
#X obj 21 146 float;
#X obj 21 62 t b;
#X obj 21 29 inlet;
#X text 59 31 bang;
#X obj 265 28 loadbang;
#X obj 21 339 outlet;
#X obj 265 53 t b b, f 8;
#X obj 375 25 inlet;
#X obj 375 146 t f;
#X text 411 26 max value;
#X obj 500 27 inlet;
#X text 536 27 reset;
#X text 162 79 Store MIN value.;
#X obj 500 58 t b;
#X text 58 146 Current count.;
#X obj 85 262 + 1;
#X obj 265 78 f 0;
#X obj 310 79 f \$1;
#X obj 21 202 expr if($f1>$f2 \, $f1%($f2+1) \, $f1) \;;
#X obj 21 263 t f f f;
#X obj 74 339 outlet;
#X obj 74 312 select 0;
#X connect 0 0 18 0;
#X connect 1 0 0 0;
#X connect 2 0 1 0;
#X connect 4 0 6 0;
#X connect 6 0 16 0;
#X connect 6 1 17 0;
#X connect 7 0 8 0;
#X connect 8 0 18 1;
#X connect 10 0 13 0;
#X connect 13 0 16 0;
#X connect 15 0 0 1;
#X connect 16 0 0 1;
#X connect 17 0 8 0;
#X connect 18 0 19 0;
#X connect 19 0 5 0;
#X connect 19 1 21 0;
#X connect 19 2 15 0;
#X connect 21 0 20 0;
