#N canvas 566 60 787 402 10;
#X floatatom 21 156 0 0 0 0 - - -;
#X obj 21 91 float;
#X obj 21 62 t b;
#X obj 21 29 inlet;
#X text 59 31 bang;
#X obj 120 18 loadbang;
#X obj 21 262 outlet;
#X obj 21 121 + 0;
#X obj 165 82 f \$2;
#X obj 120 43 t b b, f 8;
#X obj 120 68 f \$1;
#X obj 58 206 expr if( $f1 >= $f2 \, -$f2 + $f3 \, 1) \;;
#X obj 269 18 inlet;
#X text 302 14 min value;
#X obj 377 19 inlet;
#X obj 378 92 t f;
#X text 413 20 max value;
#X obj 503 21 inlet;
#X text 539 21 reset;
#X obj 378 123 f;
#X obj 120 121 f;
#X text 147 136 Store MIN value.;
#X text 405 125 Store MAX value.;
#X obj 120 96 t f;
#X obj 529 79 f 0;
#X obj 502 52 t b b;
#X obj 378 248 outlet;
#X obj 606 79 inlet;
#X obj 606 112 t b f;
#X connect 0 0 6 0;
#X connect 0 0 11 0;
#X connect 1 0 7 0;
#X connect 2 0 1 0;
#X connect 3 0 2 0;
#X connect 5 0 9 0;
#X connect 7 0 0 0;
#X connect 7 0 1 1;
#X connect 8 0 15 0;
#X connect 9 0 10 0;
#X connect 9 1 8 0;
#X connect 10 0 23 0;
#X connect 11 0 7 1;
#X connect 12 0 23 0;
#X connect 14 0 15 0;
#X connect 15 0 19 0;
#X connect 17 0 25 0;
#X connect 19 0 11 1;
#X connect 19 0 26 0;
#X connect 20 0 11 2;
#X connect 20 0 1 1;
#X connect 23 0 20 0;
#X connect 24 0 7 1;
#X connect 25 0 20 0;
#X connect 25 1 24 0;
#X connect 27 0 28 0;
#X connect 28 0 24 0;
#X connect 28 1 1 1;
