#N canvas 713 216 787 402 10;
#X obj 21 91 float;
#X obj 21 62 t b;
#X obj 21 29 inlet;
#X text 59 31 bang;
#X obj 187 17 loadbang;
#X obj 21 262 outlet;
#X obj 21 121 + 0;
#X obj 232 81 f \$2;
#X obj 187 42 t b b, f 8;
#X obj 187 67 f \$1;
#X obj 88 5 inlet;
#X text 121 1 min value;
#X obj 378 19 inlet;
#X obj 378 92 t f;
#X text 414 20 max value;
#X obj 503 21 inlet;
#X text 539 21 reset;
#X obj 378 123 f;
#X obj 187 120 f;
#X text 214 135 Store MIN value.;
#X text 405 125 Store MAX value.;
#X obj 187 95 t f;
#X obj 529 79 f 0;
#X obj 502 52 t b b;
#X obj 286 314 f;
#X floatatom 479 288 5 0 0 0 - - -, f 5;
#X obj 378 225 expr if($f1>$f2 \, $f1%($f2+1) \, $f1);
#X obj 380 158 t b f f;
#X obj 58 206 expr if( $f1 >= $f2 \, -$f2 + $f3 \, 1) \; $f1 \; $f2
\; $f3;
#X floatatom 19 182 5 0 0 0 - - -, f 5;
#X connect 0 0 6 0;
#X connect 1 0 0 0;
#X connect 2 0 1 0;
#X connect 4 0 8 0;
#X connect 6 0 0 1;
#X connect 6 0 29 0;
#X connect 7 0 13 0;
#X connect 8 0 9 0;
#X connect 8 1 7 0;
#X connect 9 0 21 0;
#X connect 10 0 21 0;
#X connect 12 0 13 0;
#X connect 13 0 17 0;
#X connect 15 0 23 0;
#X connect 17 0 27 0;
#X connect 18 0 0 1;
#X connect 18 0 28 2;
#X connect 21 0 18 0;
#X connect 22 0 6 1;
#X connect 23 0 18 0;
#X connect 23 1 22 0;
#X connect 24 0 26 0;
#X connect 26 0 25 0;
#X connect 26 0 0 1;
#X connect 26 0 29 0;
#X connect 27 0 24 0;
#X connect 27 1 26 1;
#X connect 27 2 28 1;
#X connect 28 0 6 1;
#X connect 29 0 5 0;
#X connect 29 0 28 0;
