#N canvas 566 206 450 300 10;
#X floatatom 21 156 0 0 0 0 - - -;
#X obj 21 91 float;
#X obj 21 62 t b;
#X obj 21 29 inlet;
#X obj 98 63 t b;
#X text 59 31 bang;
#X obj 98 32 inlet;
#X text 137 33 reset;
#X obj 208 35 loadbang;
#X obj 21 262 outlet;
#X obj 21 121 + 0;
#X obj 235 123 f \$2;
#X obj 208 67 t b b;
#X obj 180 123 f \$1;
#X obj 58 206 expr if( $f1 >= $f2 \, -$f2 + $f3 \, 1) \;;
#X obj 98 94 f \$1;
#X obj 98 140 t b;
#X obj 99 173 f 0;
#X connect 0 0 9 0;
#X connect 0 0 14 0;
#X connect 1 0 10 0;
#X connect 2 0 1 0;
#X connect 3 0 2 0;
#X connect 4 0 15 0;
#X connect 6 0 4 0;
#X connect 8 0 12 0;
#X connect 10 0 0 0;
#X connect 10 0 1 1;
#X connect 11 0 14 1;
#X connect 12 0 13 0;
#X connect 12 1 11 0;
#X connect 13 0 14 2;
#X connect 13 0 10 1;
#X connect 14 0 10 1;
#X connect 15 0 1 1;
#X connect 15 0 16 0;
#X connect 16 0 17 0;
#X connect 17 0 10 1;
