#N canvas 566 206 694 353 10;
#X floatatom 21 156 0 0 0 0 - - -;
#X obj 21 91 float;
#X obj 21 62 t b;
#X obj 21 29 inlet;
#X text 59 31 bang;
#X obj 315 23 loadbang;
#X obj 21 262 outlet;
#X obj 21 121 + 0;
#X obj 371 87 f \$2;
#X obj 315 55 t b b, f 8;
#X obj 287 86 f \$1;
#X obj 58 206 expr if( $f1 >= $f2 \, -$f2 + $f3 \, 1) \;;
#X obj 458 24 inlet;
#X text 500 25 min value;
#X obj 565 25 inlet;
#X obj 565 57 t f;
#X text 601 24 max value;
#X obj 458 114 s up-min-val;
#X obj 271 180 r up-min-val;
#X obj 66 101 r up-min-val;
#X obj 287 115 s up-min-val;
#X obj 458 56 t f f;
#X obj 463 214 print inlet 1;
#X obj 559 229 print inlet 2;
#X connect 0 0 6 0;
#X connect 0 0 11 0;
#X connect 1 0 7 0;
#X connect 2 0 1 0;
#X connect 3 0 2 0;
#X connect 5 0 9 0;
#X connect 7 0 0 0;
#X connect 7 0 1 1;
#X connect 8 0 11 1;
#X connect 9 0 10 0;
#X connect 9 1 8 0;
#X connect 10 0 20 0;
#X connect 11 0 7 1;
#X connect 12 0 21 0;
#X connect 12 0 22 0;
#X connect 14 0 15 0;
#X connect 15 0 11 1;
#X connect 18 0 11 2;
#X connect 19 0 7 1;
#X connect 21 0 17 0;
