#N canvas 222 63 937 683 10;
#X obj 70 93 cnv 20 570 170 empty empty empty 20 12 0 14 -49933 -66577
0;
#X obj 540 9 inlet;
#X obj 540 31 t l;
#X obj 662 143 route 16 17 18 19 20 21 22 23;
#X obj 731 15 inlet;
#X obj 731 40 t b;
#X obj 731 74 s reset-launchpad-toggle;
#X obj 151 113 eebpad 1 \$0;
#X obj 221 113 eebpad 2 \$0;
#X obj 291 113 eebpad 3 \$0;
#X obj 360 113 eebpad 4 \$0;
#X obj 430 113 eebpad 5 \$0;
#X obj 499 113 eebpad 6 \$0;
#X obj 568 113 eebpad 7 \$0;
#X obj 151 184 eebpad 17 \$0;
#X obj 221 184 eebpad 18 \$0;
#X obj 291 184 eebpad 19 \$0;
#X obj 430 184 eebpad 21 \$0;
#X obj 499 184 eebpad 22 \$0;
#X obj 568 184 eebpad 23 \$0;
#X obj 81 113 eebpad 0 \$0;
#X obj 81 184 eebpad 16 \$0;
#X obj 360 184 eebpad 20 \$0;
#X obj 62 570 r toggle-down-\$0;
#X msg 62 604 144 \, \$1 \, 60;
#X obj 62 652 midiout;
#X obj 174 570 loadbang;
#X msg 172 622 2;
#X obj 540 59 route 0 1 2 3 4 5 6 7 8;
#X obj 676 354 eebpad 8;
#X connect 1 0 2 0;
#X connect 2 0 28 0;
#X connect 3 0 21 0;
#X connect 3 1 14 0;
#X connect 3 2 15 0;
#X connect 3 3 16 0;
#X connect 3 4 22 0;
#X connect 3 5 17 0;
#X connect 3 6 18 0;
#X connect 3 7 19 0;
#X connect 4 0 5 0;
#X connect 5 0 6 0;
#X connect 23 0 24 0;
#X connect 24 0 25 0;
#X connect 26 0 27 0;
#X connect 27 0 25 1;
#X connect 28 0 20 0;
#X connect 28 1 7 0;
#X connect 28 2 8 0;
#X connect 28 3 9 0;
#X connect 28 4 10 0;
#X connect 28 5 11 0;
#X connect 28 6 12 0;
#X connect 28 7 13 0;
#X connect 28 8 29 0;
#X connect 28 9 3 0;
#X coords 0 -1 1 1 570 170 2 70 93;
