#N canvas 447 188 860 382 10;
#X obj 70 93 cnv 20 570 100 empty empty empty 20 12 0 14 -49933 -66577
0;
#X obj 81 113 eebpad;
#X obj 291 113 eebpad;
#X obj 151 113 eebpad;
#X obj 221 113 eebpad;
#X obj 360 113 eebpad;
#X obj 568 113 eebpad;
#X obj 430 113 eebpad;
#X obj 499 113 eebpad;
#X obj 263 59 route 0 1 2 3 4 5 6 7;
#X obj 263 -40 inlet;
#X obj 263 -18 t l;
#X connect 9 0 1 0;
#X connect 9 1 3 0;
#X connect 9 2 4 0;
#X connect 9 3 2 0;
#X connect 9 4 5 0;
#X connect 9 5 7 0;
#X connect 9 6 8 0;
#X connect 9 7 6 0;
#X connect 10 0 11 0;
#X connect 11 0 9 0;
#X coords 0 -1 1 1 570 100 2 70 93;
