#N canvas 169 23 937 684 10;
#X obj 70 93 cnv 20 570 170 empty empty empty 20 12 0 14 -49933 -66577
0;
#X obj 81 113 eebpad;
#X obj 291 113 eebpad;
#X obj 151 113 eebpad;
#X obj 221 113 eebpad;
#X obj 360 113 eebpad;
#X obj 568 113 eebpad;
#X obj 430 113 eebpad;
#X obj 499 113 eebpad;
#X obj 540 59 route 0 1 2 3 4 5 6 7;
#X obj 540 9 inlet;
#X obj 540 31 t l;
#X obj 81 184 eebpad;
#X obj 291 184 eebpad;
#X obj 151 184 eebpad;
#X obj 221 184 eebpad;
#X obj 360 184 eebpad;
#X obj 568 184 eebpad;
#X obj 430 184 eebpad;
#X obj 499 184 eebpad;
#X obj 662 143 route 16 17 18 19 20 21 22 23;
#X obj 731 15 inlet;
#X obj 731 40 t b;
#X obj 731 74 s reset-launchpad-toggle;
#X connect 9 0 1 0;
#X connect 9 1 3 0;
#X connect 9 2 4 0;
#X connect 9 3 2 0;
#X connect 9 4 5 0;
#X connect 9 5 7 0;
#X connect 9 6 8 0;
#X connect 9 7 6 0;
#X connect 9 8 20 0;
#X connect 10 0 11 0;
#X connect 11 0 9 0;
#X connect 20 0 12 0;
#X connect 20 1 14 0;
#X connect 20 2 15 0;
#X connect 20 3 13 0;
#X connect 20 4 16 0;
#X connect 20 5 18 0;
#X connect 20 6 19 0;
#X connect 20 7 17 0;
#X connect 21 0 22 0;
#X connect 22 0 23 0;
#X coords 0 -1 1 1 570 170 2 70 93;
