#N canvas 547 -823 970 636 10;
#X obj 55 178 eebmatrixpad;
#X obj 13 528 notein;
#X obj 13 553 pack f f;
#X obj 110 528 ctlin;
#X obj 110 552 pack f f f;
#X obj 110 575 route 0;
#X obj 110 601 route 0;
#X obj 13 577 s note-in-\$0;
#X obj 55 156 r note-in-\$0;
#X obj 110 624 s reset-\$0;
#X obj 618 156 r reset-\$0;
#X connect 1 0 2 0;
#X connect 1 1 2 1;
#X connect 2 0 7 0;
#X connect 3 0 4 0;
#X connect 3 1 4 1;
#X connect 3 2 4 2;
#X connect 4 0 5 0;
#X connect 5 0 6 0;
#X connect 6 0 9 0;
#X connect 8 0 0 0;
#X connect 10 0 0 1;
