#N canvas 71 88 1745 793 10;
#X obj 70 93 cnv 20 570 590 empty empty empty 20 12 0 14 -49933 -66577
0;
#X obj 23 11 inlet;
#X obj 23 33 t l;
#X obj 675 695 inlet;
#X obj 675 730 t b;
#X obj 675 767 s reset-launchpad-toggle;
#X obj 151 113 eebpad 1 \$0;
#X obj 221 113 eebpad 2 \$0;
#X obj 291 113 eebpad 3 \$0;
#X obj 361 113 eebpad 4 \$0;
#X obj 431 113 eebpad 5 \$0;
#X obj 501 113 eebpad 6 \$0;
#X obj 571 113 eebpad 7 \$0;
#X obj 151 183 eebpad 17 \$0;
#X obj 221 183 eebpad 18 \$0;
#X obj 291 183 eebpad 19 \$0;
#X obj 431 183 eebpad 21 \$0;
#X obj 501 183 eebpad 22 \$0;
#X obj 571 183 eebpad 23 \$0;
#X obj 81 113 eebpad 0 \$0;
#X obj 81 183 eebpad 16 \$0;
#X obj 361 183 eebpad 20 \$0;
#X obj 9 699 r toggle-down-\$0;
#X msg 9 733 144 \, \$1 \, 60;
#X obj 9 767 midiout;
#X obj 121 699 loadbang;
#X msg 121 734 2;
#X obj 672 34 route 0 1 2 3 4 5 6 7 8;
#X obj 641 113 eebpad 8 \$0;
#X obj 755 98 route 16 17 18 19 20 21 22 23 24;
#X obj 784 157 route 32 33 34 35 36 37 38 39 40;
#X obj 908 203 route 48 49 50 51 52 53 54 55 56;
#X obj 1008 251 route 64 65 66 67 68 69 70 71 72;
#X obj 1109 306 route 80 81 82 83 84 85 86 87 88;
#X obj 1187 362 route 96 97 98 99 100 101 102 103 104;
#X obj 1272 425 route 112 113 114 115 116 117 118 119 120;
#X obj 82 253 eebpad 32 \$0;
#X obj 151 253 eebpad 33 \$0;
#X obj 221 253 eebpad 34 \$0;
#X obj 291 253 eebpad 35 \$0;
#X obj 361 253 eebpad 36 \$0;
#X obj 431 253 eebpad 37 \$0;
#X obj 501 253 eebpad 38 \$0;
#X obj 571 253 eebpad 39 \$0;
#X obj 641 253 eebpad 40 \$0;
#X obj 641 183 eebpad 24 \$0;
#X obj 151 323 eebpad 49 \$0;
#X obj 221 323 eebpad 50 \$0;
#X obj 291 323 eebpad 51 \$0;
#X obj 361 323 eebpad 52 \$0;
#X obj 431 323 eebpad 53 \$0;
#X obj 501 323 eebpad 54 \$0;
#X obj 571 323 eebpad 55 \$0;
#X obj 151 393 eebpad 65 \$0;
#X obj 221 393 eebpad 66 \$0;
#X obj 291 393 eebpad 67 \$0;
#X obj 431 393 eebpad 69 \$0;
#X obj 501 393 eebpad 70 \$0;
#X obj 571 393 eebpad 71 \$0;
#X obj 81 323 eebpad 48 \$0;
#X obj 81 393 eebpad 64 \$0;
#X obj 362 393 eebpad 68 \$0;
#X obj 641 323 eebpad 56 \$0;
#X obj 81 463 eebpad 80 \$0;
#X obj 151 463 eebpad 81 \$0;
#X obj 221 463 eebpad 82 \$0;
#X obj 291 463 eebpad 83 \$0;
#X obj 361 463 eebpad 84 \$0;
#X obj 431 463 eebpad 85 \$0;
#X obj 501 463 eebpad 86 \$0;
#X obj 571 463 eebpad 87 \$0;
#X obj 641 463 eebpad 88 \$0;
#X obj 641 393 eebpad 72 \$0;
#X obj 151 533 eebpad 97 \$0;
#X obj 221 533 eebpad 98 \$0;
#X obj 291 533 eebpad 99 \$0;
#X obj 431 533 eebpad 101 \$0;
#X obj 501 533 eebpad 102 \$0;
#X obj 571 533 eebpad 103 \$0;
#X obj 82 533 eebpad 96 \$0;
#X obj 361 533 eebpad 100 \$0;
#X obj 81 603 eebpad 112 \$0;
#X obj 151 603 eebpad 113 \$0;
#X obj 221 603 eebpad 114 \$0;
#X obj 291 603 eebpad 115 \$0;
#X obj 361 603 eebpad 116 \$0;
#X obj 431 603 eebpad 117 \$0;
#X obj 501 603 eebpad 118 \$0;
#X obj 571 603 eebpad 119 \$0;
#X obj 641 603 eebpad 120 \$0;
#X obj 641 533 eebpad 104 \$0;
#X connect 1 0 2 0;
#X connect 2 0 27 0;
#X connect 3 0 4 0;
#X connect 4 0 5 0;
#X connect 22 0 23 0;
#X connect 23 0 24 0;
#X connect 25 0 26 0;
#X connect 26 0 24 1;
#X connect 27 0 19 0;
#X connect 27 1 6 0;
#X connect 27 2 7 0;
#X connect 27 3 8 0;
#X connect 27 4 9 0;
#X connect 27 5 10 0;
#X connect 27 6 11 0;
#X connect 27 7 12 0;
#X connect 27 8 28 0;
#X connect 27 9 29 0;
#X connect 29 0 20 0;
#X connect 29 1 13 0;
#X connect 29 2 14 0;
#X connect 29 3 15 0;
#X connect 29 4 21 0;
#X connect 29 5 16 0;
#X connect 29 6 17 0;
#X connect 29 7 18 0;
#X connect 29 8 45 0;
#X connect 29 9 30 0;
#X connect 30 0 36 0;
#X connect 30 1 37 0;
#X connect 30 2 38 0;
#X connect 30 3 39 0;
#X connect 30 4 40 0;
#X connect 30 5 41 0;
#X connect 30 6 42 0;
#X connect 30 7 43 0;
#X connect 30 8 44 0;
#X connect 30 9 31 0;
#X connect 31 0 59 0;
#X connect 31 1 46 0;
#X connect 31 2 47 0;
#X connect 31 3 48 0;
#X connect 31 4 49 0;
#X connect 31 5 50 0;
#X connect 31 6 51 0;
#X connect 31 7 52 0;
#X connect 31 8 62 0;
#X connect 31 9 32 0;
#X connect 32 0 60 0;
#X connect 32 1 53 0;
#X connect 32 2 54 0;
#X connect 32 3 55 0;
#X connect 32 4 61 0;
#X connect 32 5 56 0;
#X connect 32 6 57 0;
#X connect 32 7 58 0;
#X connect 32 8 72 0;
#X connect 32 9 33 0;
#X connect 33 0 63 0;
#X connect 33 1 64 0;
#X connect 33 2 65 0;
#X connect 33 3 66 0;
#X connect 33 4 67 0;
#X connect 33 5 68 0;
#X connect 33 6 69 0;
#X connect 33 7 70 0;
#X connect 33 8 71 0;
#X connect 33 9 34 0;
#X connect 34 0 79 0;
#X connect 34 1 73 0;
#X connect 34 2 74 0;
#X connect 34 3 75 0;
#X connect 34 4 80 0;
#X connect 34 5 76 0;
#X connect 34 6 77 0;
#X connect 34 7 78 0;
#X connect 34 8 90 0;
#X connect 34 9 35 0;
#X connect 35 0 81 0;
#X connect 35 1 82 0;
#X connect 35 2 83 0;
#X connect 35 3 84 0;
#X connect 35 4 85 0;
#X connect 35 5 86 0;
#X connect 35 6 87 0;
#X connect 35 7 88 0;
#X connect 35 8 89 0;
#X coords 0 -1 1 1 570 590 2 70 93;
