#N canvas -712 -551 450 300 10;
#X obj 101 99 eeboo.gen.pd.connect;
#X obj 101 145 print;
#X msg 140 57 2;
#X msg 179 57 3;
#X msg 218 57 0;
#X msg 101 57 1;
#X connect 0 0 1 0;
#X connect 2 0 0 1;
#X connect 3 0 0 2;
#X connect 4 0 0 3;
#X connect 5 0 0 0;
