#N canvas 206 23 404 519 10;
#X obj 40 144 eeb.object.prop-parser;
#X obj 40 170 eeb_get_element_at_index 1;
#X obj 19 256 list;
#X obj 40 228 t l l;
#X obj 102 104 list;
#X obj 19 359 list trim;
#X obj 21 19 inlet;
#X obj 19 395 outlet;
#X obj 21 77 t b anything b;
#X obj 106 399 outlet;
#X obj 19 304 t l l;
#X obj 106 370 list length;
#X obj 40 200 list prepend;
#X connect 0 0 1 0;
#X connect 1 0 12 0;
#X connect 2 0 10 0;
#X connect 3 0 2 1;
#X connect 3 1 12 1;
#X connect 4 0 2 1;
#X connect 4 0 12 0;
#X connect 4 0 12 1;
#X connect 5 0 7 0;
#X connect 6 0 8 0;
#X connect 8 0 2 0;
#X connect 8 1 0 0;
#X connect 8 2 4 0;
#X connect 10 0 5 0;
#X connect 10 1 11 0;
#X connect 11 0 9 0;
#X connect 12 0 3 0;
