#N canvas 162 62 616 300 10;
#X obj 23 20 inlet;
#X obj 23 281 outlet;
#X obj 218 20 inlet;
#X obj 23 80 list;
#X obj 345 20 inlet;
#X obj 475 20 inlet;
#X obj 23 122 list;
#X obj 23 156 list;
#X text 382 20 id to connect;
#X text 257 20 outlet index;
#X text 514 20 inlet index;
#X text 64 19 box id to connect from ->;
#X msg 23 196 connect \$1 \$2 \$3 \$4;
#X connect 0 0 3 0;
#X connect 2 0 3 1;
#X connect 3 0 6 0;
#X connect 4 0 6 1;
#X connect 5 0 7 1;
#X connect 6 0 7 0;
#X connect 7 0 12 0;
#X connect 12 0 1 0;
