#N canvas 638 128 449 430 10;
#X obj 27 13 inlet;
#X obj 28 288 outlet;
#X obj 27 37 t b;
#X obj 85 191 eebcounter;
#X obj 119 53 loadbang;
#X obj 86 105 t l l;
#X obj 113 136 list length;
#X obj 28 137 list;
#X obj 28 162 t l b;
#X obj 113 161 - 1;
#X obj 28 264 select 1;
#X obj 86 14 inlet;
#X obj 86 38 t l;
#X msg 119 78 list 0 0 0 0 0 0 0 0 0 0 0 0 0 0 0 0 0;
#X obj 204 15 inlet;
#X obj 204 42 t b;
#X obj 152 272 list;
#X obj 152 295 outlet;
#X obj 28 224 eeb_get_element_at_index;
#X connect 0 0 2 0;
#X connect 2 0 7 0;
#X connect 3 0 18 1;
#X connect 4 0 13 0;
#X connect 5 0 7 1;
#X connect 5 0 16 1;
#X connect 5 1 6 0;
#X connect 6 0 9 0;
#X connect 7 0 8 0;
#X connect 8 0 18 0;
#X connect 8 1 3 0;
#X connect 9 0 3 1;
#X connect 10 0 1 0;
#X connect 11 0 12 0;
#X connect 12 0 5 0;
#X connect 13 0 5 0;
#X connect 14 0 15 0;
#X connect 15 0 16 0;
#X connect 16 0 17 0;
#X connect 18 0 10 0;
