#N canvas 570 105 622 506 10;
#X obj 10 10 tgl 60 0 \$0sdud \$0rdud empty 17 7 1 10 -166441 -166441
-166441 0 1;
#X obj 102 124 select 1;
#X obj 101 11 loadbang;
#X obj 102 213 expr $f1 + $f2 \;;
#X obj 102 254 select 0 1 2 3;
#X msg 102 340 color \$1 \$1 \$1;
#X obj 102 153 t b;
#X obj 102 180 f 2;
#X obj 147 179 f 0;
#X obj 147 152 t b;
#X obj 102 75 f;
#X obj 172 300 f 6;
#X obj 207 300 f 16;
#X obj 139 300 f 10;
#X obj 101 40 f 0;
#X obj 102 300 f 1;
#X obj 192 11 inlet;
#X obj 192 38 t f;
#X obj 192 69 convdectobin;
#X floatatom 190 110 5 0 0 0 - - -, f 5;
#X floatatom 200 120 5 0 0 0 - - -, f 5;
#X floatatom 210 130 5 0 0 0 - - -, f 5;
#X floatatom 220 140 5 0 0 0 - - -, f 5;
#X floatatom 230 150 5 0 0 0 - - -, f 5;
#X floatatom 240 160 5 0 0 0 - - -, f 5;
#X floatatom 250 170 5 0 0 0 - - -, f 5;
#X floatatom 260 180 5 0 0 0 - - -, f 5;
#X floatatom 256 10 5 0 0 0 - - -, f 5;
#X connect 0 0 10 0;
#X connect 1 0 6 0;
#X connect 1 1 9 0;
#X connect 2 0 14 0;
#X connect 3 0 4 0;
#X connect 4 0 15 0;
#X connect 4 1 13 0;
#X connect 4 2 11 0;
#X connect 4 3 12 0;
#X connect 5 0 0 0;
#X connect 6 0 7 0;
#X connect 7 0 3 0;
#X connect 8 0 3 0;
#X connect 9 0 8 0;
#X connect 10 0 1 0;
#X connect 11 0 5 0;
#X connect 12 0 5 0;
#X connect 13 0 5 0;
#X connect 14 0 10 0;
#X connect 15 0 5 0;
#X connect 16 0 17 0;
#X connect 17 0 18 0;
#X connect 18 0 19 0;
#X connect 18 1 20 0;
#X connect 18 2 21 0;
#X connect 18 3 22 0;
#X connect 18 4 23 0;
#X connect 18 5 24 0;
#X connect 18 6 25 0;
#X connect 18 7 26 0;
#X connect 27 0 17 0;
#X coords 0 -1 1 1 60 60 2 10 10;
