#N canvas 189 268 450 300 10;
#X obj 123 90 eebpatternplayer;
#X obj 123 51 bng 15 250 50 0 empty empty empty 17 7 0 10 -262144 -1
-1;
#X obj 123 132 bng 15 250 50 0 empty empty empty 17 7 0 10 -262144
-1 -1;
#X msg 169 46 list 1 0 0 0 0 1 1 0 0 0;
#X obj 169 15 loadbang;
#X obj 333 49 bng 15 250 50 0 empty empty empty 17 7 0 10 -262144 -1
-1;
#X obj 216 129 print getlist;
#X connect 0 0 2 0;
#X connect 0 1 6 0;
#X connect 1 0 0 0;
#X connect 3 0 0 1;
#X connect 4 0 3 0;
#X connect 5 0 0 2;
