#N canvas 514 203 666 417 10;
#X obj 109 124 eebpatternplayer;
#X obj 155 54 t l;
#X obj 109 24 inlet;
#X obj 155 24 inlet;
#X obj 109 222 makenote 127 500;
#X obj 109 154 t b;
#X obj 109 275 noteout;
#X obj 217 254 f \$1;
#X obj 217 222 loadbang;
#X obj 289 255 outlet;
#X obj 109 183 f \$2;
#X obj 155 90 route \$2;
#X obj 227 24 inlet;
#X obj 227 54 t f;
#X obj 287 25 inlet;
#X obj 287 54 t b;
#X obj 289 170 list prepend;
#X obj 395 21 loadbang;
#X msg 395 48 0 0 0 0 0 0 0 0 0 0 0 0 0 0 0 0;
#X obj 464 99 f \$2;
#X obj 395 125 list prepend;
#X obj 464 74 loadbang;
#X connect 0 0 5 0;
#X connect 0 1 16 0;
#X connect 1 0 11 0;
#X connect 2 0 0 0;
#X connect 3 0 1 0;
#X connect 4 0 6 0;
#X connect 4 1 6 1;
#X connect 5 0 10 0;
#X connect 7 0 6 2;
#X connect 8 0 7 0;
#X connect 10 0 4 0;
#X connect 11 0 0 1;
#X connect 12 0 13 0;
#X connect 13 0 11 1;
#X connect 13 0 10 1;
#X connect 13 0 16 1;
#X connect 14 0 15 0;
#X connect 15 0 0 2;
#X connect 16 0 9 0;
#X connect 17 0 18 0;
#X connect 18 0 20 0;
#X connect 19 0 20 1;
#X connect 20 0 11 0;
#X connect 21 0 19 0;
