#N canvas 279 262 622 506 10;
#X obj 10 10 tgl 60 0 \$0sdud \$0rdud empty 17 7 1 10 -262144 -166441
-166441 0 1;
#X obj 102 124 select 1;
#X obj 101 11 loadbang;
#X obj 102 213 expr $f1 + $f2 \;;
#X obj 102 254 select 0 1 2 3;
#X msg 102 340 color \$1 \$1 \$1;
#X obj 102 153 t b;
#X obj 102 180 f 2;
#X obj 147 179 f 0;
#X obj 147 152 t b;
#X obj 102 75 f;
#X obj 172 300 f 6;
#X obj 207 300 f 16;
#X obj 139 300 f 10;
#X obj 101 40 f 0;
#X obj 102 300 f 1;
#X obj 192 11 inlet;
#X msg 295 55 60;
#X msg 343 54 63;
#X msg 395 55 15;
#X obj 300 173 pack;
#X obj 306 225 print;
#X msg 443 58 47;
#X obj 294 112 expr $f1 & 3 \; ($f1 >> 4) & 11;
#X msg 489 75 13;
#X msg 513 102 0;
#X msg 345 16 62;
#X connect 0 0 10 0;
#X connect 1 0 6 0;
#X connect 1 1 9 0;
#X connect 2 0 14 0;
#X connect 3 0 4 0;
#X connect 4 0 15 0;
#X connect 4 1 13 0;
#X connect 4 2 11 0;
#X connect 4 3 12 0;
#X connect 5 0 0 0;
#X connect 6 0 7 0;
#X connect 7 0 3 0;
#X connect 8 0 3 0;
#X connect 9 0 8 0;
#X connect 10 0 1 0;
#X connect 11 0 5 0;
#X connect 12 0 5 0;
#X connect 13 0 5 0;
#X connect 14 0 10 0;
#X connect 15 0 5 0;
#X connect 17 0 23 0;
#X connect 18 0 23 0;
#X connect 19 0 23 0;
#X connect 20 0 21 0;
#X connect 22 0 23 0;
#X connect 23 0 20 0;
#X connect 23 1 20 1;
#X connect 24 0 23 0;
#X connect 25 0 23 0;
#X connect 26 0 23 0;
#X coords 0 -1 1 1 60 60 2 10 10;
