#N canvas 1163 524 528 390 10;
#X obj 109 90 eebpatternplayer;
#X obj 155 57 t l;
#X obj 109 24 inlet;
#X obj 155 24 inlet;
#X obj 109 188 makenote 127 500;
#X obj 109 120 t b;
#X obj 109 241 noteout;
#X obj 217 220 f \$1;
#X obj 217 188 loadbang;
#X obj 202 25 inlet;
#X obj 202 124 outlet;
#X obj 109 149 f \$2;
#X connect 0 0 5 0;
#X connect 0 1 10 0;
#X connect 1 0 0 1;
#X connect 2 0 0 0;
#X connect 3 0 1 0;
#X connect 4 0 6 0;
#X connect 4 1 6 1;
#X connect 5 0 11 0;
#X connect 7 0 6 2;
#X connect 8 0 7 0;
#X connect 9 0 0 2;
#X connect 11 0 4 0;
