#N canvas 1000 367 622 506 10;
#X obj 10 10 tgl 60 0 \$0sdud \$0rdud empty 17 7 1 10 -212212 -212212
-212212 0 1;
#X obj 125 10 loadbang;
#X msg 192 96 color \$1 \$1 \$1;
#X obj 192 10 inlet;
#X obj 10 181 outlet;
#X obj 192 72 velocity_to_launchpad_color_value;
#X obj 125 49 f 12;
#X obj 304 37 t b;
#X obj 10 105 t b;
#X text 7 203 the toggle don't have to store it state.;
#X obj 304 9 r reset-launchpad-toggle;
#X obj 397 116 loadbang;
#X obj 397 143 f \$1;
#X obj 397 172 s toggle-down-\$2;
#X obj 485 13 loadbang;
#X obj 485 44 f \$3;
#X msg 509 108 size \$1;
#X obj 513 74 moses 1;
#X connect 0 0 8 0;
#X connect 1 0 6 0;
#X connect 2 0 0 0;
#X connect 3 0 5 0;
#X connect 5 0 2 0;
#X connect 6 0 5 0;
#X connect 7 0 6 0;
#X connect 8 0 4 0;
#X connect 8 0 12 0;
#X connect 10 0 7 0;
#X connect 11 0 12 0;
#X connect 12 0 13 0;
#X connect 14 0 15 0;
#X connect 15 0 17 0;
#X connect 16 0 0 0;
#X connect 17 1 16 0;
#X coords 0 -1 1 1 60 60 2 10 10;
