#N canvas 638 23 449 430 10;
#X obj 27 13 inlet;
#X obj 28 336 outlet;
#X obj 27 37 t b;
#X obj 54 225 eebcounter;
#X obj 140 8 loadbang;
#X obj 86 61 s list-update-\$0;
#X obj 85 118 r list-update-\$0;
#X obj 85 143 t l l;
#X obj 112 174 list length;
#X obj 27 175 list;
#X obj 28 257 list split;
#X obj 27 200 t l b;
#X obj 28 287 list split 1;
#X obj 112 199 - 1;
#X obj 28 312 select 1;
#X msg 140 33 list 0 1 0 0 1 0 1 0 0;
#X obj 86 11 inlet;
#X obj 86 35 t l;
#X connect 0 0 2 0;
#X connect 2 0 9 0;
#X connect 3 0 10 1;
#X connect 4 0 15 0;
#X connect 6 0 7 0;
#X connect 7 0 9 1;
#X connect 7 1 8 0;
#X connect 8 0 13 0;
#X connect 9 0 11 0;
#X connect 10 1 12 0;
#X connect 11 0 10 0;
#X connect 11 1 3 0;
#X connect 12 0 14 0;
#X connect 13 0 3 1;
#X connect 14 0 1 0;
#X connect 15 0 5 0;
#X connect 16 0 17 0;
#X connect 17 0 5 0;
