#N canvas 14 82 1134 563 10;
#X obj 170 216 pattern-manager;
#X obj 171 15 loadbang;
#X obj 95 288 sequencer-gui;
#X obj 96 359 midiout;
#X msg 18 288 176 \, 0 \, 0;
#X msg 135 338 1;
#X obj 135 315 loadbang;
#X obj 17 7 tgl 15 0 empty empty empty 17 7 0 10 -262144 -1 -1 0 1
;
#X msg 171 46 list 0 0 0 0 0 0 0 0 0 0 0 0 0 0 0 0;
#X obj 17 34 metro 205;
#X msg 193 95 list 0 0 0 0 0;
#X msg 183 71 list 0 0 1 0 0 0 0 0;
#X obj 17 61 s send-tick-\$0;
#X obj 78 253 r send-tick-\$0;
#X obj 171 129 s list-update-\$0;
#X obj 575 61 loadbang;
#X obj 696 153 bng 15 250 50 0 empty empty empty 17 7 0 10 -262144
-1 -1;
#X obj 484 150 r send-tick-\$0;
#X obj 170 253 t l b l;
#X obj 524 179 eebpatternplayermidi 42 45;
#X obj 626 147 nbx 5 14 -1e+37 1e+37 0 0 empty empty empty 0 -8 0 10
-262144 -1 -1 45 256 0;
#X obj 264 381 eeb_dispatcher;
#X obj 264 435 s list-update-gui-\$0;
#X obj 171 162 r list-update-gui-\$0;
#X msg 575 87 list 42 1 1 1 1 1 1 1 1;
#X obj 996 150 bng 15 250 50 0 empty empty empty 17 7 0 10 -262144
-1 -1;
#X obj 771 143 r send-tick-\$0;
#X obj 824 176 eebpatternplayermidi 42 45;
#X obj 926 150 nbx 5 14 -1e+37 1e+37 0 0 empty empty empty 0 -8 0 10
-262144 -1 -1 49 256 0;
#X obj 171 188 list split 1;
#X obj 345 356 r update-return-dispatcher-\$0;
#X obj 524 208 s update-send-dispatcher-\$0;
#X obj 824 209 s update-send-dispatcher-\$0;
#X obj 264 328 r update-send-dispatcher-\$0;
#X obj 345 410 s list-update-player-\$0;
#X obj 593 116 r list-update-player-\$0;
#X obj 875 128 r list-update-player-\$0;
#X obj 656 331 r list-update-player-\$0;
#X obj 656 363 print list-update-player;
#X obj 827 328 r update-send-dispatcher-\$0;
#X obj 827 363 print update-send-dispatcher;
#X obj 209 282 s update-return-dispatcher-\$0;
#X connect 0 0 18 0;
#X connect 1 0 8 0;
#X connect 2 0 3 0;
#X connect 4 0 3 0;
#X connect 5 0 3 1;
#X connect 6 0 5 0;
#X connect 7 0 9 0;
#X connect 8 0 14 0;
#X connect 9 0 12 0;
#X connect 10 0 14 0;
#X connect 11 0 14 0;
#X connect 13 0 2 0;
#X connect 15 0 24 0;
#X connect 16 0 19 3;
#X connect 17 0 19 0;
#X connect 18 0 2 1;
#X connect 18 1 4 0;
#X connect 18 2 41 0;
#X connect 19 0 31 0;
#X connect 20 0 19 2;
#X connect 21 0 22 0;
#X connect 21 1 34 0;
#X connect 23 0 29 0;
#X connect 24 0 19 1;
#X connect 25 0 27 3;
#X connect 26 0 27 0;
#X connect 27 0 32 0;
#X connect 28 0 27 2;
#X connect 29 1 0 0;
#X connect 30 0 21 1;
#X connect 33 0 21 0;
#X connect 35 0 19 1;
#X connect 36 0 27 1;
#X connect 37 0 38 0;
#X connect 39 0 40 0;
