#N canvas 23 91 507 406 10;
#X obj 170 216 pattern-manager;
#X obj 171 15 loadbang;
#X obj 95 288 sequencer-gui;
#X obj 96 359 midiout;
#X msg 18 288 176 \, 0 \, 0;
#X msg 135 338 1;
#X obj 135 315 loadbang;
#X obj 17 7 tgl 15 0 empty empty empty 17 7 0 10 -262144 -1 -1 0 1
;
#X obj 170 253 t l b;
#X msg 171 46 list 0 0 0 0 0 0 0 0 0 0 0 0 0 0 0 0;
#X obj 17 34 metro 205;
#X msg 193 95 list 0 0 0 0 0;
#X msg 183 71 list 0 0 1 0 0 0 0 0;
#X obj 17 61 s send-tick-\$0;
#X obj 78 253 r send-tick-\$0;
#X obj 171 129 s list-update-\$0;
#X obj 170 189 r list-update-\$0;
#X connect 0 0 8 0;
#X connect 1 0 9 0;
#X connect 2 0 3 0;
#X connect 4 0 3 0;
#X connect 5 0 3 1;
#X connect 6 0 5 0;
#X connect 7 0 10 0;
#X connect 8 0 2 1;
#X connect 8 1 4 0;
#X connect 9 0 15 0;
#X connect 10 0 13 0;
#X connect 11 0 15 0;
#X connect 12 0 15 0;
#X connect 14 0 2 0;
#X connect 16 0 0 0;
