#N struct template_midi_note float pitch float velocity float duration
float is_activated;
#N struct tpl_song float song_index float song_bpm array seq_slots
template_seq_slot;
#N struct template_seq_slot float length float is_muted float midi_track_index
array seq template_seq;
#N struct template_seq float length float midi_track_index array midi_notes
template_midi_note;
#N canvas 39 81 1214 713 10;
#X obj 170 216 pattern-manager;
#X obj 95 288 sequencer-gui;
#X obj 96 359 midiout;
#X msg 18 288 176 \, 0 \, 0;
#X obj 135 315 loadbang;
#X obj 14 14 tgl 15 0 empty empty empty 17 7 0 10 -262144 -1 -1 0 1
;
#X obj 14 68 s send-tick-\$0;
#X obj 78 253 r send-tick-\$0;
#X obj 1103 336 bng 15 250 50 0 empty empty empty 17 7 0 10 -262144
-1 -1;
#X obj 834 333 r send-tick-\$0;
#X obj 170 253 t l b l;
#X obj 931 362 eebpatternplayermidi 42 45;
#X obj 1033 331 nbx 5 14 -1e+37 1e+37 0 0 empty empty empty 0 -8 0
10 -262144 -1 -1 44 256 0;
#X obj 32 464 eeb_dispatcher;
#X obj 32 518 s list-update-gui-\$0;
#X obj 171 162 r list-update-gui-\$0;
#X obj 171 188 list split 1;
#X obj 113 439 r update-return-dispatcher-\$0;
#X obj 931 391 s update-send-dispatcher-\$0;
#X obj 32 411 r update-send-dispatcher-\$0;
#X obj 113 493 s list-update-player-\$0;
#X obj 880 285 r list-update-player-\$0;
#X obj 209 282 s update-return-dispatcher-\$0;
#X obj 14 41 metro 125;
#X obj 1033 277 loadbang;
#X obj 1109 493 bng 15 250 50 0 empty empty empty 17 7 0 10 -262144
-1 -1;
#X obj 840 490 r send-tick-\$0;
#X obj 937 519 eebpatternplayermidi 42 45;
#X obj 1039 488 nbx 5 14 -1e+37 1e+37 0 0 empty empty empty 0 -8 0
10 -262144 -1 -1 56 256 0;
#X obj 937 548 s update-send-dispatcher-\$0;
#X obj 886 442 r list-update-player-\$0;
#X obj 1039 434 loadbang;
#X obj 1092 193 bng 15 250 50 0 empty empty empty 17 7 0 10 -262144
-1 -1;
#X obj 823 190 r send-tick-\$0;
#X obj 920 219 eebpatternplayermidi 42 45;
#X obj 1022 188 nbx 5 14 -1e+37 1e+37 0 0 empty empty empty 0 -8 0
10 -262144 -1 -1 39 256 0;
#X obj 920 248 s update-send-dispatcher-\$0;
#X obj 869 142 r list-update-player-\$0;
#X obj 1022 134 loadbang;
#X obj 1079 60 bng 15 250 50 0 empty empty empty 17 7 0 10 -262144
-1 -1;
#X obj 810 57 r send-tick-\$0;
#X obj 907 86 eebpatternplayermidi 42 45;
#X obj 1009 55 nbx 5 14 -1e+37 1e+37 0 0 empty empty empty 0 -8 0 10
-262144 -1 -1 35 256 0;
#X obj 907 115 s update-send-dispatcher-\$0;
#X obj 856 9 r list-update-player-\$0;
#X obj 1009 1 loadbang;
#X msg 1022 161 39;
#X msg 1033 304 44;
#X obj 66 14 nbx 5 14 40 300 0 0 empty empty empty 0 -8 0 10 -262144
-1 -1 40 256 0;
#X msg 1039 461 56;
#X msg 1009 28 35;
#X msg 135 338 1;
#X obj 31 565 eeb_launchpad_midi_in;
#N canvas 7 23 576 447 song_manager 0;
#X obj 165 140 eeb_song_manager;
#X obj 35 83 list split 1;
#X obj 20 277 f;
#X obj 187 294 t l b;
#X obj 186 360 send;
#X obj 35 23 receive model;
#X msg 193 214 song;
#X msg 233 213 slot;
#X msg 280 213 seq;
#X msg 323 213 note;
#X obj 186 263 list prepend;
#X obj 165 177 t l b;
#X obj 206 178 t l b;
#X obj 253 179 t l b;
#X obj 296 179 t l b;
#X obj 163 106 route list;
#X msg 20 314 symbol model-\$1;
#X obj 35 50 t l l;
#X obj 162 80 list split 1;
#X connect 0 0 11 0;
#X connect 0 1 12 0;
#X connect 0 2 13 0;
#X connect 0 3 14 0;
#X connect 1 0 2 1;
#X connect 2 0 16 0;
#X connect 3 0 4 0;
#X connect 3 1 2 0;
#X connect 5 0 17 0;
#X connect 6 0 10 1;
#X connect 7 0 10 1;
#X connect 8 0 10 1;
#X connect 9 0 10 1;
#X connect 10 0 3 0;
#X connect 11 0 10 0;
#X connect 11 1 6 0;
#X connect 12 0 10 0;
#X connect 12 1 7 0;
#X connect 13 0 10 0;
#X connect 13 1 8 0;
#X connect 14 0 10 0;
#X connect 14 1 9 0;
#X connect 15 0 0 0;
#X connect 16 0 4 1;
#X connect 17 0 18 0;
#X connect 17 1 1 0;
#X connect 18 1 15 0;
#X restore 31 602 pd song_manager;
#N canvas 617 23 563 537 test_song_manager 1;
#X msg 222 239 note set 1 3 80 90 1000 0;
#X msg 211 212 note set 1 3 60 120 300 1;
#X msg 196 188 note get 1 3;
#X msg 160 154 seq set 2 8 16;
#X msg 145 129 seq get 2;
#X msg 86 72 seq_slot get 2;
#X msg 103 95 seq_slot set 2 32 1 8;
#X msg 33 16 song get 0;
#X msg 44 40 song set 1 128;
#X obj 60 350 eeb_model_event;
#X obj 60 417 print module-1;
#X obj 165 350 eeb_model_event;
#X obj 165 417 print module-2;
#X msg 276 321 note set 1 3 80 90 1000 0;
#X msg 267 290 note set 1 3 60 120 300 1;
#X msg 252 266 note get 1 3;
#X connect 0 0 9 0;
#X connect 1 0 9 0;
#X connect 2 0 9 0;
#X connect 3 0 9 0;
#X connect 4 0 9 0;
#X connect 5 0 9 0;
#X connect 6 0 9 0;
#X connect 7 0 9 0;
#X connect 8 0 9 0;
#X connect 9 0 10 0;
#X connect 11 0 12 0;
#X connect 13 0 11 0;
#X connect 14 0 11 0;
#X connect 15 0 11 0;
#X restore 32 652 pd test_song_manager;
#X connect 0 0 10 0;
#X connect 1 0 2 0;
#X connect 3 0 2 0;
#X connect 4 0 51 0;
#X connect 5 0 23 0;
#X connect 7 0 1 0;
#X connect 8 0 11 3;
#X connect 9 0 11 0;
#X connect 10 0 1 1;
#X connect 10 1 3 0;
#X connect 10 2 22 0;
#X connect 11 0 18 0;
#X connect 12 0 11 2;
#X connect 13 0 14 0;
#X connect 13 1 20 0;
#X connect 15 0 16 0;
#X connect 16 1 0 0;
#X connect 17 0 13 1;
#X connect 19 0 13 0;
#X connect 21 0 11 1;
#X connect 23 0 6 0;
#X connect 24 0 47 0;
#X connect 25 0 27 3;
#X connect 26 0 27 0;
#X connect 27 0 29 0;
#X connect 28 0 27 2;
#X connect 30 0 27 1;
#X connect 31 0 49 0;
#X connect 32 0 34 3;
#X connect 33 0 34 0;
#X connect 34 0 36 0;
#X connect 35 0 34 2;
#X connect 37 0 34 1;
#X connect 38 0 46 0;
#X connect 39 0 41 3;
#X connect 40 0 41 0;
#X connect 41 0 43 0;
#X connect 42 0 41 2;
#X connect 44 0 41 1;
#X connect 45 0 50 0;
#X connect 46 0 35 0;
#X connect 47 0 12 0;
#X connect 48 0 23 1;
#X connect 49 0 28 0;
#X connect 50 0 42 0;
#X connect 51 0 2 1;
