#N canvas 413 313 518 501 10;
#X obj 172 174 pattern-manager;
#X obj 171 15 loadbang;
#X obj 97 246 sequencer-gui;
#X obj 98 317 midiout;
#X msg 20 245 176 \, 0 \, 0;
#X msg 137 296 1;
#X obj 137 273 loadbang;
#X obj 95 13 tgl 15 0 empty empty empty 17 7 0 10 -262144 -1 -1 1 1
;
#X obj 172 211 t l b;
#X obj 70 190 bng 15 250 50 0 empty empty empty 17 7 0 10 -262144 -1
-1;
#X obj 228 215 print;
#X msg 171 46 list 0 0 0 0 0 0 0 0 0 0 0 0 0 0 0 0;
#X obj 95 55 metro 205;
#X msg 199 74 list 0 0 0 0 0 0 0 0;
#X msg 215 124 list 0 0 0 0 0;
#X connect 0 0 10 0;
#X connect 0 0 8 0;
#X connect 1 0 11 0;
#X connect 2 0 3 0;
#X connect 4 0 3 0;
#X connect 5 0 3 1;
#X connect 6 0 5 0;
#X connect 7 0 12 0;
#X connect 8 0 2 1;
#X connect 8 1 4 0;
#X connect 9 0 2 0;
#X connect 11 0 0 0;
#X connect 12 0 2 0;
#X connect 13 0 0 0;
#X connect 14 0 0 0;
