#N canvas 570 105 622 506 10;
#X obj 10 10 tgl 60 0 \$0sdud \$0rdud empty 17 7 1 10 -128992 -128992
-128992 0 1;
#X obj 102 112 select 1;
#X obj 101 11 loadbang;
#X obj 102 213 expr $f1 + $f2 \;;
#X obj 102 254 select 0 1 2 3;
#X msg 102 340 color \$1 \$1 \$1;
#X obj 102 141 t b;
#X obj 102 168 f 2;
#X obj 147 167 f 0;
#X obj 147 140 t b;
#X obj 164 11 inlet;
#X obj 208 11 inlet;
#X obj 164 40 f 1;
#X obj 208 40 f 0;
#X obj 102 75 f;
#X obj 163 76 t b f;
#X obj 172 300 f 6;
#X obj 207 300 f 16;
#X obj 139 300 f 10;
#X obj 101 40 f 0;
#X obj 102 300 f 1;
#X connect 0 0 14 0;
#X connect 1 0 6 0;
#X connect 1 1 9 0;
#X connect 2 0 19 0;
#X connect 3 0 4 0;
#X connect 4 0 20 0;
#X connect 4 1 18 0;
#X connect 4 2 16 0;
#X connect 4 3 17 0;
#X connect 5 0 0 0;
#X connect 6 0 7 0;
#X connect 7 0 3 0;
#X connect 8 0 3 0;
#X connect 9 0 8 0;
#X connect 10 0 12 0;
#X connect 11 0 13 0;
#X connect 12 0 15 0;
#X connect 13 0 15 0;
#X connect 14 0 1 0;
#X connect 15 0 14 0;
#X connect 15 1 3 1;
#X connect 16 0 5 0;
#X connect 17 0 5 0;
#X connect 18 0 5 0;
#X connect 19 0 14 0;
#X connect 20 0 5 0;
#X coords 0 -1 1 1 60 60 2 10 10;
