#N canvas 570 105 588 436 10;
#X obj 10 10 tgl 60 0 \$0sdud \$0rdud empty 17 7 1 10 -241291 -241291
-1 0 1;
#X obj 66 248 outlet;
#X obj 130 129 select 1;
#X msg 82 180 color 15 15;
#X msg 202 180 color 19 19;
#X connect 0 0 2 0;
#X connect 0 0 1 0;
#X connect 2 0 4 0;
#X connect 2 1 3 0;
#X connect 3 0 0 0;
#X connect 4 0 0 0;
#X coords 0 -1 1 1 60 60 2 10 10;
