#N canvas 603 176 656 437 10;
#X obj 49 319 noteout;
#X obj 49 266 makenote;
#X obj 77 155 delay 500;
#X obj 50 119 t l b;
#X msg 50 71 list 8 80 2000;
#X msg 68 23 list 56 80 2000;
#X msg 76 197 list 119 60 200;
#X connect 1 0 0 0;
#X connect 1 1 0 1;
#X connect 2 0 6 0;
#X connect 3 0 1 0;
#X connect 3 1 2 0;
#X connect 4 0 3 0;
#X connect 5 0 3 0;
#X connect 6 0 1 0;
