#N canvas 55 123 450 323 10;
#X obj 106 106 launchpad_note_number_to_step_index;
#X msg 38 47 4;
#X floatatom 106 151 5 0 0 0 - - -, f 5;
#X obj 47 284 tgl 15 0 empty empty empty 17 7 0 10 -262144 -1 -1 0
1;
#X msg 72 47 16;
#X msg 106 47 35;
#X msg 137 47 53;
#X obj 119 281 tgl 15 0 empty empty empty 17 7 0 10 -262144 -1 -1 0
1;
#X obj 189 281 tgl 15 0 empty empty empty 17 7 0 10 -262144 -1 -1 0
1;
#X obj 260 281 tgl 15 0 empty empty empty 17 7 0 10 -262144 -1 -1 1
1;
#X obj 47 202 expr if($f1 == 4 && $f2 == 4 \, 1 \, 0) \; if($f1 ==
16 && $f2 == 8 \, 1 \, 0) \; if($f1 == 35 && $f2 == 19 \, 1 \, 0) \;
if($f1 == 53 && $f2 == 29 \, 1 \, 0);
#X connect 0 0 2 0;
#X connect 1 0 0 0;
#X connect 1 0 10 0;
#X connect 2 0 10 1;
#X connect 4 0 0 0;
#X connect 4 0 10 0;
#X connect 5 0 0 0;
#X connect 5 0 10 0;
#X connect 6 0 0 0;
#X connect 6 0 10 0;
#X connect 10 0 3 0;
#X connect 10 1 7 0;
#X connect 10 2 8 0;
#X connect 10 3 9 0;
