#N canvas 604 109 450 300 10;
#X obj 167 32 inlet;
#X obj 167 230 outlet;
#X obj 167 59 t f;
#X obj 167 132 i;
#X obj 167 193 +;
#X obj 167 87 expr $f1/16 \; $f1 % 16;
#X obj 167 162 * 8;
#X connect 0 0 2 0;
#X connect 2 0 5 0;
#X connect 3 0 6 0;
#X connect 4 0 1 0;
#X connect 5 0 3 0;
#X connect 5 1 4 1;
#X connect 6 0 4 0;
