#N canvas 158 128 584 514 10;
#X msg 7 19 name yuhei gui eeboo;
#X obj 288 101 f 1;
#X obj 306 158 + 1;
#X obj 338 208 + 1;
#X obj 306 181 t f f;
#X obj 287 134 t f f f;
#X obj 392 161 + 2;
#X obj 134 163 eeb_get_element_at_index;
#X obj 162 209 eeb_get_element_at_index;
#X obj 197 234 eeb_get_element_at_index;
#X obj 432 162 + 3;
#X obj 393 196 f;
#X obj 434 197 f;
#X obj 161 128 t l l l b;
#X msg 159 20 list Class symbol name float id array classes ClassType
float index float number symbol trackName array children Child;
#X msg 358 84 1;
#X obj 392 245 bng 15 250 50 0 empty empty empty 17 7 0 10 -262144
-1 -1;
#X obj 438 247 bng 15 250 50 0 empty empty empty 17 7 0 10 -262144
-1 -1;
#X msg 136 321 children;
#X msg 136 256 set \$1;
#X obj 136 286 t b anything;
#X obj 136 352 route float symbol array;
#X connect 1 0 5 0;
#X connect 2 0 4 0;
#X connect 3 0 9 1;
#X connect 4 0 8 1;
#X connect 4 1 3 0;
#X connect 5 0 7 1;
#X connect 5 1 2 0;
#X connect 5 2 6 0;
#X connect 5 2 10 0;
#X connect 6 0 11 1;
#X connect 7 0 19 0;
#X connect 10 0 12 1;
#X connect 11 0 1 1;
#X connect 12 0 1 1;
#X connect 13 0 8 0;
#X connect 13 1 7 0;
#X connect 13 2 9 0;
#X connect 13 3 1 0;
#X connect 14 0 13 0;
#X connect 15 0 1 1;
#X connect 16 0 11 0;
#X connect 17 0 12 0;
#X connect 18 0 21 0;
#X connect 19 0 20 0;
#X connect 20 0 18 0;
#X connect 20 1 18 0;
#X connect 21 0 16 0;
#X connect 21 1 16 0;
#X connect 21 2 17 0;
