#N canvas 621 50 1158 887 10;
#X obj 51 373 list split 1;
#X obj 52 192 until;
#X obj 52 230 list append;
#X obj 172 269 bang;
#X text 142 101 First store list \, then start the loop;
#X text 126 187 "until" bangs its output until told to stop by a "bang"
to its right inlet.;
#X text 140 233 Store the remaining list.;
#X text 141 250 third outlet of "split" tells us to stop.;
#X text 170 333 Second outlet of "split" becomes the new list for "list
append" above.;
#X text 409 542 note on prefix;
#X obj 303 516 list prepend;
#X obj 404 632 t l;
#X obj 303 644 list prepend;
#X obj 230 669 list append;
#X obj 303 542 list prepend 144;
#X obj 195 922 midiout;
#X msg 241 900 1;
#X obj 241 876 loadbang;
#X obj 193 813 list split 1;
#X obj 193 744 until;
#X obj 193 782 list append;
#X obj 229 711 t b l;
#X obj 262 842 bang;
#X msg 86 64 1 1 1 1 1 1 1 0;
#X msg 109 888 176 \, 0 \, 0;
#X msg 197 65 1 0 1 0 1 0 1 0;
#X msg 310 64 1 0 0 0 0 0 1 0;
#X obj 637 350 struct step list l;
#X obj 638 305 struct steps step;
#X obj 86 99 t b l b;
#X obj 125 129 list;
#X obj 291 729 r init-list;
#X obj 372 610 r init-list;
#X obj 125 158 s init-list;
#X obj 583 133 cyclone/counter 7;
#X obj 583 168 t f f;
#X obj 610 207 hradio 15 1 0 8 empty empty empty 0 -8 0 10 -262144
-1 -1 5;
#X obj 583 51 tgl 15 0 empty empty empty 17 7 0 10 -262144 -1 -1 0
1;
#X obj 824 100 cyclone/counter 7;
#X obj 852 76 loadbang;
#X text 909 78 init counter on load;
#X text 935 101 generate note pitch;
#X obj 551 206 s metro;
#X obj 86 11 r metro;
#X obj 293 373 r count;
#X obj 824 127 s count;
#X obj 303 564 t l b;
#X obj 384 490 r count;
#X obj 768 75 r nextcount;
#X obj 330 586 s nextcount;
#X obj 583 92 metro 500;
#X obj 172 301 s end-list;
#X obj 229 617 r end-list;
#X text 251 302 Send bang when list iteration is over;
#X text 302 394 get velocity value: - Active step => RED(15) - Current
step => GREEN(63) - Active and Curent step => GREEN(60) - inactive
step => OFF(0);
#X obj 415 730 print current step;
#X obj 190 531 select -1;
#X obj 430 679 print end list;
#X obj 171 371 r tick;
#X obj 87 38 t b f;
#X obj 175 36 s tick;
#X obj 51 399 expr $f1 \; $f2 \; $f3 \; if($f2 == $f3 && $f1 == 1 \,
60 \, -1) \; if($f2 == $f3 && $f1 != 1 \, 63 \, -1) \; if($f2 != $f3
&& $f1 == 1 \, 15 \, -1) \; if($f2 != $f3 && $f1 == 0 \, $f1 \, -1)
\;;
#X obj 367 454 print last;
#X obj 23 519 print f1;
#X obj 70 568 print f2;
#X obj 71 668 print f3;
#X connect 0 0 61 0;
#X connect 0 1 2 1;
#X connect 0 2 3 0;
#X connect 1 0 2 0;
#X connect 2 0 0 0;
#X connect 3 0 1 1;
#X connect 3 0 51 0;
#X connect 10 0 14 0;
#X connect 11 0 12 1;
#X connect 12 0 11 0;
#X connect 12 0 13 1;
#X connect 13 0 21 0;
#X connect 13 0 57 0;
#X connect 14 0 46 0;
#X connect 16 0 15 1;
#X connect 17 0 16 0;
#X connect 18 0 15 0;
#X connect 18 1 20 1;
#X connect 18 2 22 0;
#X connect 19 0 20 0;
#X connect 20 0 18 0;
#X connect 21 0 19 0;
#X connect 21 1 20 1;
#X connect 22 0 19 1;
#X connect 23 0 29 0;
#X connect 24 0 15 0;
#X connect 25 0 29 0;
#X connect 26 0 29 0;
#X connect 29 0 1 0;
#X connect 29 1 2 1;
#X connect 29 2 30 0;
#X connect 30 0 33 0;
#X connect 31 0 20 1;
#X connect 32 0 12 1;
#X connect 34 0 35 0;
#X connect 35 0 42 0;
#X connect 35 1 36 0;
#X connect 37 0 50 0;
#X connect 38 0 45 0;
#X connect 39 0 38 0;
#X connect 43 0 59 0;
#X connect 44 0 61 2;
#X connect 46 0 12 0;
#X connect 46 1 49 0;
#X connect 47 0 10 1;
#X connect 48 0 38 0;
#X connect 50 0 34 0;
#X connect 52 0 13 0;
#X connect 56 1 10 0;
#X connect 58 0 61 1;
#X connect 59 0 23 0;
#X connect 59 1 60 0;
#X connect 61 0 63 0;
#X connect 61 1 64 0;
#X connect 61 2 65 0;
#X connect 61 3 56 0;
#X connect 61 4 56 0;
#X connect 61 5 56 0;
#X connect 61 6 62 0;
