#N canvas 251 23 1158 655 10;
#X obj 51 373 list split 1;
#X obj 52 192 until;
#X obj 52 230 list append;
#X obj 172 269 bang;
#X text 142 101 First store list \, then start the loop;
#X text 126 187 "until" bangs its output until told to stop by a "bang"
to its right inlet.;
#X text 140 233 Store the remaining list.;
#X text 141 250 third outlet of "split" tells us to stop.;
#X text 170 333 Second outlet of "split" becomes the new list for "list
append" above.;
#X text 445 569 note on prefix;
#X obj 339 516 list prepend;
#X obj 440 659 t l;
#X obj 339 671 list prepend;
#X obj 266 696 list append;
#X obj 339 569 list prepend 144;
#X obj 195 922 midiout;
#X msg 241 900 1;
#X obj 278 893 loadbang;
#X obj 229 840 list split 1;
#X obj 229 771 until;
#X obj 229 809 list append;
#X obj 265 738 t b l;
#X obj 298 869 bang;
#X msg 86 64 1 1 1 1 1 1 1 0;
#X msg 109 888 176 \, 0 \, 0;
#X msg 197 65 1 0 1 0 1 0 1 0;
#X msg 310 64 1 0 0 0 0 0 1 0;
#X obj 86 99 t b l b;
#X obj 125 129 list;
#X obj 327 756 r init-list;
#X obj 408 637 r init-list;
#X obj 125 158 s init-list;
#X obj 583 133 cyclone/counter 7;
#X obj 583 168 t f f;
#X obj 610 207 hradio 15 1 0 8 empty empty empty 0 -8 0 10 -262144
-1 -1 6;
#X obj 583 51 tgl 15 0 empty empty empty 17 7 0 10 -262144 -1 -1 0
1;
#X obj 551 206 s metro;
#X obj 86 11 r metro;
#X obj 293 373 r count;
#X obj 583 92 metro 500;
#X obj 172 301 s end-list;
#X obj 265 644 r end-list;
#X text 251 302 Send bang when list iteration is over;
#X obj 451 757 print current step;
#X obj 171 371 r tick;
#X obj 87 38 t b f;
#X obj 175 36 s tick;
#X obj 845 373 pack f f f;
#X obj 339 543 t l b;
#X obj 871 442 print values;
#X floatatom 634 625 0 0 0 0 - - -;
#X msg 633 541 bang;
#X obj 633 566 float;
#X obj 634 596 + \$1;
#X obj 634 662 expr if( $f1 > 6 \, -7 \, 1) \;;
#X text 302 394 get velocity value: - Active step => RED(15) - Current
step => GREEN(63) - Active and Curent step => GREEN(60) - Inactive
step => OFF(0);
#X obj 49 403 expr $f1 \; $f2 \; $f3 \; if($f2 == $f3 && $f1 == 1 \,
60 \, -1) \; if($f2 == $f3 && $f1 == 0 \, 63 \, -1) \; if($f2 != $f3
&& $f1 == 1 \, 15 \, -1) \; if($f2 != $f3 && $f1 != 1 \, 0 \, -1) \;
;
#X obj 82 541 pack f f f f f f f;
#X obj 81 610 print expr;
#X connect 0 0 47 0;
#X connect 0 0 56 0;
#X connect 0 1 2 1;
#X connect 0 2 3 0;
#X connect 1 0 2 0;
#X connect 2 0 0 0;
#X connect 3 0 1 1;
#X connect 3 0 40 0;
#X connect 10 0 48 0;
#X connect 11 0 12 1;
#X connect 12 0 11 0;
#X connect 12 0 13 1;
#X connect 13 0 21 0;
#X connect 13 0 43 0;
#X connect 14 0 12 0;
#X connect 16 0 15 1;
#X connect 17 0 16 0;
#X connect 18 0 15 0;
#X connect 18 1 20 1;
#X connect 18 2 22 0;
#X connect 19 0 20 0;
#X connect 20 0 18 0;
#X connect 21 0 19 0;
#X connect 21 1 20 1;
#X connect 22 0 19 1;
#X connect 23 0 27 0;
#X connect 24 0 15 0;
#X connect 25 0 27 0;
#X connect 26 0 27 0;
#X connect 27 0 1 0;
#X connect 27 1 2 1;
#X connect 27 2 28 0;
#X connect 28 0 31 0;
#X connect 29 0 20 1;
#X connect 30 0 12 1;
#X connect 32 0 33 0;
#X connect 33 0 36 0;
#X connect 33 1 34 0;
#X connect 35 0 39 0;
#X connect 37 0 45 0;
#X connect 38 0 47 2;
#X connect 38 0 56 2;
#X connect 39 0 32 0;
#X connect 41 0 13 0;
#X connect 44 0 47 1;
#X connect 44 0 56 1;
#X connect 45 0 25 0;
#X connect 45 1 46 0;
#X connect 47 0 49 0;
#X connect 48 0 14 0;
#X connect 48 1 51 0;
#X connect 50 0 54 0;
#X connect 50 0 10 1;
#X connect 50 0 56 2;
#X connect 51 0 52 0;
#X connect 52 0 53 0;
#X connect 53 0 50 0;
#X connect 53 0 52 1;
#X connect 54 0 53 1;
#X connect 56 0 57 0;
#X connect 56 0 10 0;
#X connect 56 1 57 1;
#X connect 56 2 57 2;
#X connect 56 3 57 3;
#X connect 56 4 57 4;
#X connect 56 5 57 5;
#X connect 56 6 57 6;
#X connect 57 0 58 0;
