#N canvas 528 -1057 1109 1029 10;
#X obj 51 369 list split 1;
#X obj 52 192 until;
#X obj 52 230 list append;
#X obj 181 370 bang;
#X text 142 101 First store list \, then start the loop;
#X text 126 187 "until" bangs its output until told to stop by a "bang"
to its right inlet.;
#X text 140 233 Store the remaining list.;
#X text 226 369 third outlet of "split" tells us to stop.;
#X text 133 390 Second outlet of "split" becomes the new list for "list
append" above.;
#X text 346 652 note on prefix;
#X obj 240 611 list prepend;
#X text 182 462 get velocity value \, 15 is RED;
#X obj 341 742 t l;
#X obj 240 754 list prepend;
#X obj 177 779 list append;
#X obj 240 652 list prepend 144;
#X obj 143 1027 midiout;
#X msg 182 1002 1;
#X obj 182 978 loadbang;
#X obj 141 918 list split 1;
#X obj 141 849 until;
#X obj 141 887 list append;
#X obj 177 816 t b l;
#X obj 210 947 bang;
#X msg 86 64 1 1 1 1 1 1 1 0;
#X msg 57 993 176 \, 0 \, 0;
#X msg 197 65 1 0 1 0 1 0 1 0;
#X msg 310 64 1 0 0 0 0 0 1 0;
#X obj 637 350 struct step list l;
#X obj 638 305 struct steps step;
#X obj 86 99 t b l b;
#X obj 125 129 list;
#X obj 239 834 r init-list;
#X obj 309 720 r init-list;
#X obj 125 158 s init-list;
#X obj 583 133 cyclone/counter 7;
#X obj 583 168 t f f;
#X obj 610 207 hradio 15 1 0 8 empty empty empty 0 -8 0 10 -262144
-1 -1 7;
#X obj 583 51 tgl 15 0 empty empty empty 17 7 0 10 -262144 -1 -1 0
1;
#X obj 86 38 t b;
#X obj 824 100 cyclone/counter 7;
#X obj 852 76 loadbang;
#X text 909 78 init counter on load;
#X text 935 101 generate note pitch;
#X obj 551 206 s metro;
#X obj 87 426 r metro;
#X obj 86 11 r metro;
#X obj 152 426 r count;
#X obj 824 127 s count;
#X obj 240 674 t l b;
#X obj 309 584 r count;
#X obj 768 75 r nextcount;
#X obj 267 696 s nextcount;
#X obj 583 92 metro 500;
#X obj 85 572 select 60;
#X obj 163 571 select 63;
#X obj 92 628 print;
#X obj 14 456 expr $f1 \; $f2 \; $f3 \; if($f2 == $f3 && $f1 == $f2
\, 60 \, 0) \; if($f2 == $f3 \, 63 \, 0) \; if($f1 == 1 \, 15 \, 0)
\;;
#X floatatom 471 464 5 0 0 0 - - -, f 5;
#X connect 0 0 57 0;
#X connect 0 1 2 1;
#X connect 0 2 3 0;
#X connect 1 0 2 0;
#X connect 2 0 0 0;
#X connect 3 0 1 1;
#X connect 3 0 14 0;
#X connect 10 0 15 0;
#X connect 12 0 13 1;
#X connect 13 0 12 0;
#X connect 13 0 14 1;
#X connect 14 0 22 0;
#X connect 15 0 49 0;
#X connect 17 0 16 1;
#X connect 18 0 17 0;
#X connect 19 0 16 0;
#X connect 19 1 21 1;
#X connect 19 2 23 0;
#X connect 20 0 21 0;
#X connect 21 0 19 0;
#X connect 22 0 20 0;
#X connect 22 1 21 1;
#X connect 23 0 20 1;
#X connect 24 0 30 0;
#X connect 25 0 16 0;
#X connect 26 0 30 0;
#X connect 27 0 30 0;
#X connect 30 0 1 0;
#X connect 30 1 2 1;
#X connect 30 2 31 0;
#X connect 31 0 34 0;
#X connect 32 0 21 1;
#X connect 33 0 13 1;
#X connect 35 0 36 0;
#X connect 36 0 44 0;
#X connect 36 1 37 0;
#X connect 38 0 53 0;
#X connect 39 0 24 0;
#X connect 40 0 48 0;
#X connect 41 0 40 0;
#X connect 45 0 57 1;
#X connect 45 0 58 0;
#X connect 46 0 39 0;
#X connect 47 0 57 2;
#X connect 49 0 13 0;
#X connect 49 1 52 0;
#X connect 50 0 10 1;
#X connect 51 0 40 0;
#X connect 53 0 35 0;
#X connect 57 3 56 0;
#X connect 57 4 55 0;
#X connect 57 5 10 0;
