#N canvas 31 20 730 876 10;
#X msg 7 19 name yuhei gui eeboo;
#X obj 289 178 f 1;
#X obj 307 235 + 1;
#X obj 339 285 + 1;
#X obj 307 258 t f f;
#X obj 288 211 t f f f;
#X obj 470 257 + 2;
#X obj 135 240 eeb_get_element_at_index;
#X obj 163 286 eeb_get_element_at_index;
#X obj 198 311 eeb_get_element_at_index;
#X obj 510 258 + 3;
#X obj 471 292 f;
#X obj 512 293 f;
#X obj 162 205 t l l l b;
#X msg 159 20 list Class symbol name float id array classes ClassType
float index float number symbol trackName array children Child;
#X msg 319 159 1;
#X obj 470 341 bng 15 250 50 0 empty empty empty 17 7 0 10 -262144
-1 -1;
#X obj 516 343 bng 15 250 50 0 empty empty empty 17 7 0 10 -262144
-1 -1;
#X msg 137 398 array;
#X msg 137 333 set \$1;
#X obj 137 431 route float symbol array;
#X obj 137 363 t b anything anything;
#X msg 98 519 symbol float;
#X msg 201 519 symbol symbol;
#X msg 304 519 symbol array;
#X obj 246 613 symbol;
#X obj 201 552 symbol;
#X obj 201 647 pack s s;
#X obj 201 583 t s b, f 8;
#X obj 351 620 symbol;
#X obj 304 554 symbol;
#X obj 304 648 pack s s s, f 17;
#X obj 304 593 t s b b, f 16;
#X obj 397 620 symbol;
#X obj 161 172 t l l;
#X obj 417 104 list length;
#X obj 161 143 list;
#X obj 205 91 t b f;
#X obj 390 134 moses;
#X obj 159 90 t b l;
#X obj 95 126 bng 15 250 50 0 empty empty empty 17 7 0 10 -262144 -1
-1;
#X obj 137 467 t b b;
#X obj 184 468 t b b;
#X obj 231 468 t b b;
#N canvas 894 341 450 300 primitive 1;
#X obj 30 28 inlet;
#X obj 31 255 outlet;
#X msg 31 117 obj 0 0 set \$1;
#X connect 0 0 2 0;
#X connect 2 0 1 0;
#X restore 191 714 pd primitive;
#N canvas 1005 393 450 310 struct 1;
#X obj 30 28 inlet;
#X obj 36 231 outlet;
#X restore 313 712 pd struct;
#X connect 1 0 5 0;
#X connect 2 0 4 0;
#X connect 3 0 9 1;
#X connect 4 0 8 1;
#X connect 4 1 3 0;
#X connect 5 0 7 1;
#X connect 5 1 2 0;
#X connect 5 2 6 0;
#X connect 5 2 10 0;
#X connect 6 0 11 1;
#X connect 7 0 19 0;
#X connect 8 0 25 1;
#X connect 8 0 29 1;
#X connect 9 0 33 1;
#X connect 10 0 12 1;
#X connect 11 0 38 0;
#X connect 12 0 38 0;
#X connect 13 0 7 0;
#X connect 13 1 8 0;
#X connect 13 2 9 0;
#X connect 13 3 1 0;
#X connect 14 0 39 0;
#X connect 15 0 1 1;
#X connect 16 0 11 0;
#X connect 17 0 12 0;
#X connect 18 0 20 0;
#X connect 19 0 21 0;
#X connect 20 0 41 0;
#X connect 20 1 42 0;
#X connect 20 2 43 0;
#X connect 21 0 18 0;
#X connect 21 1 18 0;
#X connect 22 0 26 0;
#X connect 23 0 26 0;
#X connect 24 0 30 0;
#X connect 25 0 27 1;
#X connect 26 0 28 0;
#X connect 27 0 44 0;
#X connect 28 0 27 0;
#X connect 28 1 25 0;
#X connect 29 0 31 1;
#X connect 30 0 32 0;
#X connect 31 0 45 0;
#X connect 32 0 31 0;
#X connect 32 1 29 0;
#X connect 32 2 33 0;
#X connect 33 0 31 2;
#X connect 34 0 13 0;
#X connect 34 1 35 0;
#X connect 35 0 38 1;
#X connect 36 0 34 0;
#X connect 37 0 40 0;
#X connect 37 1 1 1;
#X connect 38 0 37 0;
#X connect 39 0 36 0;
#X connect 39 1 36 1;
#X connect 40 0 36 0;
#X connect 41 0 16 0;
#X connect 41 1 22 0;
#X connect 42 0 16 0;
#X connect 42 1 23 0;
#X connect 43 0 17 0;
#X connect 43 1 24 0;
