#N canvas 631 40 730 690 10;
#X msg 192 57 list Class symbol name float id array classes ClassType
float index float number symbol trackName array children Child;
#N canvas 342 23 715 689 prop-parser 0;
#X obj 293 174 f 1;
#X obj 311 231 + 1;
#X obj 343 281 + 1;
#X obj 311 254 t f f;
#X obj 292 207 t f f f;
#X obj 474 253 + 2;
#X obj 139 236 eeb_get_element_at_index;
#X obj 169 277 eeb_get_element_at_index;
#X obj 202 307 eeb_get_element_at_index;
#X obj 514 254 + 3;
#X obj 475 288 f;
#X obj 516 289 f;
#X obj 166 201 t l l l b;
#X msg 323 155 1;
#X obj 474 337 bng 15 250 50 0 empty empty empty 17 7 0 10 -262144
-1 -1;
#X obj 520 339 bng 15 250 50 0 empty empty empty 17 7 0 10 -262144
-1 -1;
#X msg 141 394 array;
#X msg 141 329 set \$1;
#X obj 141 427 route float symbol array;
#X obj 141 359 t b anything anything;
#X msg 102 515 symbol float;
#X msg 205 515 symbol symbol;
#X msg 308 515 symbol array;
#X obj 250 609 symbol;
#X obj 205 548 symbol;
#X obj 205 643 pack s s;
#X obj 205 579 t s b, f 8;
#X obj 355 616 symbol;
#X obj 308 550 symbol;
#X obj 308 644 pack s s s, f 17;
#X obj 308 589 t s b b, f 16;
#X obj 401 616 symbol;
#X obj 165 168 t l l;
#X obj 308 81 list length;
#X obj 165 139 list;
#X obj 281 146 t b f;
#X obj 281 111 moses;
#X obj 130 115 bng 15 250 50 0 empty empty empty 17 7 0 10 -262144
-1 -1;
#X obj 141 463 t b b;
#X obj 188 464 t b b;
#X obj 235 464 t b b;
#X obj 165 43 inlet;
#X obj 205 679 outlet;
#X obj 308 679 outlet;
#X obj 165 87 t b l b;
#X connect 0 0 4 0;
#X connect 1 0 3 0;
#X connect 2 0 8 1;
#X connect 3 0 7 1;
#X connect 3 1 2 0;
#X connect 4 0 6 1;
#X connect 4 1 1 0;
#X connect 4 2 5 0;
#X connect 4 2 9 0;
#X connect 5 0 10 1;
#X connect 6 0 17 0;
#X connect 7 0 23 1;
#X connect 7 0 27 1;
#X connect 8 0 31 1;
#X connect 9 0 11 1;
#X connect 10 0 36 0;
#X connect 11 0 36 0;
#X connect 12 0 6 0;
#X connect 12 1 7 0;
#X connect 12 2 8 0;
#X connect 12 3 0 0;
#X connect 13 0 0 1;
#X connect 14 0 10 0;
#X connect 15 0 11 0;
#X connect 16 0 18 0;
#X connect 17 0 19 0;
#X connect 18 0 38 0;
#X connect 18 1 39 0;
#X connect 18 2 40 0;
#X connect 19 0 16 0;
#X connect 19 1 16 0;
#X connect 20 0 24 0;
#X connect 21 0 24 0;
#X connect 22 0 28 0;
#X connect 23 0 25 1;
#X connect 24 0 26 0;
#X connect 25 0 42 0;
#X connect 26 0 25 0;
#X connect 26 1 23 0;
#X connect 27 0 29 1;
#X connect 28 0 30 0;
#X connect 29 0 43 0;
#X connect 30 0 29 0;
#X connect 30 1 27 0;
#X connect 30 2 31 0;
#X connect 31 0 29 2;
#X connect 32 0 12 0;
#X connect 32 1 33 0;
#X connect 33 0 36 1;
#X connect 34 0 32 0;
#X connect 35 0 37 0;
#X connect 35 1 0 1;
#X connect 36 0 35 0;
#X connect 37 0 34 0;
#X connect 38 0 14 0;
#X connect 38 1 20 0;
#X connect 39 0 14 0;
#X connect 39 1 21 0;
#X connect 40 0 15 0;
#X connect 40 1 22 0;
#X connect 41 0 44 0;
#X connect 44 0 34 0;
#X connect 44 1 34 1;
#X connect 44 2 13 0;
#X restore 192 130 pd prop-parser;
#N canvas 514 277 336 247 gen-primitive 0;
#X obj 30 11 inlet;
#X obj 30 221 outlet;
#X msg 30 169 add2 obj 0 \$3 set \$2 \, addcomma;
#X obj 30 72 list append;
#X obj 142 112 t f f;
#X obj 30 36 t anything b;
#X obj 143 65 f 0;
#X msg 158 39 0;
#X obj 159 10 inlet;
#X obj 143 90 + 25;
#X connect 0 0 5 0;
#X connect 2 0 1 0;
#X connect 3 0 2 0;
#X connect 4 0 3 1;
#X connect 4 1 6 1;
#X connect 5 0 3 0;
#X connect 5 1 6 0;
#X connect 6 0 9 0;
#X connect 7 0 6 1;
#X connect 8 0 7 0;
#X connect 9 0 4 0;
#X restore 192 169 pd gen-primitive;
#N canvas 1005 393 450 310 gen-struct 0;
#X obj 30 28 inlet;
#X obj 36 231 outlet;
#X restore 302 170 pd gen-struct;
#X msg 273 229 set;
#X msg 192 257 \,;
#X obj 192 296 s pd-list-parse-test.pd;
#X obj 192 204 t b anything b;
#X obj 310 109 bng 31 250 50 0 empty empty empty 17 7 0 10 -262144
-1 -1;
#X connect 0 0 1 0;
#X connect 1 0 2 0;
#X connect 1 1 3 0;
#X connect 2 0 7 0;
#X connect 4 0 5 0;
#X connect 5 0 6 0;
#X connect 7 0 5 0;
#X connect 7 1 5 0;
#X connect 7 2 4 0;
#X connect 8 0 2 1;
