#N canvas 836 112 547 493 10;
#X obj 159 179 list;
#X obj 159 104 until;
#X obj 158 459 outlet;
#X obj 159 245 list length;
#X obj 159 215 t l l l;
#X obj 158 367 list;
#X msg 159 149 list 0;
#X obj 223 415 list;
#X obj 223 438 s resetlist;
#X obj 214 151 r resetlist;
#X obj 158 306 select 1;
#X obj 158 333 t b b;
#X obj 158 394 t l b;
#X obj 203 344 r resetlist;
#X obj 159 49 bng 15 250 50 0 empty empty empty 17 7 0 10 -262144 -1
-1;
#X obj 317 54 loadbang;
#X obj 317 98 f \$1;
#X obj 399 54 inlet;
#X obj 399 95 f;
#X obj 197 52 r length;
#X obj 240 245 r length;
#X obj 158 279 >=;
#X obj 159 74 f;
#X obj 159 21 inlet;
#X obj 317 157 s length;
#X connect 0 0 4 0;
#X connect 1 0 6 0;
#X connect 3 0 21 0;
#X connect 4 0 3 0;
#X connect 4 1 0 1;
#X connect 4 2 5 1;
#X connect 5 0 12 0;
#X connect 6 0 0 0;
#X connect 7 0 8 0;
#X connect 9 0 0 1;
#X connect 10 0 11 0;
#X connect 11 0 5 0;
#X connect 12 0 2 0;
#X connect 12 1 7 0;
#X connect 13 0 5 1;
#X connect 14 0 22 0;
#X connect 15 0 16 0;
#X connect 16 0 24 0;
#X connect 17 0 18 0;
#X connect 18 0 24 0;
#X connect 19 0 22 1;
#X connect 20 0 21 1;
#X connect 21 0 10 0;
#X connect 22 0 1 0;
#X connect 23 0 14 0;
