#N canvas 104 0 1680 970 10;
#X obj 663 104 list length;
#X obj 80 270 until;
#X obj 107 371 list append;
#X obj 107 403 list split 1;
#X obj 80 341 t f b;
#X obj 81 572 list prepend;
#X obj 150 546 list;
#X obj 81 600 t l l;
#X obj 81 635 list-length;
#X text 546 18 list to manage;
#X obj 84 761 outlet;
#X obj 107 435 t f;
#X obj 80 240 t f b;
#X obj 80 210 f;
#X obj 81 476 expr if( $f1 == $f3 \, $f2 ^ 1 \, $f2) \;;
#X obj 298 269 t b f;
#X obj 288 300 f;
#X text 339 267 depthfirst - Store note pitch before starting loop.
;
#X obj 126 270 - 1;
#X obj 80 306 eebcounter 0;
#X obj 82 38 expr if($f2 != 0 \, $f1 \, -1);
#X obj 82 63 select -1;
#X obj 508 17 inlet;
#X obj 552 103 s update-list-\$0;
#X obj 170 341 r update-list-\$0;
#X obj 152 220 r update-list-size-\$0;
#X obj 95 183 r update-list-size-\$0;
#X obj 80 152 r start-loop-\$0;
#X obj 144 610 r update-list-size-\$0;
#X obj 150 521 r start-loop-\$0;
#X obj 318 300 s start-loop-\$0;
#X obj 663 129 s update-list-size-\$0;
#X obj 298 244 r note-\$0;
#X obj 82 116 s note-\$0;
#X obj 82 90 launchpad_note_number_to_step_index;
#X obj 82 13 notein 17;
#X obj 81 666 t l l;
#X obj 247 739 list length;
#X obj 140 706 t l l;
#X obj 141 739 s update-list-\$0;
#X obj 247 764 s update-list-size-\$0;
#X obj 508 54 t b l l;
#X obj 508 183 s note-\$0;
#X obj 509 101 f 99;
#X obj 508 135 t f b;
#X obj 578 185 s reset-counter-\$0;
#X obj 158 269 r reset-counter-\$0;
#X connect 0 0 31 0;
#X connect 1 0 19 0;
#X connect 2 0 3 0;
#X connect 3 0 11 0;
#X connect 3 1 2 1;
#X connect 4 0 14 0;
#X connect 4 1 2 0;
#X connect 5 0 7 0;
#X connect 6 0 5 1;
#X connect 7 0 8 0;
#X connect 7 1 5 1;
#X connect 8 0 36 0;
#X connect 11 0 14 1;
#X connect 12 0 1 0;
#X connect 12 1 16 0;
#X connect 13 0 12 0;
#X connect 14 0 5 0;
#X connect 15 0 30 0;
#X connect 15 1 16 1;
#X connect 16 0 14 2;
#X connect 18 0 19 1;
#X connect 19 0 4 0;
#X connect 20 0 21 0;
#X connect 21 1 34 0;
#X connect 22 0 41 0;
#X connect 24 0 2 1;
#X connect 25 0 18 0;
#X connect 26 0 13 1;
#X connect 27 0 13 0;
#X connect 28 0 8 1;
#X connect 29 0 6 0;
#X connect 32 0 15 0;
#X connect 34 0 33 0;
#X connect 35 0 20 0;
#X connect 35 1 20 1;
#X connect 36 0 10 0;
#X connect 36 1 38 0;
#X connect 37 0 40 0;
#X connect 38 0 39 0;
#X connect 38 1 37 0;
#X connect 41 0 43 0;
#X connect 41 1 23 0;
#X connect 41 2 0 0;
#X connect 43 0 44 0;
#X connect 44 0 42 0;
#X connect 44 1 45 0;
#X connect 46 0 19 2;
