#N canvas 400 23 986 678 10;
#X obj 337 143 list length;
#X obj 322 179 f;
#X obj 82 221 until;
#X obj 337 69 t l l;
#X obj 109 322 list append;
#X obj 109 354 list split 1;
#X obj 82 257 eebcounter 0 7;
#X obj 82 292 t f b;
#X obj 233 99 t b;
#X obj 233 73 r start-loop;
#X obj 83 514 list prepend;
#X obj 152 458 r start-loop;
#X obj 152 486 list;
#X obj 83 542 t l l;
#X obj 83 588 list-length;
#X obj 17 16 inlet;
#X text 56 19 note in;
#X obj 17 66 s note;
#X obj 17 42 t f;
#X obj 337 17 inlet;
#X text 379 18 list to manage;
#X obj 83 621 outlet;
#X obj 322 213 s list-size;
#X obj 82 149 r list-size;
#X obj 146 563 r list-size;
#X obj 172 296 r update-list;
#X obj 364 106 s update-list;
#X obj 109 386 t f;
#X obj 596 70 loadbang;
#X obj 596 99 f -1;
#X obj 597 132 s init-note;
#X obj 216 174 r note;
#X obj 201 199 f;
#X obj 82 179 t f b;
#X obj 83 427 expr if( $f1 == $f3 \, $f3 ^ 1 \, $f2) \;;
#X connect 0 0 1 1;
#X connect 1 0 22 0;
#X connect 2 0 6 0;
#X connect 3 0 0 0;
#X connect 3 1 26 0;
#X connect 4 0 5 0;
#X connect 5 0 27 0;
#X connect 5 1 4 1;
#X connect 6 0 7 0;
#X connect 7 0 34 0;
#X connect 7 1 4 0;
#X connect 8 0 1 0;
#X connect 9 0 8 0;
#X connect 10 0 13 0;
#X connect 11 0 12 0;
#X connect 12 0 10 1;
#X connect 13 0 14 0;
#X connect 13 1 10 1;
#X connect 14 0 21 0;
#X connect 15 0 18 0;
#X connect 18 0 17 0;
#X connect 19 0 3 0;
#X connect 23 0 33 0;
#X connect 24 0 14 1;
#X connect 25 0 4 1;
#X connect 27 0 34 1;
#X connect 28 0 29 0;
#X connect 29 0 30 0;
#X connect 31 0 32 1;
#X connect 32 0 34 2;
#X connect 33 0 2 0;
#X connect 33 1 32 0;
#X connect 34 0 10 0;
