#N canvas 220 101 986 678 10;
#X obj 535 105 list length;
#X obj 80 270 until;
#X obj 508 54 t l l;
#X obj 107 371 list append;
#X obj 107 403 list split 1;
#X obj 80 341 t f b;
#X obj 80 148 r start-loop;
#X obj 81 572 list prepend;
#X obj 150 521 r start-loop;
#X obj 150 546 list;
#X obj 81 600 t l l;
#X obj 81 635 list-length;
#X obj 82 94 s note;
#X text 546 18 list to manage;
#X obj 81 664 outlet;
#X obj 170 307 r update-list;
#X obj 439 104 s update-list;
#X obj 107 435 t f;
#X obj 298 244 r note;
#X obj 80 240 t f b;
#X obj 80 210 f;
#X obj 535 130 s update-list-size;
#X obj 95 179 r update-list-size;
#X obj 144 610 r update-list-size;
#X obj 318 300 s start-loop;
#X obj 81 476 expr if( $f1 == $f3 \, $f2 ^ 1 \, $f2) \;;
#X obj 298 269 t b f;
#X obj 288 300 f;
#X text 339 267 depthfirst - Store note pitch before starting loop.
;
#X obj 126 240 r update-list-size;
#X obj 126 270 - 1;
#X obj 80 306 eebcounter 0;
#X text 146 62 TODO implement a get note pitch for launchpad;
#X obj 82 38 expr if($f2 != 0 \, $f1 \, -1);
#X obj 82 63 select -1;
#X obj 82 13 notein;
#X obj 508 17 inlet;
#X connect 0 0 21 0;
#X connect 1 0 31 0;
#X connect 2 0 16 0;
#X connect 2 1 0 0;
#X connect 3 0 4 0;
#X connect 4 0 17 0;
#X connect 4 1 3 1;
#X connect 5 0 25 0;
#X connect 5 1 3 0;
#X connect 6 0 20 0;
#X connect 7 0 10 0;
#X connect 8 0 9 0;
#X connect 9 0 7 1;
#X connect 10 0 11 0;
#X connect 10 1 7 1;
#X connect 11 0 14 0;
#X connect 15 0 3 1;
#X connect 17 0 25 1;
#X connect 18 0 26 0;
#X connect 19 0 1 0;
#X connect 19 1 27 0;
#X connect 20 0 19 0;
#X connect 22 0 20 1;
#X connect 23 0 11 1;
#X connect 25 0 7 0;
#X connect 26 0 24 0;
#X connect 26 1 27 1;
#X connect 27 0 25 2;
#X connect 29 0 30 0;
#X connect 30 0 31 1;
#X connect 31 0 5 0;
#X connect 33 0 34 0;
#X connect 34 1 12 0;
#X connect 35 0 33 0;
#X connect 35 1 33 1;
#X connect 36 0 2 0;
