#N canvas 171 -843 450 300 10;
#X obj 60 188 pattern-manager;
#X obj 147 119 loadbang;
#X obj 9 17 notein;
#X obj 9 54 expr if($f2 != 0 \, $f1 \, -1);
#X obj 9 85 select -1;
#X obj 60 229 print pattern;
#X obj 187 219 t l;
#X msg 147 150 list 0 0 0 1;
#X connect 0 0 5 0;
#X connect 0 0 6 0;
#X connect 1 0 7 0;
#X connect 2 0 3 0;
#X connect 2 1 3 1;
#X connect 3 0 4 0;
#X connect 4 1 0 0;
#X connect 6 0 0 1;
#X connect 7 0 0 1;
