#N canvas 597 23 642 699 10;
#X obj 52 260 list split 1;
#X obj 52 192 until;
#X obj 52 230 list append;
#X obj 172 269 bang;
#X text 142 101 First store list \, then start the loop;
#X text 126 187 "until" bangs its output until told to stop by a "bang"
to its right inlet.;
#X text 140 233 Store the remaining list.;
#X text 141 250 third outlet of "split" tells us to stop.;
#X text 445 569 note on prefix;
#X obj 339 555 list prepend;
#X obj 440 659 t l;
#X obj 339 671 list prepend;
#X obj 266 696 list append;
#X obj 339 608 list prepend 144;
#X obj 649 315 midiout;
#X msg 689 292 1;
#X obj 229 840 list split 1;
#X obj 229 771 until;
#X obj 229 809 list append;
#X obj 265 738 t b l;
#X obj 298 869 bang;
#X msg 563 281 176 \, 0 \, 0;
#X msg 197 70 1 0 1 0 1 0 1 0;
#X obj 86 99 t b l b;
#X obj 125 129 list;
#X obj 327 756 r init-list;
#X obj 408 637 r init-list;
#X obj 125 158 s init-list;
#X obj 583 168 t f f;
#X obj 610 207 hradio 15 1 0 8 empty empty empty 0 -8 0 10 -262144
-1 -1 1;
#X obj 460 21 tgl 15 0 empty empty empty 17 7 0 10 -262144 -1 -1 0
1;
#X obj 551 206 s metro;
#X obj 85 8 r metro;
#X obj 172 301 s end-list;
#X obj 266 671 r end-list;
#X text 251 302 Send bang when list iteration is over;
#X text 800 200 get velocity value: - Active step => RED(15) - Current
step => GREEN(63) - Active and Curent step => GREEN(60) - inactive
step => OFF(0);
#X obj 122 334 r tick;
#X obj 86 35 t b f;
#X obj 174 33 s tick;
#X obj 339 582 t l b;
#X floatatom 335 412 0 0 0 0 - - -;
#X obj 362 352 float;
#X obj 368 382 + \$1;
#X obj 350 461 expr if( $f1 > 6 \, -7 \, 1) \;;
#X obj 116 413 +;
#X obj 116 444 select 0 1 2 3;
#X obj 102 473 f 0;
#X obj 173 499 f;
#X obj 52 359 expr if($f1 == 1 \, 2 \, 0) \; if($f2 == $f3 \, 1 \,
0) \; $f3;
#X obj 583 92 metro 250;
#X obj 417 381 f 0;
#X obj 368 323 t b;
#X obj 460 49 s play;
#X obj 583 65 r play;
#X obj 417 353 r play;
#X obj 689 269 loadbang;
#X obj 643 258 r midi;
#X obj 228 866 s midi;
#X msg 86 69 1 1 0 1 1 0 1 0;
#X obj 173 475 f 60;
#X obj 209 474 f 15;
#X obj 136 474 f 15;
#X msg 310 69 list 1 0 0 0 0 0 1 0;
#X obj 441 123 list;
#X obj 735 314 notein;
#X obj 735 351 expr if($f2 != 0 \, $f1 \, -1);
#X obj 735 382 select -1;
#X floatatom 1431 112 5 0 0 0 - - -, f 5;
#X obj 37 37;
#X obj 37 37;
#X obj 37 37;
#X obj 1430 238 newlist 2;
#X obj 1430 184 loadbang;
#X text 1500 239 create a new list;
#X obj 1429 288 s empty-list;
#X obj 37 37;
#X obj 1431 53 loadbang;
#X obj 1431 83 f 8;
#X obj 1431 142 s track-length-change;
#X obj 1500 202 r track-length-change;
#X obj 1241 298 list;
#X obj 37 37;
#X obj 1241 353 list length;
#X obj 1225 381 f;
#X obj 986 445 until;
#X obj 1241 322 t l l;
#X obj 1022 541 list append;
#X obj 1022 576 list split 1;
#X obj 1356 167 bng 15 250 50 0 empty empty empty 17 7 0 10 -262144
-1 -1;
#X obj 986 481 eebcounter 0 7;
#X obj 1022 611 t b f;
#X obj 986 516 t f b;
#X obj 786 410 s note;
#X obj 1109 369 t b;
#X obj 1109 343 r start-loop;
#X obj 1165 648 s start-loop;
#X obj 37 37;
#X obj 510 72;
#X obj 988 731 list prepend;
#X obj 1110 726 r start-loop;
#X obj 1108 782 list;
#X obj 1109 755 t b;
#X obj 988 699 expr if( $f1 == $f2 \, $f3 ^ 1 \, $f3);
#X obj 1088 672 f;
#X obj 988 759 t l l;
#X obj 1330 814 t l;
#X obj 988 843 print;
#X obj 583 133 cyclone/counter 3;
#X obj 37 37;
#X obj 37 37;
#X obj 988 801 list-length 3;
#X obj 1088 645 r note-old;
#X obj 1241 271 r empty-list-old;
#X connect 0 0 49 0;
#X connect 0 1 2 1;
#X connect 0 2 3 0;
#X connect 1 0 2 0;
#X connect 2 0 0 0;
#X connect 3 0 1 1;
#X connect 3 0 33 0;
#X connect 9 0 40 0;
#X connect 10 0 11 1;
#X connect 11 0 10 0;
#X connect 11 0 12 1;
#X connect 12 0 19 0;
#X connect 13 0 11 0;
#X connect 15 0 14 1;
#X connect 16 0 58 0;
#X connect 16 1 18 1;
#X connect 16 2 20 0;
#X connect 17 0 18 0;
#X connect 18 0 16 0;
#X connect 19 0 17 0;
#X connect 19 1 18 1;
#X connect 20 0 17 1;
#X connect 21 0 14 0;
#X connect 22 0 23 0;
#X connect 23 0 1 0;
#X connect 23 1 2 1;
#X connect 23 2 24 0;
#X connect 24 0 27 0;
#X connect 25 0 18 1;
#X connect 26 0 11 1;
#X connect 28 0 31 0;
#X connect 28 1 29 0;
#X connect 30 0 53 0;
#X connect 32 0 38 0;
#X connect 34 0 12 0;
#X connect 37 0 49 1;
#X connect 38 0 64 0;
#X connect 38 1 39 0;
#X connect 40 0 13 0;
#X connect 41 0 44 0;
#X connect 41 0 49 2;
#X connect 42 0 43 0;
#X connect 43 0 41 0;
#X connect 43 0 42 1;
#X connect 44 0 43 1;
#X connect 45 0 46 0;
#X connect 46 0 47 0;
#X connect 46 1 62 0;
#X connect 46 2 60 0;
#X connect 46 3 61 0;
#X connect 47 0 48 0;
#X connect 48 0 9 0;
#X connect 49 0 45 0;
#X connect 49 1 45 1;
#X connect 49 2 9 1;
#X connect 49 2 52 0;
#X connect 50 0 108 0;
#X connect 51 0 41 0;
#X connect 52 0 42 0;
#X connect 54 0 50 0;
#X connect 55 0 51 0;
#X connect 56 0 15 0;
#X connect 57 0 14 0;
#X connect 59 0 23 0;
#X connect 60 0 48 0;
#X connect 61 0 48 0;
#X connect 62 0 48 0;
#X connect 63 0 23 0;
#X connect 64 0 23 0;
#X connect 65 0 66 0;
#X connect 65 1 66 1;
#X connect 66 0 67 0;
#X connect 68 0 79 0;
#X connect 72 0 75 0;
#X connect 73 0 72 0;
#X connect 77 0 78 0;
#X connect 78 0 68 0;
#X connect 80 0 72 1;
#X connect 81 0 86 0;
#X connect 83 0 84 1;
#X connect 84 0 85 0;
#X connect 84 0 111 1;
#X connect 85 0 90 0;
#X connect 86 0 83 0;
#X connect 86 1 87 1;
#X connect 87 0 88 0;
#X connect 88 0 91 0;
#X connect 88 1 87 1;
#X connect 89 0 72 0;
#X connect 90 0 92 0;
#X connect 91 1 103 2;
#X connect 92 0 103 0;
#X connect 92 1 87 0;
#X connect 94 0 84 0;
#X connect 95 0 94 0;
#X connect 99 0 105 0;
#X connect 100 0 102 0;
#X connect 101 0 99 1;
#X connect 102 0 101 0;
#X connect 103 0 99 0;
#X connect 104 0 103 1;
#X connect 104 0 96 0;
#X connect 105 0 111 0;
#X connect 105 1 99 1;
#X connect 106 0 87 1;
#X connect 108 0 28 0;
#X connect 111 0 106 0;
#X connect 111 0 107 0;
#X connect 112 0 104 0;
#X connect 113 0 81 0;
