#N canvas 0 50 1920 997 10;
#X obj 52 260 list split 1;
#X obj 52 192 until;
#X obj 52 230 list append;
#X obj 172 269 bang;
#X text 126 187 "until" bangs its output until told to stop by a "bang"
to its right inlet.;
#X text 140 233 Store the remaining list.;
#X text 141 250 third outlet of "split" tells us to stop.;
#X text 385 601 note on prefix;
#X obj 279 587 list prepend;
#X obj 380 691 t l;
#X obj 279 703 list prepend;
#X obj 206 728 list append;
#X obj 279 640 list prepend 144;
#X obj 649 315 midiout;
#X msg 689 292 1;
#X obj 169 872 list split 1;
#X obj 169 803 until;
#X obj 169 841 list append;
#X obj 205 770 t b l;
#X obj 238 901 bang;
#X msg 563 281 176 \, 0 \, 0;
#X msg 197 70 1 0 1 0 1 0 1 0;
#X obj 125 129 list;
#X obj 267 788 r init-list;
#X obj 348 669 r init-list;
#X obj 125 158 s init-list;
#X obj 824 194 t f f;
#X obj 851 233 hradio 15 1 0 16 empty empty empty 0 -8 1 10 -262144
-1 -1 0;
#X obj 714 60 tgl 15 0 empty empty empty 17 7 0 10 -262144 -1 -1 0
1;
#X obj 792 232 s metro;
#X obj 85 8 r metro;
#X obj 172 301 s end-list;
#X obj 206 703 r end-list;
#X text 251 302 Send bang when list iteration is over;
#X text 62 953 get velocity value: - Active step => RED(15) - Current
step => GREEN(63) - Active and Curent step => GREEN(60) - inactive
step => OFF(0);
#X obj 141 334 r tick;
#X obj 86 35 t b f;
#X obj 174 33 s tick;
#X obj 279 614 t l b;
#X obj 52 432 +;
#X obj 52 463 select 0 1 2 3;
#X obj 38 492 f 0;
#X obj 90 540 f;
#X obj 824 131 metro 250;
#X obj 714 88 s play;
#X obj 824 104 r play;
#X obj 689 269 loadbang;
#X obj 643 258 r midi;
#X obj 168 898 s midi;
#X msg 86 69 1 1 0 1 1 0 1 0;
#X obj 109 494 f 60;
#X obj 145 493 f 15;
#X obj 72 493 f 15;
#X msg 310 69 list 1 0 0 0 0 0 1 0;
#X floatatom 1431 111 5 0 0 0 - - -, f 5;
#X obj 1430 184 loadbang;
#X text 1500 239 create a new list;
#X obj 1429 288 s empty-list;
#X obj 1431 53 loadbang;
#X obj 1431 83 f 8;
#X obj 1500 202 r track-length-change;
#X obj 1356 167 bng 15 250 50 0 empty empty empty 17 7 0 10 -262144
-1 -1;
#X obj 1036 490 pattern-manager;
#X obj 985 385 notein;
#X obj 985 422 expr if($f2 != 0 \, $f1 \, -1);
#X obj 985 453 select -1;
#X obj 1163 521 t l;
#X obj 1123 458 r empty-list;
#X obj 1430 238 newlist;
#X obj 1036 529 s update-pattern;
#X obj 461 95 r update-pattern;
#X obj 213 137 list length;
#X obj 213 159 s update-list-length;
#X obj 313 329 r update-list-length;
#X obj 890 102 r track-length-change;
#X obj 1431 142 s track-length-change;
#X obj 408 397 t b;
#X obj 408 372 r play;
#X obj 824 162 eebcounter 0 7;
#X obj 890 131 - 1;
#X obj 102 772 print;
#X obj 29 21 bng 15 250 50 0 empty empty empty 17 7 0 10 -262144 -1
-1;
#X obj 109 582 pack f f;
#X obj 275 515 print expr;
#X obj 272 469 pack f f f f f;
#X obj 52 357 expr if($f1 == 1 \, 2 \, 0) \; if($f2 == $f3 \, 1 \,
0) \; $f1 \; $f2 \; $f3, f 26;
#X text 398 476 TODO: fix counter initialization \, find why at first
iteration second step is 0 !;
#X text 142 101 irst store list \, then start the loop;
#X obj 52 295 t f b;
#X obj 259 383 eebcounter 0;
#X obj 313 354 - 1;
#X obj 70 101 t b l b l;
#X connect 0 0 88 0;
#X connect 0 1 2 1;
#X connect 0 2 3 0;
#X connect 1 0 2 0;
#X connect 2 0 0 0;
#X connect 3 0 1 1;
#X connect 3 0 31 0;
#X connect 8 0 38 0;
#X connect 9 0 10 1;
#X connect 10 0 9 0;
#X connect 10 0 11 1;
#X connect 11 0 18 0;
#X connect 11 0 80 0;
#X connect 12 0 10 0;
#X connect 14 0 13 1;
#X connect 15 0 48 0;
#X connect 15 1 17 1;
#X connect 15 2 19 0;
#X connect 16 0 17 0;
#X connect 17 0 15 0;
#X connect 18 0 16 0;
#X connect 18 1 17 1;
#X connect 19 0 16 1;
#X connect 20 0 13 0;
#X connect 21 0 91 0;
#X connect 22 0 25 0;
#X connect 23 0 17 1;
#X connect 24 0 10 1;
#X connect 26 0 29 0;
#X connect 26 1 27 0;
#X connect 28 0 44 0;
#X connect 30 0 36 0;
#X connect 32 0 11 0;
#X connect 35 0 85 1;
#X connect 36 0 21 0;
#X connect 36 1 37 0;
#X connect 38 0 12 0;
#X connect 39 0 40 0;
#X connect 40 0 41 0;
#X connect 40 1 52 0;
#X connect 40 2 50 0;
#X connect 40 3 51 0;
#X connect 41 0 42 0;
#X connect 42 0 82 1;
#X connect 43 0 78 0;
#X connect 45 0 43 0;
#X connect 46 0 14 0;
#X connect 47 0 13 0;
#X connect 49 0 91 0;
#X connect 50 0 42 0;
#X connect 51 0 42 0;
#X connect 52 0 42 0;
#X connect 53 0 91 0;
#X connect 54 0 75 0;
#X connect 55 0 68 0;
#X connect 58 0 59 0;
#X connect 59 0 54 0;
#X connect 60 0 68 1;
#X connect 61 0 68 0;
#X connect 62 0 66 0;
#X connect 62 0 69 0;
#X connect 63 0 64 0;
#X connect 63 1 64 1;
#X connect 64 0 65 0;
#X connect 65 1 62 0;
#X connect 66 0 62 1;
#X connect 67 0 62 1;
#X connect 68 0 57 0;
#X connect 71 0 72 0;
#X connect 73 0 90 0;
#X connect 74 0 79 0;
#X connect 76 0 89 3;
#X connect 77 0 76 0;
#X connect 78 0 26 0;
#X connect 81 0 49 0;
#X connect 82 0 12 0;
#X connect 84 0 83 0;
#X connect 85 0 39 0;
#X connect 85 0 84 0;
#X connect 85 1 39 1;
#X connect 85 1 84 1;
#X connect 85 2 82 0;
#X connect 85 2 84 2;
#X connect 85 3 84 3;
#X connect 85 4 84 4;
#X connect 88 0 85 0;
#X connect 88 1 89 0;
#X connect 89 0 85 2;
#X connect 90 0 89 2;
#X connect 91 0 1 0;
#X connect 91 1 2 1;
#X connect 91 2 22 0;
#X connect 91 3 71 0;
