#N canvas 401 81 1039 703 10;
#X obj 278 273 list split 1;
#X obj 278 205 until;
#X obj 278 243 list append;
#X obj 398 282 bang;
#X text 437 617 note on prefix;
#X obj 417 665 t l;
#X obj 316 677 list prepend;
#X obj 243 702 list append;
#X obj 316 614 list prepend 144;
#X obj 206 846 list split 1;
#X obj 206 777 until;
#X obj 206 815 list append;
#X obj 242 744 t b l;
#X obj 275 875 bang;
#X obj 304 762 r init-list;
#X obj 385 643 r init-list;
#X obj 398 314 s end-list;
#X obj 229 665 r end-list;
#X obj 278 445 +;
#X obj 278 476 select 0 1 2 3;
#X obj 264 505 f 0;
#X obj 316 553 f;
#X obj 335 507 f 60;
#X obj 371 506 f 15;
#X obj 298 506 f 15;
#X obj 566 280 r update-list-length;
#X obj 278 308 t f b;
#X obj 566 305 - 1;
#X obj 206 889 outlet;
#X obj 20 99 t b;
#X obj 53 236 r update-list-length;
#X obj 20 34 inlet;
#X obj 278 23 inlet;
#X obj 346 198 list;
#X obj 18 382 s draw-list;
#X obj 346 174 r draw-list;
#X obj 427 175 list;
#X obj 427 198 s init-list;
#X obj 346 79 list length;
#X obj 346 101 s update-list-length;
#X obj 278 100 t b l l b;
#X obj 278 55 t l b l;
#X obj 18 327 t b f f;
#X obj 53 266 - 1;
#X obj 316 578 list prepend;
#X obj 18 297 momiji 0;
#X obj 548 359 momiji 0;
#X obj 566 327 t f b;
#X obj 278 366 expr if($f1 == 1 \, 2 \, 0) \; if($f2 == $f3 \, 1 \,
0) \; $f3, f 26;
#X obj 92 768 print notes;
#X connect 0 0 26 0;
#X connect 0 1 2 1;
#X connect 0 2 3 0;
#X connect 1 0 2 0;
#X connect 2 0 0 0;
#X connect 3 0 1 1;
#X connect 3 0 16 0;
#X connect 5 0 6 1;
#X connect 6 0 5 0;
#X connect 6 0 7 1;
#X connect 7 0 12 0;
#X connect 7 0 49 0;
#X connect 8 0 6 0;
#X connect 9 0 28 0;
#X connect 9 1 11 1;
#X connect 9 2 13 0;
#X connect 10 0 11 0;
#X connect 11 0 9 0;
#X connect 12 0 10 0;
#X connect 12 1 11 1;
#X connect 13 0 10 1;
#X connect 14 0 11 1;
#X connect 15 0 6 1;
#X connect 17 0 7 0;
#X connect 18 0 19 0;
#X connect 19 0 20 0;
#X connect 19 1 24 0;
#X connect 19 2 22 0;
#X connect 19 3 23 0;
#X connect 20 0 21 0;
#X connect 21 0 44 0;
#X connect 22 0 21 0;
#X connect 23 0 21 0;
#X connect 24 0 21 0;
#X connect 25 0 27 0;
#X connect 26 0 48 0;
#X connect 26 1 46 0;
#X connect 27 0 47 0;
#X connect 29 0 45 0;
#X connect 30 0 43 0;
#X connect 31 0 29 0;
#X connect 32 0 41 0;
#X connect 33 0 40 0;
#X connect 35 0 33 0;
#X connect 36 0 37 0;
#X connect 38 0 39 0;
#X connect 40 0 1 0;
#X connect 40 1 2 1;
#X connect 40 2 33 1;
#X connect 40 3 36 0;
#X connect 41 0 40 0;
#X connect 41 2 38 0;
#X connect 42 0 34 0;
#X connect 42 1 48 1;
#X connect 43 0 45 2;
#X connect 44 0 8 0;
#X connect 45 0 42 0;
#X connect 46 0 48 2;
#X connect 47 0 46 2;
#X connect 47 1 46 3;
#X connect 48 0 18 0;
#X connect 48 1 18 1;
#X connect 48 2 44 1;
