#N canvas 533 141 532 335 10;
#X obj 148 223 sequencer-gui;
#X obj 310 97 bng 15 250 50 0 empty empty empty 17 7 0 10 -262144 -1
-1;
#X obj 312 142 bng 15 250 50 0 empty empty empty 17 7 0 10 -262144
-1 -1;
#X msg 310 119 1 0 1 0;
#X obj 312 142 bng 15 250 50 0 empty empty empty 17 7 0 10 -262144
-1 -1;
#X obj 313 232 bng 15 250 50 0 empty empty empty 17 7 0 10 -262144
-1 -1;
#X obj 149 294 midiout;
#X obj 308 47 bng 15 250 50 0 empty empty empty 17 7 0 10 -262144 -1
-1;
#X obj 308 71 list 0;
#X msg 71 222 176 \, 0 \, 0;
#X msg 188 273 1;
#X obj 188 250 loadbang;
#X msg 312 163 1 0 0 0 1 0 0 0;
#X msg 312 210 1 1 1 0 1 0 0 1;
#X obj 312 186 bng 15 250 50 0 empty empty empty 17 7 0 10 -262144
-1 -1;
#X obj 312 186 bng 15 250 50 0 empty empty empty 17 7 0 10 -262144
-1 -1;
#X obj 147 59 tgl 15 0 empty empty empty 17 7 0 10 -262144 -1 -1 0
1;
#X obj 224 183 t l b;
#X obj 121 167 bng 15 250 50 0 empty empty empty 17 7 0 10 -262144
-1 -1;
#X obj 59 194 print t;
#X obj 147 101 metro 125;
#X msg 313 254 1 0 0 0 1 0 0 1 0 0 1 0 1 0 1 1;
#X connect 0 0 6 0;
#X connect 1 0 3 0;
#X connect 2 0 12 0;
#X connect 3 0 17 0;
#X connect 5 0 21 0;
#X connect 7 0 8 0;
#X connect 8 0 17 0;
#X connect 9 0 6 0;
#X connect 10 0 6 1;
#X connect 11 0 10 0;
#X connect 12 0 17 0;
#X connect 13 0 17 0;
#X connect 14 0 13 0;
#X connect 16 0 20 0;
#X connect 17 0 0 1;
#X connect 17 1 9 0;
#X connect 18 0 0 0;
#X connect 18 0 19 0;
#X connect 20 0 0 0;
#X connect 21 0 17 0;
