#N canvas 222 22 1185 654 10;
#X obj 52 260 list split 1;
#X obj 52 192 until;
#X obj 52 230 list append;
#X obj 172 269 bang;
#X text 142 101 First store list \, then start the loop;
#X text 126 187 "until" bangs its output until told to stop by a "bang"
to its right inlet.;
#X text 140 233 Store the remaining list.;
#X text 141 250 third outlet of "split" tells us to stop.;
#X text 445 569 note on prefix;
#X obj 339 555 list prepend;
#X obj 440 659 t l;
#X obj 339 671 list prepend;
#X obj 266 696 list append;
#X obj 339 608 list prepend 144;
#X obj 649 315 midiout;
#X msg 689 292 1;
#X obj 229 840 list split 1;
#X obj 229 771 until;
#X obj 229 809 list append;
#X obj 265 738 t b l;
#X obj 298 869 bang;
#X msg 563 281 176 \, 0 \, 0;
#X msg 197 70 1 0 1 0 1 0 1 0;
#X obj 86 99 t b l b;
#X obj 125 129 list;
#X obj 327 756 r init-list;
#X obj 408 637 r init-list;
#X obj 125 158 s init-list;
#X obj 583 133 cyclone/counter 7;
#X obj 583 168 t f f;
#X obj 610 207 hradio 15 1 0 8 empty empty empty 0 -8 0 10 -262144
-1 -1 6;
#X obj 460 21 tgl 15 0 empty empty empty 17 7 0 10 -262144 -1 -1 0
1;
#X obj 551 206 s metro;
#X obj 85 8 r metro;
#X obj 172 301 s end-list;
#X obj 266 671 r end-list;
#X text 251 302 Send bang when list iteration is over;
#X text 800 200 get velocity value: - Active step => RED(15) - Current
step => GREEN(63) - Active and Curent step => GREEN(60) - inactive
step => OFF(0);
#X obj 122 334 r tick;
#X obj 86 35 t b f;
#X obj 174 33 s tick;
#X obj 339 582 t l b;
#X floatatom 335 412 0 0 0 0 - - -;
#X obj 362 352 float;
#X obj 368 382 + \$1;
#X obj 350 461 expr if( $f1 > 6 \, -7 \, 1) \;;
#X obj 116 413 +;
#X obj 116 444 select 0 1 2 3;
#X obj 102 473 f 0;
#X obj 173 499 f;
#X obj 52 359 expr if($f1 == 1 \, 2 \, 0) \; if($f2 == $f3 \, 1 \,
0) \; $f3;
#X obj 583 92 metro 250;
#X obj 417 381 f 0;
#X obj 368 323 t b;
#X obj 460 49 s play;
#X obj 583 65 r play;
#X obj 417 353 r play;
#X obj 689 269 loadbang;
#X obj 643 258 r midi;
#X obj 228 866 s midi;
#X msg 86 69 1 1 0 1 1 0 1 0;
#X obj 173 475 f 60;
#X obj 209 474 f 15;
#X obj 136 474 f 15;
#X obj 630 461 notein;
#X obj 630 563 select 0 1 2 3 4 5 6 7;
#X obj 630 498 expr if($f2 != 0 \, $f1 \, -1);
#X obj 630 527 select -1;
#X obj 631 601 tgl 15 0 empty empty empty 17 7 0 10 -262144 -1 -1 0
1;
#X obj 660 601 tgl 15 0 empty empty empty 17 7 0 10 -262144 -1 -1 0
1;
#X obj 686 600 tgl 15 0 empty empty empty 17 7 0 10 -262144 -1 -1 0
1;
#X obj 711 600 tgl 15 0 empty empty empty 17 7 0 10 -262144 -1 -1 0
1;
#X obj 736 600 tgl 15 0 empty empty empty 17 7 0 10 -262144 -1 -1 0
1;
#X obj 762 600 tgl 15 0 empty empty empty 17 7 0 10 -262144 -1 -1 0
1;
#X obj 801 601 tgl 15 0 empty empty empty 17 7 0 10 -262144 -1 -1 0
1;
#X obj 595 598 tgl 15 0 empty empty empty 17 7 0 10 -262144 -1 -1 0
1;
#X obj 562 637 t f;
#X obj 627 637 t f;
#X obj 665 637 t f;
#X obj 699 637 t f;
#X obj 727 637 t f;
#X obj 759 638 t f;
#X obj 798 642 t f;
#X obj 595 637 t f;
#X obj 650 833 pack f f f f f f f f;
#X obj 651 870 print;
#X msg 310 69 list 1 0 0 0 0 0 1 0;
#X obj 441 123 list;
#X obj 626 680 expr $f1 \; $f2 \; $f3 \; $f4 \; $f5 \; $f6 \; $f7 \;
$f8 \; $f9 \;;
#X obj 909 530 until;
#X obj 909 560 list append;
#X obj 972 538 f 1;
#X obj 827 389 t b;
#X obj 981 320 loadbang;
#X obj 909 462 moses 1;
#X obj 944 499 t b;
#X obj 909 589 t b l;
#X obj 936 627 print list;
#X obj 909 357 - \$1;
#X floatatom 909 392 0 0 0 0 - - -;
#X obj 909 317 f;
#X obj 909 429 t f f;
#X obj 964 270 bng 15 250 50 0 empty empty empty 17 7 0 10 -262144
-1 -1;
#X obj 987 411 expr if($f1 == 0 \, -7 \, 1) \;;
#X obj 981 353 f -7;
#X connect 0 0 50 0;
#X connect 0 1 2 1;
#X connect 0 2 3 0;
#X connect 1 0 2 0;
#X connect 2 0 0 0;
#X connect 3 0 1 1;
#X connect 3 0 34 0;
#X connect 9 0 41 0;
#X connect 10 0 11 1;
#X connect 11 0 10 0;
#X connect 11 0 12 1;
#X connect 12 0 19 0;
#X connect 13 0 11 0;
#X connect 15 0 14 1;
#X connect 16 0 59 0;
#X connect 16 1 18 1;
#X connect 16 2 20 0;
#X connect 17 0 18 0;
#X connect 18 0 16 0;
#X connect 19 0 17 0;
#X connect 19 1 18 1;
#X connect 20 0 17 1;
#X connect 21 0 14 0;
#X connect 22 0 23 0;
#X connect 23 0 1 0;
#X connect 23 1 2 1;
#X connect 23 2 24 0;
#X connect 24 0 27 0;
#X connect 25 0 18 1;
#X connect 26 0 11 1;
#X connect 28 0 29 0;
#X connect 29 0 32 0;
#X connect 29 1 30 0;
#X connect 31 0 54 0;
#X connect 33 0 39 0;
#X connect 35 0 12 0;
#X connect 38 0 50 1;
#X connect 39 0 87 0;
#X connect 39 1 40 0;
#X connect 41 0 13 0;
#X connect 42 0 45 0;
#X connect 42 0 50 2;
#X connect 43 0 44 0;
#X connect 44 0 42 0;
#X connect 44 0 43 1;
#X connect 45 0 44 1;
#X connect 46 0 47 0;
#X connect 47 0 48 0;
#X connect 47 1 63 0;
#X connect 47 2 61 0;
#X connect 47 3 62 0;
#X connect 48 0 49 0;
#X connect 49 0 9 0;
#X connect 50 0 46 0;
#X connect 50 1 46 1;
#X connect 50 2 9 1;
#X connect 50 2 53 0;
#X connect 51 0 28 0;
#X connect 52 0 42 0;
#X connect 53 0 43 0;
#X connect 55 0 51 0;
#X connect 56 0 52 0;
#X connect 57 0 15 0;
#X connect 58 0 14 0;
#X connect 60 0 23 0;
#X connect 61 0 49 0;
#X connect 62 0 49 0;
#X connect 63 0 49 0;
#X connect 64 0 66 0;
#X connect 64 1 66 1;
#X connect 65 0 75 0;
#X connect 65 1 68 0;
#X connect 65 2 69 0;
#X connect 65 3 70 0;
#X connect 65 4 71 0;
#X connect 65 5 72 0;
#X connect 65 6 73 0;
#X connect 65 7 74 0;
#X connect 66 0 67 0;
#X connect 67 0 88 0;
#X connect 67 1 65 0;
#X connect 68 0 83 0;
#X connect 69 0 77 0;
#X connect 70 0 78 0;
#X connect 71 0 79 0;
#X connect 72 0 80 0;
#X connect 73 0 81 0;
#X connect 74 0 82 0;
#X connect 75 0 76 0;
#X connect 76 0 88 1;
#X connect 77 0 88 3;
#X connect 78 0 88 4;
#X connect 79 0 88 5;
#X connect 80 0 88 6;
#X connect 81 0 88 7;
#X connect 82 0 88 8;
#X connect 83 0 88 2;
#X connect 84 0 85 0;
#X connect 84 0 87 1;
#X connect 86 0 23 0;
#X connect 87 0 23 0;
#X connect 88 1 84 0;
#X connect 88 2 84 1;
#X connect 88 3 84 2;
#X connect 88 4 84 3;
#X connect 88 5 84 4;
#X connect 88 6 84 5;
#X connect 88 7 84 6;
#X connect 88 8 84 7;
#X connect 89 0 90 0;
#X connect 90 0 96 0;
#X connect 91 0 90 1;
#X connect 92 0 100 0;
#X connect 93 0 104 0;
#X connect 94 0 95 0;
#X connect 94 1 89 0;
#X connect 95 0 89 1;
#X connect 96 0 92 0;
#X connect 96 1 97 0;
#X connect 98 0 100 1;
#X connect 98 0 99 0;
#X connect 99 0 101 0;
#X connect 100 0 98 0;
#X connect 101 0 94 0;
#X connect 101 1 103 0;
#X connect 102 0 104 0;
#X connect 103 0 98 1;
#X connect 104 0 99 0;
