#N canvas 2024 28 1039 926 10;
#X obj 89 234 list split 1;
#X obj 89 166 until;
#X obj 89 204 list append;
#X obj 209 243 bang;
#X text 163 161 "until" bangs its output until told to stop by a "bang"
to its right inlet.;
#X text 177 207 Store the remaining list.;
#X text 178 224 third outlet of "split" tells us to stop.;
#X text 437 617 note on prefix;
#X obj 417 665 t l;
#X obj 316 677 list prepend;
#X obj 243 702 list append;
#X obj 316 614 list prepend 144;
#X obj 206 846 list split 1;
#X obj 206 777 until;
#X obj 206 815 list append;
#X obj 242 744 t b l;
#X obj 275 875 bang;
#X obj 162 103 list;
#X obj 304 762 r init-list;
#X obj 385 643 r init-list;
#X obj 162 132 s init-list;
#X obj 209 275 s end-list;
#X obj 229 665 r end-list;
#X text 288 276 Send bang when list iteration is over;
#X obj 178 308 r tick;
#X obj 89 406 +;
#X obj 89 437 select 0 1 2 3;
#X obj 75 466 f 0;
#X obj 127 514 f;
#X obj 146 468 f 60;
#X obj 182 467 f 15;
#X obj 109 467 f 15;
#X obj 250 111 list length;
#X obj 250 133 s update-list-length;
#X obj 350 303 r update-list-length;
#X obj 316 541 pack f f;
#X text 179 75 irst store list \, then start the loop;
#X obj 89 269 t f b;
#X obj 296 357 eebcounter 0;
#X obj 350 328 - 1;
#X obj 107 75 t b l b l;
#X obj 107 14 inlet;
#X obj 206 889 outlet;
#X obj 89 331 expr if($f1 == 1 \, 2 \, 0) \; if($f2 == $f3 \, 1 \,
0) \; $f3, f 26;
#X text 576 53 TODO fix tick inlet !!!!!;
#X obj 124 705 print list;
#X connect 0 0 37 0;
#X connect 0 1 2 1;
#X connect 0 2 3 0;
#X connect 1 0 2 0;
#X connect 2 0 0 0;
#X connect 3 0 1 1;
#X connect 3 0 21 0;
#X connect 8 0 9 1;
#X connect 9 0 8 0;
#X connect 9 0 10 1;
#X connect 10 0 15 0;
#X connect 10 0 45 0;
#X connect 11 0 9 0;
#X connect 12 0 42 0;
#X connect 12 1 14 1;
#X connect 12 2 16 0;
#X connect 13 0 14 0;
#X connect 14 0 12 0;
#X connect 15 0 13 0;
#X connect 15 1 14 1;
#X connect 16 0 13 1;
#X connect 17 0 20 0;
#X connect 18 0 14 1;
#X connect 19 0 9 1;
#X connect 22 0 10 0;
#X connect 24 0 43 1;
#X connect 25 0 26 0;
#X connect 26 0 27 0;
#X connect 26 1 31 0;
#X connect 26 2 29 0;
#X connect 26 3 30 0;
#X connect 27 0 28 0;
#X connect 28 0 35 1;
#X connect 29 0 28 0;
#X connect 30 0 28 0;
#X connect 31 0 28 0;
#X connect 32 0 33 0;
#X connect 34 0 39 0;
#X connect 35 0 11 0;
#X connect 37 0 43 0;
#X connect 37 1 38 0;
#X connect 38 0 43 2;
#X connect 39 0 38 2;
#X connect 40 0 1 0;
#X connect 40 1 2 1;
#X connect 40 2 17 0;
#X connect 40 3 32 0;
#X connect 41 0 40 0;
#X connect 43 0 25 0;
#X connect 43 1 25 1;
#X connect 43 2 35 0;
