#N canvas 588 45 1039 684 10;
#X obj 278 273 list split 1;
#X obj 278 214 until;
#X obj 278 243 list append;
#X obj 398 282 bang;
#X text 437 609 note on prefix;
#X obj 406 670 t l;
#X obj 316 669 list prepend;
#X obj 243 694 list append;
#X obj 316 606 list prepend 144;
#X obj 207 824 list split 1;
#X obj 207 755 until;
#X obj 207 793 list append;
#X obj 243 722 t b l;
#X obj 276 853 bang;
#X obj 278 445 +;
#X obj 278 476 select 0 1 2 3;
#X obj 316 553 f;
#X obj 278 308 t f b;
#X obj 566 312 - 1;
#X obj 207 852 outlet;
#X obj 20 67 t b;
#X obj 20 34 inlet;
#X obj 278 23 inlet;
#X obj 184 99 list;
#X obj 425 129 list length;
#X obj 278 100 t b l l b;
#X obj 48 94 - 1;
#X obj 566 334 t f b;
#X obj 278 366 expr if($f1 == 1 \, 2 \, 0) \; if($f2 == $f3 \, 1 \,
0) \; $f3, f 26;
#X obj 20 121 eebcounter;
#X obj 538 363 eebcounter;
#X obj 20 149 t b f;
#X obj 316 578 list prepend;
#X obj 264 505 f 61;
#X obj 298 506 f 45;
#X obj 335 507 f 60;
#X obj 371 506 f 44;
#X obj 431 507 step_index_to_launchpad_note_number;
#X obj 425 154 s list-length-\$0;
#X obj 48 67 r list-length-\$0;
#X obj 566 288 r list-length-\$0;
#X obj 278 55 t l l;
#X obj 20 177 s draw-list-\$0;
#X obj 184 75 r draw-list-\$0;
#X obj 398 308 s list-end-\$0;
#X obj 243 641 r list-end-\$0;
#X obj 329 154 s list-init-\$0;
#X obj 329 132 list;
#X obj 290 761 r list-init-\$0;
#X obj 385 642 r list-init-\$0;
#X connect 0 0 17 0;
#X connect 0 1 2 1;
#X connect 0 2 3 0;
#X connect 1 0 2 0;
#X connect 2 0 0 0;
#X connect 3 0 1 1;
#X connect 3 0 44 0;
#X connect 5 0 6 1;
#X connect 6 0 5 0;
#X connect 6 0 7 1;
#X connect 7 0 12 0;
#X connect 8 0 6 0;
#X connect 9 0 19 0;
#X connect 9 1 11 1;
#X connect 9 2 13 0;
#X connect 10 0 11 0;
#X connect 11 0 9 0;
#X connect 12 0 10 0;
#X connect 12 1 11 1;
#X connect 13 0 10 1;
#X connect 14 0 15 0;
#X connect 15 0 33 0;
#X connect 15 1 34 0;
#X connect 15 2 35 0;
#X connect 15 3 36 0;
#X connect 16 0 32 0;
#X connect 17 0 28 0;
#X connect 17 1 30 0;
#X connect 18 0 27 0;
#X connect 20 0 29 0;
#X connect 21 0 20 0;
#X connect 22 0 41 0;
#X connect 23 0 25 0;
#X connect 24 0 38 0;
#X connect 25 0 1 0;
#X connect 25 1 2 1;
#X connect 25 2 23 1;
#X connect 25 3 47 0;
#X connect 26 0 29 1;
#X connect 27 0 30 1;
#X connect 27 1 30 2;
#X connect 28 0 14 0;
#X connect 28 1 14 1;
#X connect 28 2 37 0;
#X connect 29 0 31 0;
#X connect 30 0 28 2;
#X connect 31 0 42 0;
#X connect 31 1 28 1;
#X connect 32 0 8 0;
#X connect 33 0 16 0;
#X connect 34 0 16 0;
#X connect 35 0 16 0;
#X connect 36 0 16 0;
#X connect 37 0 32 1;
#X connect 39 0 26 0;
#X connect 40 0 18 0;
#X connect 41 0 25 0;
#X connect 41 1 24 0;
#X connect 43 0 23 0;
#X connect 45 0 7 0;
#X connect 47 0 46 0;
#X connect 48 0 11 1;
#X connect 49 0 6 1;
