#N struct template_midi_note float pitch float velocity float duration
float is_activated;
#N struct template_song float song_index array seq_slots template_seq_slot
;
#N struct template_seq_slot float length float is_muted float midi_track_index
array seq template_seq;
#N struct template_seq float length float midi_track_index array midi_notes
template_midi_note;
#N canvas 276 23 579 348 10;
#N canvas 1273 302 450 323 template_midi_note 0;
#X obj 19 66 struct template_midi_note float pitch float velocity float
duration float is_activated;
#X restore 421 108 pd template_midi_note;
#N canvas 719 335 450 300 data 0;
#X scalar template_song 0 \; 16 0 0 \; 16 1 \; 0 0 0 0 \; 0 0 0 0 \;
0 0 0 0 \; 0 0 0 0 \; 0 0 0 0 \; 0 0 0 0 \; 0 0 0 0 \; 0 0 0 0 \; 0
0 0 0 \; 0 0 0 0 \; 0 0 0 0 \; 0 0 0 0 \; 0 0 0 0 \; 0 0 0 0 \; 0 0
0 0 \; 0 0 0 0 \; \; \; 16 0 0 \; 16 1 \; 0 0 0 0 \; 0 0 0 0 \; 0 0
0 0 \; 80 90 1000 0 \; 0 0 0 0 \; 0 0 0 0 \; 0 0 0 0 \; 0 0 0 0 \;
0 0 0 0 \; 0 0 0 0 \; 0 0 0 0 \; 0 0 0 0 \; 0 0 0 0 \; 0 0 0 0 \; 0
0 0 0 \; 0 0 0 0 \; \; \; 32 1 8 \; 8 16 \; 0 0 0 0 \; 0 0 0 0 \; 0
0 0 0 \; 0 0 0 0 \; 0 0 0 0 \; 0 0 0 0 \; 0 0 0 0 \; 0 0 0 0 \; 0 0
0 0 \; 0 0 0 0 \; 0 0 0 0 \; 0 0 0 0 \; 0 0 0 0 \; 0 0 0 0 \; 0 0 0
0 \; 0 0 0 0 \; \; \; 16 0 0 \; 16 1 \; 0 0 0 0 \; 0 0 0 0 \; 0 0 0
0 \; 0 0 0 0 \; 0 0 0 0 \; 0 0 0 0 \; 0 0 0 0 \; 0 0 0 0 \; 0 0 0 0
\; 0 0 0 0 \; 0 0 0 0 \; 0 0 0 0 \; 0 0 0 0 \; 0 0 0 0 \; 0 0 0 0 \;
0 0 0 0 \; \; \; 16 0 0 \; 16 1 \; 0 0 0 0 \; 0 0 0 0 \; 0 0 0 0 \;
0 0 0 0 \; 0 0 0 0 \; 0 0 0 0 \; 0 0 0 0 \; 0 0 0 0 \; 0 0 0 0 \; 0
0 0 0 \; 0 0 0 0 \; 0 0 0 0 \; 0 0 0 0 \; 0 0 0 0 \; 0 0 0 0 \; 0 0
0 0 \; \; \; 16 0 0 \; 16 1 \; 0 0 0 0 \; 0 0 0 0 \; 0 0 0 0 \; 0 0
0 0 \; 0 0 0 0 \; 0 0 0 0 \; 0 0 0 0 \; 0 0 0 0 \; 0 0 0 0 \; 0 0 0
0 \; 0 0 0 0 \; 0 0 0 0 \; 0 0 0 0 \; 0 0 0 0 \; 0 0 0 0 \; 0 0 0 0
\; \; \; 16 0 0 \; 16 1 \; 0 0 0 0 \; 0 0 0 0 \; 0 0 0 0 \; 0 0 0 0
\; 0 0 0 0 \; 0 0 0 0 \; 0 0 0 0 \; 0 0 0 0 \; 0 0 0 0 \; 0 0 0 0 \;
0 0 0 0 \; 0 0 0 0 \; 0 0 0 0 \; 0 0 0 0 \; 0 0 0 0 \; 0 0 0 0 \; \;
\; 16 0 0 \; 16 1 \; 0 0 0 0 \; 0 0 0 0 \; 0 0 0 0 \; 0 0 0 0 \; 0
0 0 0 \; 0 0 0 0 \; 0 0 0 0 \; 0 0 0 0 \; 0 0 0 0 \; 0 0 0 0 \; 0 0
0 0 \; 0 0 0 0 \; 0 0 0 0 \; 0 0 0 0 \; 0 0 0 0 \; 0 0 0 0 \; \; \;
16 0 0 \; 16 1 \; 0 0 0 0 \; 0 0 0 0 \; 0 0 0 0 \; 0 0 0 0 \; 0 0 0
0 \; 0 0 0 0 \; 0 0 0 0 \; 0 0 0 0 \; 0 0 0 0 \; 0 0 0 0 \; 0 0 0 0
\; 0 0 0 0 \; 0 0 0 0 \; 0 0 0 0 \; 0 0 0 0 \; 0 0 0 0 \; \; \; 16
0 0 \; 16 1 \; 0 0 0 0 \; 0 0 0 0 \; 0 0 0 0 \; 0 0 0 0 \; 0 0 0 0
\; 0 0 0 0 \; 0 0 0 0 \; 0 0 0 0 \; 0 0 0 0 \; 0 0 0 0 \; 0 0 0 0 \;
0 0 0 0 \; 0 0 0 0 \; 0 0 0 0 \; 0 0 0 0 \; 0 0 0 0 \; \; \; 16 0 0
\; 16 1 \; 0 0 0 0 \; 0 0 0 0 \; 0 0 0 0 \; 0 0 0 0 \; 0 0 0 0 \; 0
0 0 0 \; 0 0 0 0 \; 0 0 0 0 \; 0 0 0 0 \; 0 0 0 0 \; 0 0 0 0 \; 0 0
0 0 \; 0 0 0 0 \; 0 0 0 0 \; 0 0 0 0 \; 0 0 0 0 \; \; \; 16 0 0 \;
16 1 \; 0 0 0 0 \; 0 0 0 0 \; 0 0 0 0 \; 0 0 0 0 \; 0 0 0 0 \; 0 0
0 0 \; 0 0 0 0 \; 0 0 0 0 \; 0 0 0 0 \; 0 0 0 0 \; 0 0 0 0 \; 0 0 0
0 \; 0 0 0 0 \; 0 0 0 0 \; 0 0 0 0 \; 0 0 0 0 \; \; \; 16 0 0 \; 16
1 \; 0 0 0 0 \; 0 0 0 0 \; 0 0 0 0 \; 0 0 0 0 \; 0 0 0 0 \; 0 0 0 0
\; 0 0 0 0 \; 0 0 0 0 \; 0 0 0 0 \; 0 0 0 0 \; 0 0 0 0 \; 0 0 0 0 \;
0 0 0 0 \; 0 0 0 0 \; 0 0 0 0 \; 0 0 0 0 \; \; \; 16 0 0 \; 16 1 \;
0 0 0 0 \; 0 0 0 0 \; 0 0 0 0 \; 0 0 0 0 \; 0 0 0 0 \; 0 0 0 0 \; 0
0 0 0 \; 0 0 0 0 \; 0 0 0 0 \; 0 0 0 0 \; 0 0 0 0 \; 0 0 0 0 \; 0 0
0 0 \; 0 0 0 0 \; 0 0 0 0 \; 0 0 0 0 \; \; \; 16 0 0 \; 16 1 \; 0 0
0 0 \; 0 0 0 0 \; 0 0 0 0 \; 0 0 0 0 \; 0 0 0 0 \; 0 0 0 0 \; 0 0 0
0 \; 0 0 0 0 \; 0 0 0 0 \; 0 0 0 0 \; 0 0 0 0 \; 0 0 0 0 \; 0 0 0 0
\; 0 0 0 0 \; 0 0 0 0 \; 0 0 0 0 \; \; \; 16 0 0 \; 16 1 \; 0 0 0 0
\; 0 0 0 0 \; 0 0 0 0 \; 0 0 0 0 \; 0 0 0 0 \; 0 0 0 0 \; 0 0 0 0 \;
0 0 0 0 \; 0 0 0 0 \; 0 0 0 0 \; 0 0 0 0 \; 0 0 0 0 \; 0 0 0 0 \; 0
0 0 0 \; 0 0 0 0 \; 0 0 0 0 \; \; \; \;;
#X restore 421 13 pd data;
#N canvas 843 497 450 323 template_song 0;
#X obj 45 31 struct template_song float song_index array seq_slots
template_seq_slot;
#X restore 421 36 pd template_song;
#N canvas 600 60 1048 861 init_song 0;
#X obj 203 187 pointer;
#X msg 223 118 \; pd-data clear;
#X msg 203 158 traverse pd-data \, bang;
#X obj 184 93 t b b b;
#X msg 184 60 bang;
#X text 219 59 click here to re-initialize;
#X text 255 187 store pointer;
#X text 313 123 send reset memory message;
#X text 346 156 send get global data pointer message;
#X obj 423 436 setsize template_song seq_slots;
#X obj 423 409 f 16;
#X obj 203 217 t b p;
#X obj 218 436 element template_song seq_slots;
#X obj 218 405 eebcounter 15;
#X obj 233 523 f 0;
#X obj 233 734 set template_seq length midi_track_index;
#X msg 233 648 16 1;
#X obj 428 574 set template_seq_slot length is_muted;
#X msg 428 509 16 0;
#X obj 428 543 unpack;
#X obj 233 677 unpack;
#X obj 532 704 f 16;
#X obj 233 609 t b p b p;
#X obj 218 474 t p b p b p;
#X obj 203 246 f 0;
#X obj 203 276 append template_song song_index;
#X obj 218 379 until;
#X obj 218 350 f 16;
#X obj 233 574 element template_seq_slot seq;
#X obj 532 733 setsize template_seq midi_notes;
#X obj 205 776 outlet;
#X obj 203 306 t p b p b p;
#X text 327 296 create song;
#X text 515 455 init slots number;
#X text 599 592 init slot;
#X text 645 754 init sequence length;
#X text 438 755 init sequence;
#X obj 184 25 inlet;
#X connect 0 0 11 0;
#X connect 2 0 0 0;
#X connect 3 1 2 0;
#X connect 3 2 1 0;
#X connect 4 0 3 0;
#X connect 10 0 9 0;
#X connect 11 0 24 0;
#X connect 11 1 25 1;
#X connect 12 0 23 0;
#X connect 13 0 12 0;
#X connect 14 0 28 0;
#X connect 16 0 20 0;
#X connect 18 0 19 0;
#X connect 19 0 17 0;
#X connect 19 1 17 1;
#X connect 20 0 15 0;
#X connect 20 1 15 1;
#X connect 21 0 29 0;
#X connect 22 0 16 0;
#X connect 22 1 15 2;
#X connect 22 2 21 0;
#X connect 22 3 29 1;
#X connect 23 1 14 0;
#X connect 23 2 28 1;
#X connect 23 3 18 0;
#X connect 23 4 17 2;
#X connect 24 0 25 0;
#X connect 25 0 31 0;
#X connect 26 0 13 0;
#X connect 27 0 26 0;
#X connect 28 0 22 0;
#X connect 31 0 30 0;
#X connect 31 1 27 0;
#X connect 31 2 12 1;
#X connect 31 3 10 0;
#X connect 31 4 9 1;
#X connect 37 0 4 0;
#X restore 237 289 pd init_song;
#X msg 237 263 bang;
#N canvas 2168 326 713 461 template_seq_slot 0;
#X obj 31 47 struct template_seq_slot float length float is_muted float
midi_track_index array seq template_seq, f 96;
#X restore 421 60 pd template_seq_slot;
#N canvas 1152 199 450 461 template_seq 0;
#X obj 48 61 struct template_seq float length float midi_track_index
array midi_notes template_midi_note;
#X restore 421 84 pd template_seq;
#X obj 120 321 eeb_seq_slot_manager;
#X msg 162 194 note set 1 3 80 90 1000 0;
#X msg 151 167 note set 1 3 60 120 300 1;
#X msg 136 143 note get 1 3;
#X msg 100 109 seq set 2 8 16;
#X msg 85 84 seq get 2;
#X msg 26 27 seq_slot get 2;
#X msg 43 50 seq_slot set 2 32 1 8;
#X obj 237 230 loadbang;
#X connect 3 0 7 1;
#X connect 4 0 3 0;
#X connect 8 0 7 0;
#X connect 9 0 7 0;
#X connect 10 0 7 0;
#X connect 11 0 7 0;
#X connect 12 0 7 0;
#X connect 13 0 7 0;
#X connect 14 0 7 0;
#X connect 15 0 4 0;
