#N canvas 503 167 450 300 10;
#X obj 123 11 inlet;
#X obj 123 199 outlet;
#X obj 123 38 t f f;
#X obj 123 116 i;
#X obj 123 73 expr $f1 / 8 \; $f1 % 8;
#X obj 123 171 +;
#X obj 123 141 * 16;
#X connect 0 0 2 0;
#X connect 2 0 4 0;
#X connect 3 0 6 0;
#X connect 4 0 3 0;
#X connect 4 1 5 1;
#X connect 5 0 1 0;
#X connect 6 0 5 0;
