#N canvas 182 232 473 433 10;
#X obj 69 120 s song_manager;
#X obj 69 157 r song_manager;
#X msg 69 85 \$0 message bla blah 139 4567;
#X obj 69 197 list split 1;
#X obj 187 291 \$1;
#X msg 198 215 list result message list 6 9;
#X obj 298 86 r message-\$0;
#X obj 298 118 print message;
#X obj 65 369 s;
#X obj 199 240 t l b;
#X msg 187 321 symbol message-\$1;
#X connect 1 0 3 0;
#X connect 2 0 0 0;
#X connect 3 0 4 1;
#X connect 3 1 5 0;
#X connect 4 0 10 0;
#X connect 5 0 9 0;
#X connect 6 0 7 0;
#X connect 9 0 8 0;
#X connect 9 1 4 0;
#X connect 10 0 8 1;
