#N canvas 526 93 450 300 10;
#X obj 111 94 test-send-dyn;
#X obj 102 38 bng 15 250 50 0 empty empty empty 17 7 0 10 -262144 -1
-1;
#X obj 60 144 print;
#X obj 227 97 test-send-dyn;
#X obj 218 41 bng 15 250 50 0 empty empty empty 17 7 0 10 -262144 -1
-1;
#X connect 0 0 2 0;
#X connect 1 0 0 0;
#X connect 3 0 2 0;
#X connect 4 0 3 0;
