#N struct list_el float x array els el;
#N struct el float x float y float z;
#N canvas 367 23 545 679 10;
#N canvas 0 22 450 300 data 0;
#X scalar list_el 0 \; 10 0 0 \; 0 0 0 \; 0 0 0 \; 150 0 0 \; 0 0 0
\; 29 0 0 \; 0 0 0 \; 0 0 0 \; 0 0 0 \; 0 0 0 \; 67 0 0 \; 0 0 0 \;
0 0 0 \; 0 0 0 \; 0 0 0 \; 0 0 0 \; 0 0 0 \; 0 0 0 \; 29 0 0 \; 0 0
0 \; \;;
#X restore 479 21 pd data;
#N canvas 415 23 450 300 list_el 0;
#X obj 18 33 struct list_el float x array els el;
#X restore 480 47 pd list_el;
#N canvas 415 23 450 300 el 0;
#X obj 41 48 struct el float x float y float z;
#X restore 480 75 pd el;
#N canvas 1202 266 718 693 init 0;
#X obj 89 239 pointer;
#X msg 109 170 \; pd-data clear;
#X msg 89 210 traverse pd-data \, bang;
#X obj 70 145 t b b b;
#X msg 70 112 bang;
#X text 105 111 click here to re-initialize;
#X text 141 239 store pointer;
#X text 199 175 send reset memory message;
#X text 232 208 send get global data pointer message;
#X obj 89 269 t b p;
#X obj 89 298 f 0;
#X obj 134 49 loadbang;
#X obj 123 413 setsize list_el els;
#X obj 89 326 append list_el x;
#X obj 139 506 element list_el els;
#X obj 106 537 set el x;
#X msg 123 385 20;
#X obj 106 476 unpack;
#X obj 89 355 t p b b p;
#X obj 70 50 inlet;
#X obj 88 565 outlet;
#X msg 106 444 10 0 \, 150 3 \, 29 5 \, 67 10 \, 29 18;
#X connect 0 0 9 0;
#X connect 2 0 0 0;
#X connect 3 1 2 0;
#X connect 3 2 1 0;
#X connect 4 0 3 0;
#X connect 9 0 10 0;
#X connect 9 1 13 1;
#X connect 10 0 13 0;
#X connect 11 0 4 0;
#X connect 13 0 18 0;
#X connect 14 0 15 1;
#X connect 16 0 12 0;
#X connect 17 0 15 0;
#X connect 17 1 14 0;
#X connect 18 0 20 0;
#X connect 18 1 21 0;
#X connect 18 2 16 0;
#X connect 18 3 12 1;
#X connect 18 3 14 1;
#X connect 19 0 4 0;
#X connect 21 0 17 0;
#X restore 46 106 pd init;
#X obj 162 48 bng 15 250 50 0 empty empty empty 17 7 0 10 -262144 -1
-1;
#X obj 46 152 pointer;
#X obj 46 229 getsize list_el els;
#X obj 46 260 nbx 5 14 -1e+37 1e+37 0 0 empty empty empty 0 -8 0 10
-262144 -1 -1 0 256 0;
#X obj 45 322 until;
#X obj 46 188 t p p;
#X obj 44 392 element list_el els;
#X obj 45 360 eebcounter;
#X obj 45 288 t f f;
#X obj 91 332 -1;
#X obj 44 456 get el x;
#X obj 43 494 expr if($f1 == $f2 \, 1 \, -1);
#X obj 162 111 t b b;
#X obj 44 420 t p p;
#X obj 43 559 pointer;
#X obj 43 531 select 1;
#X obj 43 594 get el x;
#X obj 43 633 print found;
#X msg 196 461 29;
#X text 87 23 click here to find an el where x = 29;
#X connect 3 0 5 1;
#X connect 4 0 16 0;
#X connect 5 0 9 0;
#X connect 6 0 7 0;
#X connect 7 0 12 0;
#X connect 8 0 11 0;
#X connect 9 0 6 0;
#X connect 9 1 10 1;
#X connect 10 0 17 0;
#X connect 11 0 10 0;
#X connect 12 0 8 0;
#X connect 12 1 13 0;
#X connect 13 0 11 1;
#X connect 14 0 15 0;
#X connect 15 0 19 0;
#X connect 16 0 5 0;
#X connect 16 1 22 0;
#X connect 17 0 14 0;
#X connect 17 1 18 1;
#X connect 18 0 20 0;
#X connect 19 0 18 0;
#X connect 20 0 21 0;
#X connect 22 0 15 1;
