#N struct list_el float x array els el;
#N struct el float x float y float z;
#N canvas 310 106 450 300 10;
#N canvas 0 22 450 300 data 0;
#X scalar list_el 0 \; 10 0 0 \; 0 0 0 \; 0 0 0 \; 150 0 0 \; 0 0 0
\; 29 0 0 \; 0 0 0 \; 0 0 0 \; 0 0 0 \; 0 0 0 \; 67 0 0 \; 0 0 0 \;
0 0 0 \; 0 0 0 \; 0 0 0 \; 0 0 0 \; 0 0 0 \; 0 0 0 \; 0 0 0 \; 0 0
0 \; \;;
#X restore 331 51 pd data;
#N canvas 415 23 450 300 list_el 0;
#X obj 18 33 struct list_el float x array els el;
#X restore 332 77 pd list_el;
#N canvas 415 23 450 300 el 0;
#X obj 41 48 struct el float x float y float z;
#X restore 332 105 pd el;
#N canvas 401 38 718 670 init 0;
#X obj 89 239 pointer;
#X msg 109 170 \; pd-data clear;
#X msg 89 210 traverse pd-data \, bang;
#X obj 70 145 t b b b;
#X msg 70 112 bang;
#X text 105 111 click here to re-initialize;
#X text 141 239 store pointer;
#X text 199 175 send reset memory message;
#X text 232 208 send get global data pointer message;
#X obj 89 269 t b p;
#X obj 89 298 f 0;
#X obj 134 49 loadbang;
#X obj 123 413 setsize list_el els;
#X obj 89 326 append list_el x;
#X obj 139 506 element list_el els;
#X obj 106 537 set el x;
#X msg 106 444 10 0 \, 150 3 \, 29 5 \, 67 10;
#X msg 123 385 20;
#X obj 106 476 unpack;
#X obj 89 355 t p b b p;
#X obj 70 50 inlet;
#X obj 88 565 outlet;
#X connect 0 0 9 0;
#X connect 2 0 0 0;
#X connect 3 1 2 0;
#X connect 3 2 1 0;
#X connect 4 0 3 0;
#X connect 9 0 10 0;
#X connect 9 1 13 1;
#X connect 10 0 13 0;
#X connect 11 0 4 0;
#X connect 13 0 19 0;
#X connect 14 0 15 1;
#X connect 16 0 18 0;
#X connect 17 0 12 0;
#X connect 18 0 15 0;
#X connect 18 1 14 0;
#X connect 19 0 21 0;
#X connect 19 1 16 0;
#X connect 19 2 17 0;
#X connect 19 3 12 1;
#X connect 19 3 14 1;
#X connect 20 0 4 0;
#X restore 46 72 pd init;
#X obj 46 25 bng 15 250 50 0 empty empty empty 17 7 0 10 -262144 -1
-1;
#X obj 46 118 pointer;
#X connect 3 0 5 0;
#X connect 4 0 3 0;
