#N struct list_el float x array els el;
#N struct el float x float y float z;
#N canvas 792 124 1091 823 10;
#N canvas 0 22 450 300 data 0;
#X scalar list_el 0 \; 10 23 56 \; 0 0 0 \; 0 0 0 \; 150 78 45 \; 0
0 0 \; 29 65 78 \; 0 0 0 \; 0 0 0 \; 0 0 0 \; 0 0 0 \; 67 88 65 \;
0 0 0 \; 0 0 0 \; 0 0 0 \; 0 0 0 \; 0 0 0 \; 0 0 0 \; 0 0 0 \; 29 63
12 \; 0 0 0 \; \;;
#X restore 994 35 pd data;
#N canvas 415 23 450 300 list_el 0;
#X obj 18 33 struct list_el float x array els el;
#X restore 995 61 pd list_el;
#N canvas 1447 480 450 323 el 0;
#X obj 41 48 struct el float x float y float z;
#X restore 995 89 pd el;
#N canvas 46 177 718 739 init 1;
#X obj 89 239 pointer;
#X msg 109 170 \; pd-data clear;
#X msg 89 210 traverse pd-data \, bang;
#X obj 70 145 t b b b;
#X msg 70 112 bang;
#X text 105 111 click here to re-initialize;
#X text 141 239 store pointer;
#X text 199 175 send reset memory message;
#X text 232 208 send get global data pointer message;
#X obj 89 269 t b p;
#X obj 89 298 f 0;
#X obj 134 49 loadbang;
#X obj 123 413 setsize list_el els;
#X obj 89 326 append list_el x;
#X obj 187 503 element list_el els;
#X msg 123 385 20;
#X obj 89 355 t p b b p;
#X obj 70 50 inlet;
#X obj 88 565 outlet;
#X msg 105 444 10 23 56 0 \, 150 78 45 3 \, 29 65 78 5 \, 67 88 65
10 \, 29 63 12 18, f 66;
#X obj 106 476 unpack f f f f;
#X obj 105 537 set el x y z;
#X connect 0 0 9 0;
#X connect 2 0 0 0;
#X connect 3 1 2 0;
#X connect 3 2 1 0;
#X connect 4 0 3 0;
#X connect 9 0 10 0;
#X connect 9 1 13 1;
#X connect 10 0 13 0;
#X connect 11 0 4 0;
#X connect 13 0 16 0;
#X connect 14 0 21 3;
#X connect 15 0 12 0;
#X connect 16 0 18 0;
#X connect 16 1 19 0;
#X connect 16 2 15 0;
#X connect 16 3 12 1;
#X connect 16 3 14 1;
#X connect 17 0 4 0;
#X connect 19 0 20 0;
#X connect 20 0 21 0;
#X connect 20 1 21 1;
#X connect 20 2 21 2;
#X connect 20 3 14 0;
#X restore 253 149 pd init;
#X obj 115 52 bng 15 250 50 0 empty empty empty 17 7 0 10 -262144 -1
-1;
#X obj 253 187 pointer;
#X obj 115 115 t b b;
#X obj 41 231 pointer;
#X obj 41 422 print found;
#X obj 41 338 get el x y z;
#X obj 41 381 pack f f f;
#X msg 170 152 29, f 5;
#X obj 41 268 array_get_el_where_x_equal list_el els el x, f 18;
#X obj 143 185 nbx 5 14 -1e+037 1e+037 0 0 empty empty empty 0 -8 0
10 -262144 -1 -1 29 256 0;
#X obj 170 123 loadbang;
#X text 30 26 click here to find all el pointer where x = 29;
#X connect 3 0 5 0;
#X connect 4 0 6 0;
#X connect 5 0 7 1;
#X connect 6 0 7 0;
#X connect 6 1 13 0;
#X connect 7 0 12 0;
#X connect 9 0 10 0;
#X connect 9 1 10 1;
#X connect 9 2 10 2;
#X connect 10 0 8 0;
#X connect 11 0 13 0;
#X connect 12 0 9 0;
#X connect 13 0 12 1;
#X connect 14 0 11 0;
