#N canvas 476 28 742 682 10;
#X obj 223 282 tabwrite~ triangle;
#N canvas 0 22 450 300 (subpatch) 0;
#X array triangle 1000 float 0 black black;
#X coords 0 1 999 -1 200 140 1;
#X restore 496 46 graph;
#X obj 35 432 dac~;
#X obj 282 37 bng 15 250 50 0 empty empty empty 17 7 0 10 -262144 -1
-1;
#N canvas 0 22 450 300 (subpatch) 0;
#X array xfer 1000 float 4 black black;
#X coords 0 1 999 -1 200 140 1;
#X restore 496 207 graph;
#X obj 223 243 tabwrite~ xfer;
#X obj 35 336 *~;
#N canvas 0 22 450 300 (subpatch) 0;
#X array waveshape 1000 float 4 black black;
#X coords 0 1 999 -1 200 140 1;
#X restore 495 365 graph;
#X obj 222 315 tabwrite~ waveshape;
#X msg 214 83 0.75;
#X msg 98 83 0.25;
#X obj 168 107 osc~ 60;
#X floatatom 161 26 5 30 150 0 - - -, f 5;
#X floatatom 32 109 5 40 150 0 - - -, f 5;
#X obj 32 142 lyonpotpourri/oscil~ triangle 60;
#X msg 8 81 triangle;
#X msg 25 48 harmcount \$1;
#X floatatom 25 28 5 0 40 0 - - -, f 5;
#X connect 3 0 10 0;
#X connect 3 0 0 0;
#X connect 3 0 5 0;
#X connect 3 0 8 0;
#X connect 3 0 9 0;
#X connect 6 0 8 0;
#X connect 6 0 2 0;
#X connect 6 0 2 1;
#X connect 9 0 11 1;
#X connect 10 0 14 1;
#X connect 11 0 5 0;
#X connect 11 0 6 1;
#X connect 12 0 11 0;
#X connect 13 0 14 0;
#X connect 14 0 6 0;
#X connect 14 0 0 0;
#X connect 15 0 14 0;
#X connect 16 0 14 0;
#X connect 17 0 16 0;
