#N canvas 476 174 742 682 10;
#X obj 68 146 *~ -1;
#X obj 35 212 min~;
#X obj 223 282 tabwrite~ triangle;
#N canvas 0 0 450 300 (subpatch) 0;
#X array triangle 1000 float 4 black black;
#X coords 0 1 999 -1 200 140 1;
#X restore 496 46 graph;
#X obj 35 432 dac~;
#X obj 68 175 +~ 1;
#X obj 282 37 bng 15 250 50 0 empty empty empty 17 7 0 10 -262144 -1
-1;
#X obj 307 144 adsr~;
#N canvas 0 0 450 300 (subpatch) 0;
#X array xfer 1000 float 4 black black;
#X coords 0 1 999 -1 200 140 1;
#X restore 496 207 graph;
#X obj 223 243 tabwrite~ xfer;
#X obj 35 336 *~;
#N canvas 0 0 450 300 (subpatch) 0;
#X array waveshape 1000 float 4 black black;
#X coords 0 1 999 -1 200 140 1;
#X restore 495 365 graph;
#X obj 222 315 tabwrite~ waveshape;
#X msg 214 83 0.75;
#X msg 98 83 0.25;
#X obj 307 77 t b b;
#X obj 35 239 *~;
#X msg 334 112 0 150 50 50;
#X obj 35 109 phasor~ 60;
#X obj 168 107 osc~ 60;
#X floatatom 161 26 5 40 150 0 - - -, f 5;
#X floatatom 35 35 5 40 150 0 - - -, f 5;
#X connect 0 0 5 0;
#X connect 1 0 16 0;
#X connect 5 0 1 1;
#X connect 6 0 14 0;
#X connect 6 0 2 0;
#X connect 6 0 9 0;
#X connect 6 0 12 0;
#X connect 6 0 13 0;
#X connect 6 0 15 0;
#X connect 7 0 16 1;
#X connect 10 0 12 0;
#X connect 10 0 4 0;
#X connect 10 0 4 1;
#X connect 13 0 19 1;
#X connect 14 0 18 1;
#X connect 15 0 7 0;
#X connect 15 1 17 0;
#X connect 16 0 2 0;
#X connect 16 0 10 0;
#X connect 17 0 7 0;
#X connect 18 0 0 0;
#X connect 18 0 1 0;
#X connect 19 0 9 0;
#X connect 19 0 10 1;
#X connect 20 0 19 0;
#X connect 21 0 18 0;
