#N canvas 0 22 644 569 10;
#X text 14 152 red;
#X text 103 152 green;
#X text 249 148 blue;
#X obj 218 169 t b f;
#X obj 134 218 +;
#X obj 134 243 t b f;
#X obj 134 274 +;
#X obj 41 153 * -65536;
#X obj 143 152 * -256;
#X obj 218 147 * -1;
#X obj 134 305 - 1;
#X obj 218 120 f 0;
#X obj 41 27 inlet;
#X obj 41 60 t f;
#X obj 41 91 expr ($f1 & 3) * 255/3 \; (($f1 >> 4) & 3) * 255 / 3;
#X obj 218 96 loadbang;
#X obj 134 340 outlet;
#X obj 299 252 tgl 30 0 c00 empty empty 17 7 0 10 -212212 -1 -1 0 1
;
#X obj 358 251 tgl 30 0 c01 empty empty 17 7 0 10 -192371 -1 -1 0 1
;
#X obj 416 251 tgl 30 0 c02 empty empty 17 7 0 10 -110380 -1 -1 0 1
;
#X obj 480 249 tgl 30 0 c03 empty empty 17 7 0 10 -3678 -1 -1 0 1;
#X obj 298 326 tgl 30 0 c10 empty empty 17 7 0 10 -261365 -1 -1 0 1
;
#X obj 357 325 tgl 30 0 c11 empty empty 17 7 0 10 -261869 -1 -1 0 1
;
#X obj 414 325 tgl 30 0 c12 empty empty 17 7 0 10 -261918 -1 -1 0 1
;
#X obj 478 323 tgl 30 0 c13 empty empty 17 7 0 10 -220694 -1 -1 0 1
;
#X obj 298 393 tgl 30 0 c20 empty empty 17 7 0 10 -250894 -1 -1 0 1
;
#X obj 356 392 tgl 30 0 c21 empty empty 17 7 0 10 -260481 -1 -1 0 1
;
#X obj 414 392 tgl 30 0 c22 empty empty 17 7 0 10 -261460 -1 -1 0 1
;
#X obj 478 390 tgl 30 0 c23 empty empty 17 7 0 10 -261847 -1 -1 0 1
;
#X obj 297 466 tgl 30 0 c30 empty empty 17 7 0 10 -217089 -1 -1 0 1
;
#X obj 356 465 tgl 30 0 c31 empty empty 17 7 0 10 -234753 -1 -1 0 1
;
#X obj 414 465 tgl 30 0 c32 empty empty 17 7 0 10 -251841 -1 -1 0 1
;
#X obj 478 463 tgl 30 0 c33 empty empty 17 7 0 10 -260737 -1 -1 1 1
;
#X msg 286 292 -212212;
#X msg 352 292 -192371;
#X msg 411 291 -110380;
#X msg 476 289 -3678;
#X msg 287 360 -261365;
#X msg 353 361 -261869;
#X msg 412 360 -261918;
#X msg 477 358 -220694;
#X obj 108 454 tgl 15 0 empty empty empty 17 7 0 10 -261689 -1 -1 0
1;
#X msg 114 413 color \$1;
#X msg 352 506 23O 81 0;
#X msg 286 506 213 0 0;
#X msg 411 505 245 124 0;
#X msg 476 503 255 171 0;
#X msg 475 431 255 238 88;
#X msg 410 433 255 213 79;
#X msg 351 434 255 152 0;
#X msg 285 434 244 67 54;
#X connect 3 0 4 0;
#X connect 3 1 4 1;
#X connect 4 0 5 0;
#X connect 5 0 6 0;
#X connect 5 1 6 1;
#X connect 6 0 10 0;
#X connect 7 0 6 0;
#X connect 8 0 4 0;
#X connect 9 0 3 0;
#X connect 10 0 16 0;
#X connect 11 0 9 0;
#X connect 12 0 13 0;
#X connect 13 0 14 0;
#X connect 14 0 7 0;
#X connect 14 1 8 0;
#X connect 15 0 11 0;
#X connect 37 0 42 0;
#X connect 40 0 42 0;
#X connect 42 0 41 0;
#X connect 43 0 42 0;
#X connect 44 0 42 0;
#X connect 45 0 42 0;
#X connect 46 0 42 0;
