#N canvas 61 69 1073 916 10;
#X text 50 503 red;
#X text 146 502 green;
#X text 251 502 blue;
#X obj 268 549 t b f;
#X obj 196 566 +;
#X obj 196 591 t b f;
#X obj 196 622 +;
#X obj 77 500 * -65536;
#X obj 186 499 * -256;
#X obj 285 499 * -1;
#X obj 196 653 - 1;
#X obj 71 13 inlet;
#X obj 71 44 t f;
#X obj 196 688 outlet;
#X msg 440 429 23O 81 0;
#X msg 420 409 213 0 0;
#X msg 465 448 245 124 0;
#X msg 487 468 255 171 0;
#X msg 398 389 255 238 88;
#X msg 376 372 255 213 79;
#X msg 357 351 255 152 0;
#X msg 336 331 244 67 54;
#X msg 314 312 212 224 84;
#X msg 293 297 252 240 116;
#X msg 247 255 252 204 208;
#X msg 228 234 0 228 116;
#X msg 206 213 104 240 172;
#X msg 183 192 184 244 200;
#X msg 162 173 204 204 204;
#X obj 165 463 unpack f f f;
#X msg 270 275 252 236 176;
#X obj 71 116 * 10;
#X obj 162 119 +;
#X obj 71 75 expr ($f1 & 3) \; (($f1 >> 4) & 3);
#X obj 162 150 select 0 1 2 3 10 11 12 13 20 21 22 23 30 31 32 33;
#X connect 3 0 4 0;
#X connect 3 1 4 1;
#X connect 4 0 5 0;
#X connect 5 0 6 0;
#X connect 5 1 6 1;
#X connect 6 0 10 0;
#X connect 7 0 6 0;
#X connect 8 0 4 0;
#X connect 9 0 3 0;
#X connect 10 0 13 0;
#X connect 11 0 12 0;
#X connect 12 0 33 0;
#X connect 14 0 29 0;
#X connect 15 0 29 0;
#X connect 16 0 29 0;
#X connect 17 0 29 0;
#X connect 18 0 29 0;
#X connect 19 0 29 0;
#X connect 20 0 29 0;
#X connect 21 0 29 0;
#X connect 22 0 29 0;
#X connect 23 0 29 0;
#X connect 24 0 29 0;
#X connect 25 0 29 0;
#X connect 26 0 29 0;
#X connect 27 0 29 0;
#X connect 28 0 29 0;
#X connect 29 0 7 0;
#X connect 29 1 8 0;
#X connect 29 2 9 0;
#X connect 30 0 29 0;
#X connect 31 0 32 0;
#X connect 32 0 34 0;
#X connect 33 0 31 0;
#X connect 33 1 32 1;
#X connect 34 0 28 0;
#X connect 34 1 27 0;
#X connect 34 2 26 0;
#X connect 34 3 25 0;
#X connect 34 4 24 0;
#X connect 34 5 30 0;
#X connect 34 6 23 0;
#X connect 34 7 22 0;
#X connect 34 8 21 0;
#X connect 34 9 20 0;
#X connect 34 10 19 0;
#X connect 34 11 18 0;
#X connect 34 12 15 0;
#X connect 34 13 14 0;
#X connect 34 14 16 0;
#X connect 34 15 17 0;
