#N canvas 517 -762 963 690 10;
#X obj 369 531 matrix;
#X obj 471 496 loadbang;
#X obj 471 516 mtx_diag 4 3 1 2;
#X obj 369 553 print;
#X msg 369 364 row;
#X msg 539 497 bang;
#X msg 379 404 row \$1;
#X floatatom 379 385 4 0 0 0 - - -, f 4;
#X floatatom 391 424 4 0 0 0 - - -, f 4;
#X msg 391 443 row \$1 1 2 3 4;
#X floatatom 498 382 4 0 0 0 - - -, f 4;
#X floatatom 510 421 4 0 0 0 - - -, f 4;
#X msg 488 362 col;
#X msg 498 401 col \$1;
#X msg 510 440 col \$1 1 2 3 4;
#X msg 592 364 element;
#X msg 623 406 element \$1;
#X floatatom 643 428 4 0 0 0 - - -, f 4;
#X msg 643 447 element 3 \$1;
#X floatatom 623 386 4 0 0 0 - - -, f 4;
#X text 366 345 get/set rows;
#X text 479 344 get/set columns;
#X msg 335 398 bang;
#X text 586 344 get/set elements;
#X msg 654 486 element \$1 2 10;
#X floatatom 654 468 4 0 0 0 - - -, f 4;
#X msg 702 406 element \$1 \$1;
#X text 687 406 ==;
#X msg 99 201 row 1 144 0 15;
#X msg 118 231 row 2 144 1 15;
#X obj 81 305 print;
#X obj 80 178 bng 15 250 50 0 empty empty empty 17 7 0 10 -262144 -1
-1;
#X obj 81 273 matrix 2 3;
#X connect 0 0 3 0;
#X connect 1 0 2 0;
#X connect 2 0 0 1;
#X connect 4 0 0 0;
#X connect 5 0 2 0;
#X connect 6 0 0 0;
#X connect 7 0 6 0;
#X connect 8 0 9 0;
#X connect 9 0 0 0;
#X connect 10 0 13 0;
#X connect 11 0 14 0;
#X connect 12 0 0 0;
#X connect 13 0 0 0;
#X connect 14 0 0 0;
#X connect 15 0 0 0;
#X connect 16 0 0 0;
#X connect 17 0 18 0;
#X connect 18 0 0 0;
#X connect 19 0 16 0;
#X connect 22 0 0 0;
#X connect 24 0 0 0;
#X connect 25 0 24 0;
#X connect 28 0 32 0;
#X connect 29 0 32 0;
#X connect 31 0 32 0;
#X connect 32 0 30 0;
