#N canvas 691 109 451 173 8;
#X obj 154 40 cnv 15 60 20 empty cnv1 empty 5 11 0 14 -4032 -66577
0;
#X obj 154 62 cnv 15 60 20 empty cnv2 empty 5 11 0 14 -4032 -66577
0;
#X obj 154 84 cnv 15 60 20 empty cnv3 empty 5 11 0 14 -4032 -66577
0;
#X obj 154 106 cnv 15 60 20 empty cnv4 empty 5 11 0 14 -4032 -66577
0;
#N canvas 9 9 596 574 intervals 0;
#X msg 154 405 label \$1;
#X obj 154 384 symbol;
#X msg 276 247 b7;
#X msg 214 405 label \$1;
#X obj 214 384 symbol;
#X msg 336 247 maj3rd;
#X msg 274 405 label \$1;
#X obj 274 384 symbol;
#X msg 396 247 dim7th;
#X obj 154 425 s cnv1;
#X obj 214 425 s cnv2;
#X obj 274 425 s cnv3;
#X obj 354 174 random 3;
#X msg 360 435 label \$1;
#X obj 360 414 symbol;
#X obj 354 193 route 0 1 2;
#X obj 360 455 s cnv4;
#X obj 154 42 inlet;
#X msg 154 193 ...;
#X obj 154 166 sel 0;
#X obj 154 127 t f b b b;
#X obj 354 154 metro 200;
#X connect 0 0 9 0;
#X connect 1 0 0 0;
#X connect 2 0 1 0;
#X connect 2 0 14 0;
#X connect 3 0 10 0;
#X connect 4 0 3 0;
#X connect 5 0 4 0;
#X connect 5 0 14 0;
#X connect 6 0 11 0;
#X connect 7 0 6 0;
#X connect 8 0 7 0;
#X connect 8 0 14 0;
#X connect 12 0 15 0;
#X connect 13 0 16 0;
#X connect 14 0 13 0;
#X connect 15 0 2 0;
#X connect 15 1 5 0;
#X connect 15 2 8 0;
#X connect 17 0 20 0;
#X connect 17 0 21 0;
#X connect 18 0 7 0;
#X connect 18 0 4 0;
#X connect 18 0 1 0;
#X connect 18 0 14 0;
#X connect 19 0 18 0;
#X connect 20 0 19 0;
#X connect 20 1 2 0;
#X connect 20 2 5 0;
#X connect 20 3 8 0;
#X connect 21 0 12 0;
#X restore 24 73 pd intervals;
#X obj 24 20 tgl 50 0 empty empty empty 17 7 0 10 -4032 -1 -1 0 1;
#X connect 5 0 4 0;
