#N canvas 194 641 450 415 10;
#X obj 196 108 bng 15 250 50 0 empty empty empty 17 7 0 10 -262144
-1 -1;
#X obj 155 32 key;
#X obj 154 65 sel 97;
#X obj 155 109 bng 15 250 50 0 empty empty empty 17 7 0 10 -262144
-1 -1;
#X obj 157 146 onebang;
#X obj 157 182 bng 15 250 50 0 empty empty empty 17 7 0 10 -262144
-1 -1;
#X obj 157 212 timer;
#X obj 236 101 keyup;
#X obj 235 132 sel 97;
#X obj 205 179 bng 15 250 50 0 empty empty empty 17 7 0 10 -262144
-1 -1;
#X obj 157 271 > 3000;
#X obj 157 347 bng 15 250 50 0 empty empty empty 17 7 0 10 -262144
-1 -1;
#X floatatom 156 241 5 0 0 0 - - -;
#X obj 211 58 loadbang;
#X obj 217 347 bng 15 250 50 0 empty empty empty 17 7 0 10 -262144
-1 -1;
#X obj 157 304 sel 1;
#X connect 0 0 4 1;
#X connect 1 0 2 0;
#X connect 2 0 3 0;
#X connect 3 0 4 0;
#X connect 4 0 5 0;
#X connect 5 0 6 0;
#X connect 6 0 12 0;
#X connect 7 0 8 0;
#X connect 8 0 9 0;
#X connect 8 0 0 0;
#X connect 9 0 6 1;
#X connect 10 0 15 0;
#X connect 12 0 10 0;
#X connect 13 0 0 0;
#X connect 15 0 11 0;
#X connect 15 1 14 0;
