#N canvas 2018 133 901 742 10;
#N canvas 0 0 450 300 (subpatch) 0;
#X array input 256 float 4 black black;
#X coords 0 1 255 -1 200 140 1;
#X restore 522 13 graph;
#N canvas 0 0 450 300 (subpatch) 0;
#X array xfer 256 float 4 black #ff0000;
#X coords 0 1 255 -1 200 140 1;
#X restore 522 170 graph;
#X obj 110 646 dac~;
#X obj 360 280 tabwrite~ input;
#X obj 110 66 bng 15 250 50 0 empty empty empty 17 7 0 10 -262144 -1
-1;
#X msg 110 101 triangle;
#X obj 126 317 oscil~;
#X msg 127 297 sine;
#X obj 358 309 tabwrite~ xfer;
#X msg 229 207 0.75;
#X obj 194 68 bng 15 250 50 0 empty empty empty 17 7 0 10 -262144 -1
-1;
#N canvas 0 0 450 300 (subpatch) 0;
#X array waveshape 256 float 4 black #ff00ff;
#X coords 0 1 255 -1 200 140 1;
#X restore 522 326 graph;
#X obj 361 357 tabwrite~ waveshape;
#X obj 126 350 *~;
#X obj 185 351 hsl 128 15 0 1000 0 0 empty empty empty -2 -8 0 10 -262144
-1 -1 8600 1;
#X obj 185 379 / 1000;
#X obj 111 383 +~;
#X obj 162 432 *~;
#X obj 221 433 hsl 128 15 0 1000 0 0 empty empty empty -2 -8 0 10 -262144
-1 -1 10200 1;
#X obj 221 461 / 1000;
#X obj 149 515 lyonpotpourri/adsr~;
#X msg 290 484 0 50 50 50;
#X obj 380 27 bng 60 250 50 0 empty empty empty 17 7 0 10 -262144 -1
-1;
#N canvas 0 0 450 300 (subpatch) 0;
#X array adsr 100000 float 4 black #ff00ff;
#X coords 0 1 99999 -1 200 140 1;
#X restore 523 481 graph;
#X obj 177 592 tabwrite~ adsr;
#X msg 220 131 1;
#X obj 111 168 oscil~;
#X obj 257 66 adsr~;
#X obj 111 539 *~ 1;
#X obj 256 93 *~ 100;
#X msg 258 39 0 300 1000 5000;
#X msg 169 174 30000;
#X connect 4 0 5 0;
#X connect 4 0 31 0;
#X connect 4 0 7 0;
#X connect 5 0 26 0;
#X connect 6 0 8 0;
#X connect 6 0 13 0;
#X connect 7 0 6 0;
#X connect 9 0 6 1;
#X connect 10 0 25 0;
#X connect 10 0 9 0;
#X connect 13 0 16 1;
#X connect 14 0 15 0;
#X connect 15 0 13 1;
#X connect 16 0 12 0;
#X connect 16 0 28 0;
#X connect 17 0 16 0;
#X connect 18 0 19 0;
#X connect 19 0 17 1;
#X connect 21 0 20 0;
#X connect 22 0 20 0;
#X connect 22 0 24 0;
#X connect 22 0 3 0;
#X connect 22 0 12 0;
#X connect 22 0 25 0;
#X connect 22 0 9 0;
#X connect 22 0 27 0;
#X connect 25 0 26 1;
#X connect 26 0 3 0;
#X connect 26 0 17 0;
#X connect 27 0 29 0;
#X connect 28 0 2 0;
#X connect 28 0 2 1;
#X connect 28 0 24 0;
#X connect 29 0 26 0;
#X connect 29 0 6 0;
#X connect 30 0 27 0;
#X connect 31 0 6 0;
#X connect 31 0 26 0;
